%TF.GenerationSoftware,KiCad,Pcbnew,9.0.5*%
%TF.CreationDate,2025-10-19T16:10:15+05:30*%
%TF.ProjectId,KICADWORKSHOP_LED_CHASER,4b494341-4457-44f5-924b-53484f505f4c,rev?*%
%TF.SameCoordinates,Original*%
%TF.FileFunction,Legend,Bot*%
%TF.FilePolarity,Positive*%
%FSLAX46Y46*%
G04 Gerber Fmt 4.6, Leading zero omitted, Abs format (unit mm)*
G04 Created by KiCad (PCBNEW 9.0.5) date 2025-10-19 16:10:15*
%MOMM*%
%LPD*%
G01*
G04 APERTURE LIST*
%ADD10C,0.150000*%
%ADD11C,0.120000*%
G04 APERTURE END LIST*
D10*
X119771666Y-60439580D02*
X119819285Y-60487200D01*
X119819285Y-60487200D02*
X119962142Y-60534819D01*
X119962142Y-60534819D02*
X120057380Y-60534819D01*
X120057380Y-60534819D02*
X120200237Y-60487200D01*
X120200237Y-60487200D02*
X120295475Y-60391961D01*
X120295475Y-60391961D02*
X120343094Y-60296723D01*
X120343094Y-60296723D02*
X120390713Y-60106247D01*
X120390713Y-60106247D02*
X120390713Y-59963390D01*
X120390713Y-59963390D02*
X120343094Y-59772914D01*
X120343094Y-59772914D02*
X120295475Y-59677676D01*
X120295475Y-59677676D02*
X120200237Y-59582438D01*
X120200237Y-59582438D02*
X120057380Y-59534819D01*
X120057380Y-59534819D02*
X119962142Y-59534819D01*
X119962142Y-59534819D02*
X119819285Y-59582438D01*
X119819285Y-59582438D02*
X119771666Y-59630057D01*
X119390713Y-59630057D02*
X119343094Y-59582438D01*
X119343094Y-59582438D02*
X119247856Y-59534819D01*
X119247856Y-59534819D02*
X119009761Y-59534819D01*
X119009761Y-59534819D02*
X118914523Y-59582438D01*
X118914523Y-59582438D02*
X118866904Y-59630057D01*
X118866904Y-59630057D02*
X118819285Y-59725295D01*
X118819285Y-59725295D02*
X118819285Y-59820533D01*
X118819285Y-59820533D02*
X118866904Y-59963390D01*
X118866904Y-59963390D02*
X119438332Y-60534819D01*
X119438332Y-60534819D02*
X118819285Y-60534819D01*
D11*
%TO.C,C2*%
X119343748Y-63315000D02*
X119866252Y-63315000D01*
X119343748Y-61845000D02*
X119866252Y-61845000D01*
%TD*%
M02*
