%TF.GenerationSoftware,KiCad,Pcbnew,9.0.5*%
%TF.CreationDate,2025-10-19T16:10:15+05:30*%
%TF.ProjectId,KICADWORKSHOP_LED_CHASER,4b494341-4457-44f5-924b-53484f505f4c,rev?*%
%TF.SameCoordinates,Original*%
%TF.FileFunction,Copper,L2,Bot*%
%TF.FilePolarity,Positive*%
%FSLAX46Y46*%
G04 Gerber Fmt 4.6, Leading zero omitted, Abs format (unit mm)*
G04 Created by KiCad (PCBNEW 9.0.5) date 2025-10-19 16:10:15*
%MOMM*%
%LPD*%
G01*
G04 APERTURE LIST*
G04 Aperture macros list*
%AMRoundRect*
0 Rectangle with rounded corners*
0 $1 Rounding radius*
0 $2 $3 $4 $5 $6 $7 $8 $9 X,Y pos of 4 corners*
0 Add a 4 corners polygon primitive as box body*
4,1,4,$2,$3,$4,$5,$6,$7,$8,$9,$2,$3,0*
0 Add four circle primitives for the rounded corners*
1,1,$1+$1,$2,$3*
1,1,$1+$1,$4,$5*
1,1,$1+$1,$6,$7*
1,1,$1+$1,$8,$9*
0 Add four rect primitives between the rounded corners*
20,1,$1+$1,$2,$3,$4,$5,0*
20,1,$1+$1,$4,$5,$6,$7,0*
20,1,$1+$1,$6,$7,$8,$9,0*
20,1,$1+$1,$8,$9,$2,$3,0*%
G04 Aperture macros list end*
%TA.AperFunction,ComponentPad*%
%ADD10RoundRect,0.250000X0.550000X0.550000X-0.550000X0.550000X-0.550000X-0.550000X0.550000X-0.550000X0*%
%TD*%
%TA.AperFunction,ComponentPad*%
%ADD11C,1.600000*%
%TD*%
%TA.AperFunction,ComponentPad*%
%ADD12RoundRect,0.250000X-0.550000X-0.550000X0.550000X-0.550000X0.550000X0.550000X-0.550000X0.550000X0*%
%TD*%
%TA.AperFunction,ComponentPad*%
%ADD13C,1.440000*%
%TD*%
%TA.AperFunction,ComponentPad*%
%ADD14R,1.800000X1.800000*%
%TD*%
%TA.AperFunction,ComponentPad*%
%ADD15C,1.800000*%
%TD*%
%TA.AperFunction,SMDPad,CuDef*%
%ADD16RoundRect,0.250000X-0.250000X-0.475000X0.250000X-0.475000X0.250000X0.475000X-0.250000X0.475000X0*%
%TD*%
%TA.AperFunction,ComponentPad*%
%ADD17RoundRect,0.250000X-0.350000X-0.350000X0.350000X-0.350000X0.350000X0.350000X-0.350000X0.350000X0*%
%TD*%
%TA.AperFunction,ComponentPad*%
%ADD18C,1.200000*%
%TD*%
%TA.AperFunction,ComponentPad*%
%ADD19R,2.000000X2.000000*%
%TD*%
%TA.AperFunction,ComponentPad*%
%ADD20C,2.000000*%
%TD*%
%TA.AperFunction,ViaPad*%
%ADD21C,0.700000*%
%TD*%
%TA.AperFunction,ViaPad*%
%ADD22C,0.500000*%
%TD*%
%TA.AperFunction,Conductor*%
%ADD23C,0.200000*%
%TD*%
%TA.AperFunction,Conductor*%
%ADD24C,0.400000*%
%TD*%
G04 APERTURE END LIST*
D10*
%TO.P,U2,1,Q5*%
%TO.N,Q5*%
X135120000Y-68080000D03*
D11*
%TO.P,U2,2,Q1*%
%TO.N,Q1*%
X135120000Y-65540000D03*
%TO.P,U2,3,Q0*%
%TO.N,Q0*%
X135120000Y-63000000D03*
%TO.P,U2,4,Q2*%
%TO.N,Q2*%
X135120000Y-60460000D03*
%TO.P,U2,5,Q6*%
%TO.N,Q6*%
X135120000Y-57920000D03*
%TO.P,U2,6,Q7*%
%TO.N,Q7*%
X135120000Y-55380000D03*
%TO.P,U2,7,Q3*%
%TO.N,Q3*%
X135120000Y-52840000D03*
%TO.P,U2,8,VSS*%
%TO.N,GND*%
X135120000Y-50300000D03*
%TO.P,U2,9,Q8*%
%TO.N,Q8*%
X127500000Y-50300000D03*
%TO.P,U2,10,Q4*%
%TO.N,Q4*%
X127500000Y-52840000D03*
%TO.P,U2,11,Q9*%
%TO.N,Q9*%
X127500000Y-55380000D03*
%TO.P,U2,12,Cout*%
%TO.N,unconnected-(U2-Cout-Pad12)*%
X127500000Y-57920000D03*
%TO.P,U2,13,CKEN*%
%TO.N,GND*%
X127500000Y-60460000D03*
%TO.P,U2,14,CLK*%
%TO.N,CLK*%
X127500000Y-63000000D03*
%TO.P,U2,15,Reset*%
%TO.N,GND*%
X127500000Y-65540000D03*
%TO.P,U2,16,VDD*%
%TO.N,+6V*%
X127500000Y-68080000D03*
%TD*%
D12*
%TO.P,U1,1,GND*%
%TO.N,GND*%
X107300000Y-56270000D03*
D11*
%TO.P,U1,2,TR*%
%TO.N,Net-(U1-THR)*%
X107300000Y-58810000D03*
%TO.P,U1,3,Q*%
%TO.N,CLK*%
X107300000Y-61350000D03*
%TO.P,U1,4,R*%
%TO.N,+6V*%
X107300000Y-63890000D03*
%TO.P,U1,5,CV*%
%TO.N,Net-(U1-CV)*%
X114920000Y-63890000D03*
%TO.P,U1,6,THR*%
%TO.N,Net-(U1-THR)*%
X114920000Y-61350000D03*
%TO.P,U1,7,DIS*%
%TO.N,Net-(U1-DIS)*%
X114920000Y-58810000D03*
%TO.P,U1,8,VCC*%
%TO.N,+6V*%
X114920000Y-56270000D03*
%TD*%
D13*
%TO.P,RV1,1,1*%
%TO.N,Net-(U1-THR)*%
X110620000Y-50120000D03*
%TO.P,RV1,2,2*%
%TO.N,Net-(U1-DIS)*%
X113160000Y-47580000D03*
%TO.P,RV1,3,3*%
X110620000Y-45040000D03*
%TD*%
D11*
%TO.P,R10,1*%
%TO.N,Q8*%
X147420000Y-87500000D03*
%TO.P,R10,2*%
%TO.N,Net-(D9-A)*%
X157580000Y-87500000D03*
%TD*%
%TO.P,R9,1*%
%TO.N,Q7*%
X147420000Y-81500000D03*
%TO.P,R9,2*%
%TO.N,Net-(D8-A)*%
X157580000Y-81500000D03*
%TD*%
%TO.P,R8,1*%
%TO.N,Q6*%
X147420000Y-76000000D03*
%TO.P,R8,2*%
%TO.N,Net-(D7-A)*%
X157580000Y-76000000D03*
%TD*%
%TO.P,R7,1*%
%TO.N,Q5*%
X147420000Y-70000000D03*
%TO.P,R7,2*%
%TO.N,Net-(D6-A)*%
X157580000Y-70000000D03*
%TD*%
%TO.P,R6,1*%
%TO.N,Q4*%
X147420000Y-64000000D03*
%TO.P,R6,2*%
%TO.N,Net-(D5-A)*%
X157580000Y-64000000D03*
%TD*%
%TO.P,R5,1*%
%TO.N,Q3*%
X147420000Y-58000000D03*
%TO.P,R5,2*%
%TO.N,Net-(D4-A)*%
X157580000Y-58000000D03*
%TD*%
%TO.P,R4,1*%
%TO.N,Q2*%
X147420000Y-52500000D03*
%TO.P,R4,2*%
%TO.N,Net-(D3-A)*%
X157580000Y-52500000D03*
%TD*%
%TO.P,R3,1*%
%TO.N,Q1*%
X147420000Y-47000000D03*
%TO.P,R3,2*%
%TO.N,Net-(D2-A)*%
X157580000Y-47000000D03*
%TD*%
%TO.P,R2,1*%
%TO.N,Q0*%
X147420000Y-41500000D03*
%TO.P,R2,2*%
%TO.N,Net-(D1-A)*%
X157580000Y-41500000D03*
%TD*%
%TO.P,R1,1*%
%TO.N,+6V*%
X107025000Y-69080000D03*
%TO.P,R1,2*%
%TO.N,Net-(U1-DIS)*%
X117185000Y-69080000D03*
%TD*%
D14*
%TO.P,D9,1,K*%
%TO.N,GND*%
X163770000Y-87500000D03*
D15*
%TO.P,D9,2,A*%
%TO.N,Net-(D9-A)*%
X161230000Y-87500000D03*
%TD*%
D14*
%TO.P,D8,1,K*%
%TO.N,GND*%
X163770000Y-81500000D03*
D15*
%TO.P,D8,2,A*%
%TO.N,Net-(D8-A)*%
X161230000Y-81500000D03*
%TD*%
D14*
%TO.P,D7,1,K*%
%TO.N,GND*%
X163770000Y-76000000D03*
D15*
%TO.P,D7,2,A*%
%TO.N,Net-(D7-A)*%
X161230000Y-76000000D03*
%TD*%
D14*
%TO.P,D6,1,K*%
%TO.N,GND*%
X163770000Y-70000000D03*
D15*
%TO.P,D6,2,A*%
%TO.N,Net-(D6-A)*%
X161230000Y-70000000D03*
%TD*%
D14*
%TO.P,D5,1,K*%
%TO.N,GND*%
X163770000Y-64000000D03*
D15*
%TO.P,D5,2,A*%
%TO.N,Net-(D5-A)*%
X161230000Y-64000000D03*
%TD*%
D14*
%TO.P,D4,1,K*%
%TO.N,GND*%
X163770000Y-58000000D03*
D15*
%TO.P,D4,2,A*%
%TO.N,Net-(D4-A)*%
X161230000Y-58000000D03*
%TD*%
D14*
%TO.P,D3,1,K*%
%TO.N,GND*%
X163770000Y-52500000D03*
D15*
%TO.P,D3,2,A*%
%TO.N,Net-(D3-A)*%
X161230000Y-52500000D03*
%TD*%
D14*
%TO.P,D2,1,K*%
%TO.N,GND*%
X163770000Y-47000000D03*
D15*
%TO.P,D2,2,A*%
%TO.N,Net-(D2-A)*%
X161230000Y-47000000D03*
%TD*%
D14*
%TO.P,D1,1,K*%
%TO.N,GND*%
X163770000Y-41500000D03*
D15*
%TO.P,D1,2,A*%
%TO.N,Net-(D1-A)*%
X161230000Y-41500000D03*
%TD*%
D16*
%TO.P,C2,1*%
%TO.N,Net-(U1-CV)*%
X118655000Y-62580000D03*
%TO.P,C2,2*%
%TO.N,GND*%
X120555000Y-62580000D03*
%TD*%
D17*
%TO.P,C1,1*%
%TO.N,Net-(U1-THR)*%
X118605000Y-58080000D03*
D18*
%TO.P,C1,2*%
%TO.N,GND*%
X120605000Y-58080000D03*
%TD*%
D19*
%TO.P,BT2,1,+*%
%TO.N,Net-(BT1--)*%
X88120000Y-64682546D03*
D20*
%TO.P,BT2,2,-*%
%TO.N,GND*%
X88120000Y-85482546D03*
%TD*%
D19*
%TO.P,BT1,1,+*%
%TO.N,+6V*%
X88120000Y-34182546D03*
D20*
%TO.P,BT1,2,-*%
%TO.N,Net-(BT1--)*%
X88120000Y-54982546D03*
%TD*%
D21*
%TO.N,Net-(U1-DIS)*%
X116500000Y-61500000D03*
%TO.N,Q3*%
X141000000Y-55500000D03*
%TO.N,Net-(U1-THR)*%
X116770000Y-59500000D03*
%TO.N,Net-(U1-DIS)*%
X113160000Y-49840000D03*
D22*
%TO.N,GND*%
X165500000Y-94500000D03*
%TD*%
D23*
%TO.N,Net-(U1-CV)*%
X117345000Y-63890000D02*
X114920000Y-63890000D01*
X118655000Y-62580000D02*
X117345000Y-63890000D01*
%TO.N,Net-(U1-DIS)*%
X116500000Y-60390000D02*
X116500000Y-61500000D01*
X114920000Y-58810000D02*
X116500000Y-60390000D01*
%TO.N,Net-(U1-THR)*%
X110620000Y-57050000D02*
X112380000Y-58810000D01*
X110620000Y-50120000D02*
X110620000Y-57050000D01*
%TO.N,CLK*%
X124364000Y-66136000D02*
X112086000Y-66136000D01*
X127500000Y-63000000D02*
X124364000Y-66136000D01*
X112086000Y-66136000D02*
X107300000Y-61350000D01*
%TO.N,Q5*%
X137040000Y-70000000D02*
X135120000Y-68080000D01*
X147420000Y-70000000D02*
X137040000Y-70000000D01*
%TO.N,Q4*%
X129500000Y-54840000D02*
X127500000Y-52840000D01*
X134399000Y-61899000D02*
X129500000Y-57000000D01*
X145319000Y-61899000D02*
X134399000Y-61899000D01*
X129500000Y-57000000D02*
X129500000Y-54840000D01*
X147420000Y-64000000D02*
X145319000Y-61899000D01*
%TO.N,Q3*%
X138340000Y-52840000D02*
X135120000Y-52840000D01*
X141000000Y-55500000D02*
X138340000Y-52840000D01*
%TO.N,Q2*%
X138040000Y-60460000D02*
X135120000Y-60460000D01*
X147420000Y-52500000D02*
X146000000Y-52500000D01*
X146000000Y-52500000D02*
X138040000Y-60460000D01*
%TO.N,Net-(D9-A)*%
X161230000Y-87500000D02*
X157580000Y-87500000D01*
%TO.N,Net-(D8-A)*%
X157580000Y-81500000D02*
X161230000Y-81500000D01*
%TO.N,Net-(D7-A)*%
X157580000Y-76000000D02*
X161230000Y-76000000D01*
%TO.N,Net-(D6-A)*%
X157580000Y-70000000D02*
X161230000Y-70000000D01*
%TO.N,Net-(D5-A)*%
X157580000Y-64000000D02*
X161230000Y-64000000D01*
%TO.N,Net-(D4-A)*%
X157580000Y-58000000D02*
X161230000Y-58000000D01*
%TO.N,Net-(D3-A)*%
X161230000Y-52500000D02*
X157580000Y-52500000D01*
%TO.N,Net-(D2-A)*%
X157580000Y-47000000D02*
X161230000Y-47000000D01*
%TO.N,Net-(D1-A)*%
X161230000Y-41500000D02*
X157580000Y-41500000D01*
D24*
%TO.N,Net-(U1-THR)*%
X117185000Y-59500000D02*
X118605000Y-58080000D01*
X116770000Y-59500000D02*
X117185000Y-59500000D01*
X112380000Y-58810000D02*
X114920000Y-61350000D01*
X107300000Y-58810000D02*
X112380000Y-58810000D01*
%TO.N,Net-(U1-DIS)*%
X113160000Y-57050000D02*
X114920000Y-58810000D01*
X113160000Y-49840000D02*
X113160000Y-57050000D01*
%TD*%
%TA.AperFunction,Conductor*%
%TO.N,GND*%
G36*
X169942539Y-29020185D02*
G01*
X169988294Y-29072989D01*
X169999500Y-29124500D01*
X169999500Y-97875500D01*
X169979815Y-97942539D01*
X169927011Y-97988294D01*
X169875500Y-97999500D01*
X72624500Y-97999500D01*
X72557461Y-97979815D01*
X72511706Y-97927011D01*
X72500500Y-97875500D01*
X72500500Y-87397648D01*
X146119500Y-87397648D01*
X146119500Y-87602351D01*
X146151522Y-87804534D01*
X146214781Y-87999223D01*
X146266385Y-88100500D01*
X146300882Y-88168204D01*
X146307715Y-88181613D01*
X146428028Y-88347213D01*
X146572786Y-88491971D01*
X146727749Y-88604556D01*
X146738390Y-88612287D01*
X146854607Y-88671503D01*
X146920776Y-88705218D01*
X146920778Y-88705218D01*
X146920781Y-88705220D01*
X147025137Y-88739127D01*
X147115465Y-88768477D01*
X147216557Y-88784488D01*
X147317648Y-88800500D01*
X147317649Y-88800500D01*
X147522351Y-88800500D01*
X147522352Y-88800500D01*
X147724534Y-88768477D01*
X147919219Y-88705220D01*
X148101610Y-88612287D01*
X148246005Y-88507379D01*
X148267213Y-88491971D01*
X148267215Y-88491968D01*
X148267219Y-88491966D01*
X148411966Y-88347219D01*
X148411968Y-88347215D01*
X148411971Y-88347213D01*
X148494207Y-88234023D01*
X148532287Y-88181610D01*
X148625220Y-87999219D01*
X148688477Y-87804534D01*
X148720500Y-87602352D01*
X148720500Y-87397648D01*
X156279500Y-87397648D01*
X156279500Y-87602351D01*
X156311522Y-87804534D01*
X156374781Y-87999223D01*
X156426385Y-88100500D01*
X156460882Y-88168204D01*
X156467715Y-88181613D01*
X156588028Y-88347213D01*
X156732786Y-88491971D01*
X156887749Y-88604556D01*
X156898390Y-88612287D01*
X157014607Y-88671503D01*
X157080776Y-88705218D01*
X157080778Y-88705218D01*
X157080781Y-88705220D01*
X157185137Y-88739127D01*
X157275465Y-88768477D01*
X157376557Y-88784488D01*
X157477648Y-88800500D01*
X157477649Y-88800500D01*
X157682351Y-88800500D01*
X157682352Y-88800500D01*
X157884534Y-88768477D01*
X158079219Y-88705220D01*
X158261610Y-88612287D01*
X158406005Y-88507379D01*
X158427213Y-88491971D01*
X158427215Y-88491968D01*
X158427219Y-88491966D01*
X158571966Y-88347219D01*
X158571968Y-88347215D01*
X158571971Y-88347213D01*
X158692284Y-88181614D01*
X158692285Y-88181613D01*
X158692287Y-88181610D01*
X158699117Y-88168204D01*
X158747091Y-88117409D01*
X158809602Y-88100500D01*
X159888164Y-88100500D01*
X159955203Y-88120185D01*
X159998648Y-88168204D01*
X160032185Y-88234023D01*
X160161752Y-88412358D01*
X160161756Y-88412363D01*
X160317636Y-88568243D01*
X160317641Y-88568247D01*
X160473192Y-88681260D01*
X160495978Y-88697815D01*
X160612501Y-88757187D01*
X160692393Y-88797895D01*
X160692396Y-88797896D01*
X160797221Y-88831955D01*
X160902049Y-88866015D01*
X161119778Y-88900500D01*
X161119779Y-88900500D01*
X161340221Y-88900500D01*
X161340222Y-88900500D01*
X161557951Y-88866015D01*
X161767606Y-88797895D01*
X161964022Y-88697815D01*
X162142365Y-88568242D01*
X162192924Y-88517682D01*
X162254245Y-88484198D01*
X162323936Y-88489182D01*
X162379870Y-88531053D01*
X162396786Y-88562030D01*
X162426646Y-88642087D01*
X162426649Y-88642093D01*
X162512809Y-88757187D01*
X162512812Y-88757190D01*
X162627906Y-88843350D01*
X162627913Y-88843354D01*
X162762620Y-88893596D01*
X162762627Y-88893598D01*
X162822155Y-88899999D01*
X162822172Y-88900000D01*
X163520000Y-88900000D01*
X163520000Y-87875277D01*
X163596306Y-87919333D01*
X163710756Y-87950000D01*
X163829244Y-87950000D01*
X163943694Y-87919333D01*
X164020000Y-87875277D01*
X164020000Y-88900000D01*
X164717828Y-88900000D01*
X164717844Y-88899999D01*
X164777372Y-88893598D01*
X164777379Y-88893596D01*
X164912086Y-88843354D01*
X164912093Y-88843350D01*
X165027187Y-88757190D01*
X165027190Y-88757187D01*
X165113350Y-88642093D01*
X165113354Y-88642086D01*
X165163596Y-88507379D01*
X165163598Y-88507372D01*
X165169999Y-88447844D01*
X165170000Y-88447827D01*
X165170000Y-87750000D01*
X164145278Y-87750000D01*
X164189333Y-87673694D01*
X164220000Y-87559244D01*
X164220000Y-87440756D01*
X164189333Y-87326306D01*
X164145278Y-87250000D01*
X165170000Y-87250000D01*
X165170000Y-86552172D01*
X165169999Y-86552155D01*
X165163598Y-86492627D01*
X165163596Y-86492620D01*
X165113354Y-86357913D01*
X165113350Y-86357906D01*
X165027190Y-86242812D01*
X165027187Y-86242809D01*
X164912093Y-86156649D01*
X164912086Y-86156645D01*
X164777379Y-86106403D01*
X164777372Y-86106401D01*
X164717844Y-86100000D01*
X164020000Y-86100000D01*
X164020000Y-87124722D01*
X163943694Y-87080667D01*
X163829244Y-87050000D01*
X163710756Y-87050000D01*
X163596306Y-87080667D01*
X163520000Y-87124722D01*
X163520000Y-86100000D01*
X162822155Y-86100000D01*
X162762627Y-86106401D01*
X162762620Y-86106403D01*
X162627913Y-86156645D01*
X162627906Y-86156649D01*
X162512812Y-86242809D01*
X162512809Y-86242812D01*
X162426649Y-86357906D01*
X162426643Y-86357918D01*
X162396785Y-86437969D01*
X162354914Y-86493903D01*
X162289449Y-86518319D01*
X162221176Y-86503467D01*
X162192923Y-86482316D01*
X162142363Y-86431756D01*
X162142358Y-86431752D01*
X161964025Y-86302187D01*
X161964024Y-86302186D01*
X161964022Y-86302185D01*
X161898322Y-86268709D01*
X161767606Y-86202104D01*
X161767603Y-86202103D01*
X161557952Y-86133985D01*
X161449086Y-86116742D01*
X161340222Y-86099500D01*
X161119778Y-86099500D01*
X161047201Y-86110995D01*
X160902047Y-86133985D01*
X160692396Y-86202103D01*
X160692393Y-86202104D01*
X160495974Y-86302187D01*
X160317641Y-86431752D01*
X160317636Y-86431756D01*
X160161756Y-86587636D01*
X160161752Y-86587641D01*
X160032185Y-86765976D01*
X159998648Y-86831796D01*
X159950674Y-86882591D01*
X159888164Y-86899500D01*
X158809602Y-86899500D01*
X158742563Y-86879815D01*
X158699117Y-86831795D01*
X158692284Y-86818385D01*
X158571971Y-86652786D01*
X158427213Y-86508028D01*
X158261613Y-86387715D01*
X158261612Y-86387714D01*
X158261610Y-86387713D01*
X158203111Y-86357906D01*
X158079223Y-86294781D01*
X157884534Y-86231522D01*
X157698799Y-86202105D01*
X157682352Y-86199500D01*
X157477648Y-86199500D01*
X157461201Y-86202105D01*
X157275465Y-86231522D01*
X157080776Y-86294781D01*
X156898386Y-86387715D01*
X156732786Y-86508028D01*
X156588028Y-86652786D01*
X156467715Y-86818386D01*
X156374781Y-87000776D01*
X156311522Y-87195465D01*
X156279500Y-87397648D01*
X148720500Y-87397648D01*
X148688477Y-87195465D01*
X148659127Y-87105137D01*
X148625220Y-87000781D01*
X148625218Y-87000778D01*
X148625218Y-87000776D01*
X148591503Y-86934607D01*
X148532287Y-86818390D01*
X148494208Y-86765978D01*
X148411971Y-86652786D01*
X148267213Y-86508028D01*
X148101613Y-86387715D01*
X148101612Y-86387714D01*
X148101610Y-86387713D01*
X148043111Y-86357906D01*
X147919223Y-86294781D01*
X147724534Y-86231522D01*
X147538799Y-86202105D01*
X147522352Y-86199500D01*
X147317648Y-86199500D01*
X147301201Y-86202105D01*
X147115465Y-86231522D01*
X146920776Y-86294781D01*
X146738386Y-86387715D01*
X146572786Y-86508028D01*
X146428028Y-86652786D01*
X146307715Y-86818386D01*
X146214781Y-87000776D01*
X146151522Y-87195465D01*
X146119500Y-87397648D01*
X72500500Y-87397648D01*
X72500500Y-85364493D01*
X86620000Y-85364493D01*
X86620000Y-85600598D01*
X86656934Y-85833793D01*
X86729897Y-86058348D01*
X86837087Y-86268720D01*
X86897338Y-86351650D01*
X86897340Y-86351651D01*
X87442421Y-85806570D01*
X87455359Y-85837804D01*
X87537437Y-85960643D01*
X87641903Y-86065109D01*
X87764742Y-86147187D01*
X87795974Y-86160124D01*
X87250893Y-86705204D01*
X87333828Y-86765460D01*
X87544197Y-86872648D01*
X87768752Y-86945611D01*
X87768751Y-86945611D01*
X88001948Y-86982546D01*
X88238052Y-86982546D01*
X88471247Y-86945611D01*
X88695802Y-86872648D01*
X88906163Y-86765464D01*
X88906169Y-86765460D01*
X88989104Y-86705204D01*
X88989105Y-86705204D01*
X88444024Y-86160124D01*
X88475258Y-86147187D01*
X88598097Y-86065109D01*
X88702563Y-85960643D01*
X88784641Y-85837804D01*
X88797578Y-85806571D01*
X89342658Y-86351651D01*
X89342658Y-86351650D01*
X89402914Y-86268715D01*
X89402918Y-86268709D01*
X89510102Y-86058348D01*
X89583065Y-85833793D01*
X89620000Y-85600598D01*
X89620000Y-85364493D01*
X89583065Y-85131298D01*
X89510102Y-84906743D01*
X89402914Y-84696374D01*
X89342658Y-84613440D01*
X89342658Y-84613439D01*
X88797577Y-85158520D01*
X88784641Y-85127288D01*
X88702563Y-85004449D01*
X88598097Y-84899983D01*
X88475258Y-84817905D01*
X88444024Y-84804967D01*
X88989105Y-84259886D01*
X88989104Y-84259884D01*
X88906174Y-84199633D01*
X88695802Y-84092443D01*
X88471247Y-84019480D01*
X88471248Y-84019480D01*
X88238052Y-83982546D01*
X88001948Y-83982546D01*
X87768752Y-84019480D01*
X87544197Y-84092443D01*
X87333830Y-84199630D01*
X87250894Y-84259886D01*
X87795975Y-84804967D01*
X87764742Y-84817905D01*
X87641903Y-84899983D01*
X87537437Y-85004449D01*
X87455359Y-85127288D01*
X87442421Y-85158521D01*
X86897340Y-84613440D01*
X86837084Y-84696376D01*
X86729897Y-84906743D01*
X86656934Y-85131298D01*
X86620000Y-85364493D01*
X72500500Y-85364493D01*
X72500500Y-81397648D01*
X146119500Y-81397648D01*
X146119500Y-81602351D01*
X146151522Y-81804534D01*
X146214781Y-81999223D01*
X146266385Y-82100500D01*
X146300882Y-82168204D01*
X146307715Y-82181613D01*
X146428028Y-82347213D01*
X146572786Y-82491971D01*
X146727749Y-82604556D01*
X146738390Y-82612287D01*
X146854607Y-82671503D01*
X146920776Y-82705218D01*
X146920778Y-82705218D01*
X146920781Y-82705220D01*
X147025137Y-82739127D01*
X147115465Y-82768477D01*
X147216557Y-82784488D01*
X147317648Y-82800500D01*
X147317649Y-82800500D01*
X147522351Y-82800500D01*
X147522352Y-82800500D01*
X147724534Y-82768477D01*
X147919219Y-82705220D01*
X148101610Y-82612287D01*
X148246005Y-82507379D01*
X148267213Y-82491971D01*
X148267215Y-82491968D01*
X148267219Y-82491966D01*
X148411966Y-82347219D01*
X148411968Y-82347215D01*
X148411971Y-82347213D01*
X148494207Y-82234023D01*
X148532287Y-82181610D01*
X148625220Y-81999219D01*
X148688477Y-81804534D01*
X148720500Y-81602352D01*
X148720500Y-81397648D01*
X156279500Y-81397648D01*
X156279500Y-81602351D01*
X156311522Y-81804534D01*
X156374781Y-81999223D01*
X156426385Y-82100500D01*
X156460882Y-82168204D01*
X156467715Y-82181613D01*
X156588028Y-82347213D01*
X156732786Y-82491971D01*
X156887749Y-82604556D01*
X156898390Y-82612287D01*
X157014607Y-82671503D01*
X157080776Y-82705218D01*
X157080778Y-82705218D01*
X157080781Y-82705220D01*
X157185137Y-82739127D01*
X157275465Y-82768477D01*
X157376557Y-82784488D01*
X157477648Y-82800500D01*
X157477649Y-82800500D01*
X157682351Y-82800500D01*
X157682352Y-82800500D01*
X157884534Y-82768477D01*
X158079219Y-82705220D01*
X158261610Y-82612287D01*
X158406005Y-82507379D01*
X158427213Y-82491971D01*
X158427215Y-82491968D01*
X158427219Y-82491966D01*
X158571966Y-82347219D01*
X158571968Y-82347215D01*
X158571971Y-82347213D01*
X158692284Y-82181614D01*
X158692285Y-82181613D01*
X158692287Y-82181610D01*
X158699117Y-82168204D01*
X158747091Y-82117409D01*
X158809602Y-82100500D01*
X159888164Y-82100500D01*
X159955203Y-82120185D01*
X159998648Y-82168204D01*
X160032185Y-82234023D01*
X160161752Y-82412358D01*
X160161756Y-82412363D01*
X160317636Y-82568243D01*
X160317641Y-82568247D01*
X160473192Y-82681260D01*
X160495978Y-82697815D01*
X160612501Y-82757187D01*
X160692393Y-82797895D01*
X160692396Y-82797896D01*
X160797221Y-82831955D01*
X160902049Y-82866015D01*
X161119778Y-82900500D01*
X161119779Y-82900500D01*
X161340221Y-82900500D01*
X161340222Y-82900500D01*
X161557951Y-82866015D01*
X161767606Y-82797895D01*
X161964022Y-82697815D01*
X162142365Y-82568242D01*
X162192924Y-82517682D01*
X162254245Y-82484198D01*
X162323936Y-82489182D01*
X162379870Y-82531053D01*
X162396786Y-82562030D01*
X162426646Y-82642087D01*
X162426649Y-82642093D01*
X162512809Y-82757187D01*
X162512812Y-82757190D01*
X162627906Y-82843350D01*
X162627913Y-82843354D01*
X162762620Y-82893596D01*
X162762627Y-82893598D01*
X162822155Y-82899999D01*
X162822172Y-82900000D01*
X163520000Y-82900000D01*
X163520000Y-81875277D01*
X163596306Y-81919333D01*
X163710756Y-81950000D01*
X163829244Y-81950000D01*
X163943694Y-81919333D01*
X164020000Y-81875277D01*
X164020000Y-82900000D01*
X164717828Y-82900000D01*
X164717844Y-82899999D01*
X164777372Y-82893598D01*
X164777379Y-82893596D01*
X164912086Y-82843354D01*
X164912093Y-82843350D01*
X165027187Y-82757190D01*
X165027190Y-82757187D01*
X165113350Y-82642093D01*
X165113354Y-82642086D01*
X165163596Y-82507379D01*
X165163598Y-82507372D01*
X165169999Y-82447844D01*
X165170000Y-82447827D01*
X165170000Y-81750000D01*
X164145278Y-81750000D01*
X164189333Y-81673694D01*
X164220000Y-81559244D01*
X164220000Y-81440756D01*
X164189333Y-81326306D01*
X164145278Y-81250000D01*
X165170000Y-81250000D01*
X165170000Y-80552172D01*
X165169999Y-80552155D01*
X165163598Y-80492627D01*
X165163596Y-80492620D01*
X165113354Y-80357913D01*
X165113350Y-80357906D01*
X165027190Y-80242812D01*
X165027187Y-80242809D01*
X164912093Y-80156649D01*
X164912086Y-80156645D01*
X164777379Y-80106403D01*
X164777372Y-80106401D01*
X164717844Y-80100000D01*
X164020000Y-80100000D01*
X164020000Y-81124722D01*
X163943694Y-81080667D01*
X163829244Y-81050000D01*
X163710756Y-81050000D01*
X163596306Y-81080667D01*
X163520000Y-81124722D01*
X163520000Y-80100000D01*
X162822155Y-80100000D01*
X162762627Y-80106401D01*
X162762620Y-80106403D01*
X162627913Y-80156645D01*
X162627906Y-80156649D01*
X162512812Y-80242809D01*
X162512809Y-80242812D01*
X162426649Y-80357906D01*
X162426643Y-80357918D01*
X162396785Y-80437969D01*
X162354914Y-80493903D01*
X162289449Y-80518319D01*
X162221176Y-80503467D01*
X162192923Y-80482316D01*
X162142363Y-80431756D01*
X162142358Y-80431752D01*
X161964025Y-80302187D01*
X161964024Y-80302186D01*
X161964022Y-80302185D01*
X161901096Y-80270122D01*
X161767606Y-80202104D01*
X161767603Y-80202103D01*
X161557952Y-80133985D01*
X161449086Y-80116742D01*
X161340222Y-80099500D01*
X161119778Y-80099500D01*
X161047201Y-80110995D01*
X160902047Y-80133985D01*
X160692396Y-80202103D01*
X160692393Y-80202104D01*
X160495974Y-80302187D01*
X160317641Y-80431752D01*
X160317636Y-80431756D01*
X160161756Y-80587636D01*
X160161752Y-80587641D01*
X160032185Y-80765976D01*
X159998648Y-80831796D01*
X159950674Y-80882591D01*
X159888164Y-80899500D01*
X158809602Y-80899500D01*
X158742563Y-80879815D01*
X158699117Y-80831795D01*
X158692284Y-80818385D01*
X158571971Y-80652786D01*
X158427213Y-80508028D01*
X158261613Y-80387715D01*
X158261612Y-80387714D01*
X158261610Y-80387713D01*
X158203111Y-80357906D01*
X158079223Y-80294781D01*
X157884534Y-80231522D01*
X157698799Y-80202105D01*
X157682352Y-80199500D01*
X157477648Y-80199500D01*
X157461201Y-80202105D01*
X157275465Y-80231522D01*
X157080776Y-80294781D01*
X156898386Y-80387715D01*
X156732786Y-80508028D01*
X156588028Y-80652786D01*
X156467715Y-80818386D01*
X156374781Y-81000776D01*
X156311522Y-81195465D01*
X156279500Y-81397648D01*
X148720500Y-81397648D01*
X148688477Y-81195465D01*
X148659127Y-81105137D01*
X148625220Y-81000781D01*
X148625218Y-81000778D01*
X148625218Y-81000776D01*
X148591503Y-80934607D01*
X148532287Y-80818390D01*
X148494208Y-80765978D01*
X148411971Y-80652786D01*
X148267213Y-80508028D01*
X148101613Y-80387715D01*
X148101612Y-80387714D01*
X148101610Y-80387713D01*
X148043111Y-80357906D01*
X147919223Y-80294781D01*
X147724534Y-80231522D01*
X147538799Y-80202105D01*
X147522352Y-80199500D01*
X147317648Y-80199500D01*
X147301201Y-80202105D01*
X147115465Y-80231522D01*
X146920776Y-80294781D01*
X146738386Y-80387715D01*
X146572786Y-80508028D01*
X146428028Y-80652786D01*
X146307715Y-80818386D01*
X146214781Y-81000776D01*
X146151522Y-81195465D01*
X146119500Y-81397648D01*
X72500500Y-81397648D01*
X72500500Y-75897648D01*
X146119500Y-75897648D01*
X146119500Y-76102351D01*
X146151522Y-76304534D01*
X146214781Y-76499223D01*
X146266385Y-76600500D01*
X146300882Y-76668204D01*
X146307715Y-76681613D01*
X146428028Y-76847213D01*
X146572786Y-76991971D01*
X146727749Y-77104556D01*
X146738390Y-77112287D01*
X146854607Y-77171503D01*
X146920776Y-77205218D01*
X146920778Y-77205218D01*
X146920781Y-77205220D01*
X147025137Y-77239127D01*
X147115465Y-77268477D01*
X147216557Y-77284488D01*
X147317648Y-77300500D01*
X147317649Y-77300500D01*
X147522351Y-77300500D01*
X147522352Y-77300500D01*
X147724534Y-77268477D01*
X147919219Y-77205220D01*
X148101610Y-77112287D01*
X148246005Y-77007379D01*
X148267213Y-76991971D01*
X148267215Y-76991968D01*
X148267219Y-76991966D01*
X148411966Y-76847219D01*
X148411968Y-76847215D01*
X148411971Y-76847213D01*
X148494207Y-76734023D01*
X148532287Y-76681610D01*
X148625220Y-76499219D01*
X148688477Y-76304534D01*
X148720500Y-76102352D01*
X148720500Y-75897648D01*
X156279500Y-75897648D01*
X156279500Y-76102351D01*
X156311522Y-76304534D01*
X156374781Y-76499223D01*
X156426385Y-76600500D01*
X156460882Y-76668204D01*
X156467715Y-76681613D01*
X156588028Y-76847213D01*
X156732786Y-76991971D01*
X156887749Y-77104556D01*
X156898390Y-77112287D01*
X157014607Y-77171503D01*
X157080776Y-77205218D01*
X157080778Y-77205218D01*
X157080781Y-77205220D01*
X157185137Y-77239127D01*
X157275465Y-77268477D01*
X157376557Y-77284488D01*
X157477648Y-77300500D01*
X157477649Y-77300500D01*
X157682351Y-77300500D01*
X157682352Y-77300500D01*
X157884534Y-77268477D01*
X158079219Y-77205220D01*
X158261610Y-77112287D01*
X158406005Y-77007379D01*
X158427213Y-76991971D01*
X158427215Y-76991968D01*
X158427219Y-76991966D01*
X158571966Y-76847219D01*
X158571968Y-76847215D01*
X158571971Y-76847213D01*
X158692284Y-76681614D01*
X158692285Y-76681613D01*
X158692287Y-76681610D01*
X158699117Y-76668204D01*
X158747091Y-76617409D01*
X158809602Y-76600500D01*
X159888164Y-76600500D01*
X159955203Y-76620185D01*
X159998648Y-76668204D01*
X160032185Y-76734023D01*
X160161752Y-76912358D01*
X160161756Y-76912363D01*
X160317636Y-77068243D01*
X160317641Y-77068247D01*
X160473192Y-77181260D01*
X160495978Y-77197815D01*
X160612501Y-77257187D01*
X160692393Y-77297895D01*
X160692396Y-77297896D01*
X160797221Y-77331955D01*
X160902049Y-77366015D01*
X161119778Y-77400500D01*
X161119779Y-77400500D01*
X161340221Y-77400500D01*
X161340222Y-77400500D01*
X161557951Y-77366015D01*
X161767606Y-77297895D01*
X161964022Y-77197815D01*
X162142365Y-77068242D01*
X162192924Y-77017682D01*
X162254245Y-76984198D01*
X162323936Y-76989182D01*
X162379870Y-77031053D01*
X162396786Y-77062030D01*
X162426646Y-77142087D01*
X162426649Y-77142093D01*
X162512809Y-77257187D01*
X162512812Y-77257190D01*
X162627906Y-77343350D01*
X162627913Y-77343354D01*
X162762620Y-77393596D01*
X162762627Y-77393598D01*
X162822155Y-77399999D01*
X162822172Y-77400000D01*
X163520000Y-77400000D01*
X163520000Y-76375277D01*
X163596306Y-76419333D01*
X163710756Y-76450000D01*
X163829244Y-76450000D01*
X163943694Y-76419333D01*
X164020000Y-76375277D01*
X164020000Y-77400000D01*
X164717828Y-77400000D01*
X164717844Y-77399999D01*
X164777372Y-77393598D01*
X164777379Y-77393596D01*
X164912086Y-77343354D01*
X164912093Y-77343350D01*
X165027187Y-77257190D01*
X165027190Y-77257187D01*
X165113350Y-77142093D01*
X165113354Y-77142086D01*
X165163596Y-77007379D01*
X165163598Y-77007372D01*
X165169999Y-76947844D01*
X165170000Y-76947827D01*
X165170000Y-76250000D01*
X164145278Y-76250000D01*
X164189333Y-76173694D01*
X164220000Y-76059244D01*
X164220000Y-75940756D01*
X164189333Y-75826306D01*
X164145278Y-75750000D01*
X165170000Y-75750000D01*
X165170000Y-75052172D01*
X165169999Y-75052155D01*
X165163598Y-74992627D01*
X165163596Y-74992620D01*
X165113354Y-74857913D01*
X165113350Y-74857906D01*
X165027190Y-74742812D01*
X165027187Y-74742809D01*
X164912093Y-74656649D01*
X164912086Y-74656645D01*
X164777379Y-74606403D01*
X164777372Y-74606401D01*
X164717844Y-74600000D01*
X164020000Y-74600000D01*
X164020000Y-75624722D01*
X163943694Y-75580667D01*
X163829244Y-75550000D01*
X163710756Y-75550000D01*
X163596306Y-75580667D01*
X163520000Y-75624722D01*
X163520000Y-74600000D01*
X162822155Y-74600000D01*
X162762627Y-74606401D01*
X162762620Y-74606403D01*
X162627913Y-74656645D01*
X162627906Y-74656649D01*
X162512812Y-74742809D01*
X162512809Y-74742812D01*
X162426649Y-74857906D01*
X162426643Y-74857918D01*
X162396785Y-74937969D01*
X162354914Y-74993903D01*
X162289449Y-75018319D01*
X162221176Y-75003467D01*
X162192923Y-74982316D01*
X162142363Y-74931756D01*
X162142358Y-74931752D01*
X161964025Y-74802187D01*
X161964024Y-74802186D01*
X161964022Y-74802185D01*
X161901096Y-74770122D01*
X161767606Y-74702104D01*
X161767603Y-74702103D01*
X161557952Y-74633985D01*
X161449086Y-74616742D01*
X161340222Y-74599500D01*
X161119778Y-74599500D01*
X161047201Y-74610995D01*
X160902047Y-74633985D01*
X160692396Y-74702103D01*
X160692393Y-74702104D01*
X160495974Y-74802187D01*
X160317641Y-74931752D01*
X160317636Y-74931756D01*
X160161756Y-75087636D01*
X160161752Y-75087641D01*
X160032185Y-75265976D01*
X159998648Y-75331796D01*
X159950674Y-75382591D01*
X159888164Y-75399500D01*
X158809602Y-75399500D01*
X158742563Y-75379815D01*
X158699117Y-75331795D01*
X158692284Y-75318385D01*
X158571971Y-75152786D01*
X158427213Y-75008028D01*
X158261613Y-74887715D01*
X158261612Y-74887714D01*
X158261610Y-74887713D01*
X158203111Y-74857906D01*
X158079223Y-74794781D01*
X157884534Y-74731522D01*
X157698799Y-74702105D01*
X157682352Y-74699500D01*
X157477648Y-74699500D01*
X157461201Y-74702105D01*
X157275465Y-74731522D01*
X157080776Y-74794781D01*
X156898386Y-74887715D01*
X156732786Y-75008028D01*
X156588028Y-75152786D01*
X156467715Y-75318386D01*
X156374781Y-75500776D01*
X156311522Y-75695465D01*
X156279500Y-75897648D01*
X148720500Y-75897648D01*
X148688477Y-75695465D01*
X148659127Y-75605137D01*
X148625220Y-75500781D01*
X148625218Y-75500778D01*
X148625218Y-75500776D01*
X148591503Y-75434607D01*
X148532287Y-75318390D01*
X148494208Y-75265978D01*
X148411971Y-75152786D01*
X148267213Y-75008028D01*
X148101613Y-74887715D01*
X148101612Y-74887714D01*
X148101610Y-74887713D01*
X148043111Y-74857906D01*
X147919223Y-74794781D01*
X147724534Y-74731522D01*
X147538799Y-74702105D01*
X147522352Y-74699500D01*
X147317648Y-74699500D01*
X147301201Y-74702105D01*
X147115465Y-74731522D01*
X146920776Y-74794781D01*
X146738386Y-74887715D01*
X146572786Y-75008028D01*
X146428028Y-75152786D01*
X146307715Y-75318386D01*
X146214781Y-75500776D01*
X146151522Y-75695465D01*
X146119500Y-75897648D01*
X72500500Y-75897648D01*
X72500500Y-68977648D01*
X105724500Y-68977648D01*
X105724500Y-69182351D01*
X105756522Y-69384534D01*
X105819781Y-69579223D01*
X105867079Y-69672049D01*
X105906797Y-69750000D01*
X105912715Y-69761613D01*
X106033028Y-69927213D01*
X106177786Y-70071971D01*
X106317799Y-70173694D01*
X106343390Y-70192287D01*
X106456658Y-70250000D01*
X106525776Y-70285218D01*
X106525778Y-70285218D01*
X106525781Y-70285220D01*
X106630137Y-70319127D01*
X106720465Y-70348477D01*
X106793786Y-70360090D01*
X106922648Y-70380500D01*
X106922649Y-70380500D01*
X107127351Y-70380500D01*
X107127352Y-70380500D01*
X107329534Y-70348477D01*
X107524219Y-70285220D01*
X107706610Y-70192287D01*
X107830396Y-70102352D01*
X107872213Y-70071971D01*
X107872215Y-70071968D01*
X107872219Y-70071966D01*
X108016966Y-69927219D01*
X108016968Y-69927215D01*
X108016971Y-69927213D01*
X108090283Y-69826306D01*
X108137287Y-69761610D01*
X108230220Y-69579219D01*
X108293477Y-69384534D01*
X108325500Y-69182352D01*
X108325500Y-68977648D01*
X115884500Y-68977648D01*
X115884500Y-69182351D01*
X115916522Y-69384534D01*
X115979781Y-69579223D01*
X116027079Y-69672049D01*
X116066797Y-69750000D01*
X116072715Y-69761613D01*
X116193028Y-69927213D01*
X116337786Y-70071971D01*
X116477799Y-70173694D01*
X116503390Y-70192287D01*
X116616658Y-70250000D01*
X116685776Y-70285218D01*
X116685778Y-70285218D01*
X116685781Y-70285220D01*
X116790137Y-70319127D01*
X116880465Y-70348477D01*
X116953786Y-70360090D01*
X117082648Y-70380500D01*
X117082649Y-70380500D01*
X117287351Y-70380500D01*
X117287352Y-70380500D01*
X117489534Y-70348477D01*
X117684219Y-70285220D01*
X117866610Y-70192287D01*
X117990396Y-70102352D01*
X118032213Y-70071971D01*
X118032215Y-70071968D01*
X118032219Y-70071966D01*
X118176966Y-69927219D01*
X118176968Y-69927215D01*
X118176971Y-69927213D01*
X118250283Y-69826306D01*
X118297287Y-69761610D01*
X118390220Y-69579219D01*
X118453477Y-69384534D01*
X118485500Y-69182352D01*
X118485500Y-68977648D01*
X118471256Y-68887715D01*
X118453477Y-68775465D01*
X118398544Y-68606401D01*
X118390220Y-68580781D01*
X118390218Y-68580778D01*
X118390218Y-68580776D01*
X118352250Y-68506260D01*
X118297287Y-68398390D01*
X118287220Y-68384534D01*
X118176971Y-68232786D01*
X118032213Y-68088028D01*
X118011657Y-68073094D01*
X117866613Y-67967715D01*
X117866612Y-67967714D01*
X117866610Y-67967713D01*
X117809653Y-67938691D01*
X117684223Y-67874781D01*
X117489534Y-67811522D01*
X117314995Y-67783878D01*
X117287352Y-67779500D01*
X117082648Y-67779500D01*
X117058329Y-67783351D01*
X116880465Y-67811522D01*
X116685776Y-67874781D01*
X116503386Y-67967715D01*
X116337786Y-68088028D01*
X116193028Y-68232786D01*
X116072715Y-68398386D01*
X115979781Y-68580776D01*
X115916522Y-68775465D01*
X115884500Y-68977648D01*
X108325500Y-68977648D01*
X108311256Y-68887715D01*
X108293477Y-68775465D01*
X108238544Y-68606401D01*
X108230220Y-68580781D01*
X108230218Y-68580778D01*
X108230218Y-68580776D01*
X108192250Y-68506260D01*
X108137287Y-68398390D01*
X108127220Y-68384534D01*
X108016971Y-68232786D01*
X107872213Y-68088028D01*
X107706613Y-67967715D01*
X107706612Y-67967714D01*
X107706610Y-67967713D01*
X107649653Y-67938691D01*
X107524223Y-67874781D01*
X107329534Y-67811522D01*
X107154995Y-67783878D01*
X107127352Y-67779500D01*
X106922648Y-67779500D01*
X106898329Y-67783351D01*
X106720465Y-67811522D01*
X106525776Y-67874781D01*
X106343386Y-67967715D01*
X106177786Y-68088028D01*
X106033028Y-68232786D01*
X105912715Y-68398386D01*
X105819781Y-68580776D01*
X105756522Y-68775465D01*
X105724500Y-68977648D01*
X72500500Y-68977648D01*
X72500500Y-63634681D01*
X86619500Y-63634681D01*
X86619500Y-65730416D01*
X86619501Y-65730422D01*
X86625908Y-65790029D01*
X86676202Y-65924874D01*
X86676206Y-65924881D01*
X86762452Y-66040090D01*
X86762455Y-66040093D01*
X86877664Y-66126339D01*
X86877671Y-66126343D01*
X87012517Y-66176637D01*
X87012516Y-66176637D01*
X87019444Y-66177381D01*
X87072127Y-66183046D01*
X89167872Y-66183045D01*
X89227483Y-66176637D01*
X89362331Y-66126342D01*
X89477546Y-66040092D01*
X89563796Y-65924877D01*
X89614091Y-65790029D01*
X89620500Y-65730419D01*
X89620499Y-63634674D01*
X89614091Y-63575063D01*
X89594917Y-63523656D01*
X89563797Y-63440217D01*
X89563793Y-63440210D01*
X89477547Y-63325001D01*
X89477544Y-63324998D01*
X89362335Y-63238752D01*
X89362328Y-63238748D01*
X89227482Y-63188454D01*
X89227483Y-63188454D01*
X89167883Y-63182047D01*
X89167881Y-63182046D01*
X89167873Y-63182046D01*
X89167864Y-63182046D01*
X87072129Y-63182046D01*
X87072123Y-63182047D01*
X87012516Y-63188454D01*
X86877671Y-63238748D01*
X86877664Y-63238752D01*
X86762455Y-63324998D01*
X86762452Y-63325001D01*
X86676206Y-63440210D01*
X86676202Y-63440217D01*
X86625908Y-63575063D01*
X86622272Y-63608889D01*
X86619501Y-63634669D01*
X86619500Y-63634681D01*
X72500500Y-63634681D01*
X72500500Y-58707648D01*
X105999500Y-58707648D01*
X105999500Y-58912351D01*
X106031522Y-59114534D01*
X106094781Y-59309223D01*
X106137772Y-59393596D01*
X106175700Y-59468034D01*
X106187715Y-59491613D01*
X106308028Y-59657213D01*
X106452786Y-59801971D01*
X106607749Y-59914556D01*
X106618390Y-59922287D01*
X106693929Y-59960776D01*
X106711080Y-59969515D01*
X106761876Y-60017490D01*
X106778671Y-60085311D01*
X106756134Y-60151446D01*
X106711080Y-60190485D01*
X106618386Y-60237715D01*
X106452786Y-60358028D01*
X106308028Y-60502786D01*
X106187715Y-60668386D01*
X106094781Y-60850776D01*
X106031522Y-61045465D01*
X105999500Y-61247648D01*
X105999500Y-61452351D01*
X106031522Y-61654534D01*
X106094781Y-61849223D01*
X106147303Y-61952302D01*
X106175700Y-62008034D01*
X106187715Y-62031613D01*
X106308028Y-62197213D01*
X106452786Y-62341971D01*
X106565971Y-62424203D01*
X106618390Y-62462287D01*
X106694989Y-62501316D01*
X106711080Y-62509515D01*
X106761876Y-62557490D01*
X106778671Y-62625311D01*
X106756134Y-62691446D01*
X106711080Y-62730485D01*
X106618386Y-62777715D01*
X106452786Y-62898028D01*
X106308028Y-63042786D01*
X106187715Y-63208386D01*
X106094781Y-63390776D01*
X106031522Y-63585465D01*
X105999500Y-63787648D01*
X105999500Y-63992351D01*
X106031522Y-64194534D01*
X106094781Y-64389223D01*
X106146385Y-64490500D01*
X106175700Y-64548034D01*
X106187715Y-64571613D01*
X106308028Y-64737213D01*
X106452786Y-64881971D01*
X106593492Y-64984198D01*
X106618390Y-65002287D01*
X106693929Y-65040776D01*
X106800776Y-65095218D01*
X106800778Y-65095218D01*
X106800781Y-65095220D01*
X106853299Y-65112284D01*
X106995465Y-65158477D01*
X107050912Y-65167259D01*
X107197648Y-65190500D01*
X107197649Y-65190500D01*
X107402351Y-65190500D01*
X107402352Y-65190500D01*
X107604534Y-65158477D01*
X107799219Y-65095220D01*
X107981610Y-65002287D01*
X108105388Y-64912358D01*
X108147213Y-64881971D01*
X108147215Y-64881968D01*
X108147219Y-64881966D01*
X108291966Y-64737219D01*
X108291968Y-64737215D01*
X108291971Y-64737213D01*
X108391297Y-64600500D01*
X108412287Y-64571610D01*
X108505220Y-64389219D01*
X108568477Y-64194534D01*
X108600500Y-63992352D01*
X108600500Y-63799097D01*
X108620185Y-63732058D01*
X108672989Y-63686303D01*
X108742147Y-63676359D01*
X108805703Y-63705384D01*
X108812181Y-63711416D01*
X111601139Y-66500374D01*
X111601149Y-66500385D01*
X111605479Y-66504715D01*
X111605480Y-66504716D01*
X111717284Y-66616520D01*
X111717286Y-66616521D01*
X111717287Y-66616522D01*
X111732197Y-66625130D01*
X111779235Y-66652287D01*
X111854215Y-66695577D01*
X112006943Y-66736500D01*
X112165057Y-66736500D01*
X124277331Y-66736500D01*
X124277347Y-66736501D01*
X124284943Y-66736501D01*
X124443054Y-66736501D01*
X124443057Y-66736501D01*
X124595785Y-66695577D01*
X124670765Y-66652287D01*
X124732716Y-66616520D01*
X124844520Y-66504716D01*
X124844520Y-66504714D01*
X124854724Y-66494511D01*
X124854727Y-66494506D01*
X125988320Y-65360914D01*
X126049642Y-65327430D01*
X126119334Y-65332414D01*
X126175267Y-65374286D01*
X126199684Y-65439750D01*
X126200000Y-65448596D01*
X126200000Y-65642317D01*
X126232009Y-65844417D01*
X126295244Y-66039031D01*
X126388141Y-66221350D01*
X126388147Y-66221359D01*
X126420523Y-66265921D01*
X126420524Y-66265922D01*
X127100000Y-65586446D01*
X127100000Y-65592661D01*
X127127259Y-65694394D01*
X127179920Y-65785606D01*
X127254394Y-65860080D01*
X127345606Y-65912741D01*
X127447339Y-65940000D01*
X127453553Y-65940000D01*
X126774076Y-66619474D01*
X126818652Y-66651861D01*
X126911628Y-66699234D01*
X126962425Y-66747208D01*
X126979220Y-66815029D01*
X126956683Y-66881164D01*
X126911630Y-66920203D01*
X126818388Y-66967713D01*
X126652786Y-67088028D01*
X126508028Y-67232786D01*
X126387715Y-67398386D01*
X126294781Y-67580776D01*
X126231522Y-67775465D01*
X126199500Y-67977648D01*
X126199500Y-68182351D01*
X126231522Y-68384534D01*
X126294781Y-68579223D01*
X126346140Y-68680018D01*
X126378133Y-68742809D01*
X126387715Y-68761613D01*
X126508028Y-68927213D01*
X126652786Y-69071971D01*
X126807749Y-69184556D01*
X126818390Y-69192287D01*
X126934607Y-69251503D01*
X127000776Y-69285218D01*
X127000778Y-69285218D01*
X127000781Y-69285220D01*
X127091856Y-69314812D01*
X127195465Y-69348477D01*
X127288302Y-69363181D01*
X127397648Y-69380500D01*
X127397649Y-69380500D01*
X127602351Y-69380500D01*
X127602352Y-69380500D01*
X127804534Y-69348477D01*
X127999219Y-69285220D01*
X128181610Y-69192287D01*
X128310482Y-69098657D01*
X128347213Y-69071971D01*
X128347215Y-69071968D01*
X128347219Y-69071966D01*
X128491966Y-68927219D01*
X128491968Y-68927215D01*
X128491971Y-68927213D01*
X128582806Y-68802187D01*
X128612287Y-68761610D01*
X128705220Y-68579219D01*
X128768477Y-68384534D01*
X128800500Y-68182352D01*
X128800500Y-67977648D01*
X128768477Y-67775466D01*
X128705220Y-67580781D01*
X128705218Y-67580778D01*
X128705218Y-67580776D01*
X128653865Y-67479991D01*
X128612287Y-67398390D01*
X128596892Y-67377200D01*
X128491971Y-67232786D01*
X128347213Y-67088028D01*
X128181611Y-66967713D01*
X128088369Y-66920203D01*
X128037574Y-66872229D01*
X128020779Y-66804407D01*
X128043317Y-66738273D01*
X128088371Y-66699234D01*
X128181346Y-66651861D01*
X128181347Y-66651861D01*
X128225921Y-66619474D01*
X127546447Y-65940000D01*
X127552661Y-65940000D01*
X127654394Y-65912741D01*
X127745606Y-65860080D01*
X127820080Y-65785606D01*
X127872741Y-65694394D01*
X127900000Y-65592661D01*
X127900000Y-65586448D01*
X128579474Y-66265922D01*
X128579474Y-66265921D01*
X128611859Y-66221349D01*
X128704755Y-66039031D01*
X128767990Y-65844417D01*
X128800000Y-65642317D01*
X128800000Y-65437682D01*
X128767990Y-65235582D01*
X128704755Y-65040968D01*
X128611859Y-64858650D01*
X128579474Y-64814077D01*
X128579474Y-64814076D01*
X127900000Y-65493551D01*
X127900000Y-65487339D01*
X127872741Y-65385606D01*
X127820080Y-65294394D01*
X127745606Y-65219920D01*
X127654394Y-65167259D01*
X127552661Y-65140000D01*
X127546446Y-65140000D01*
X128225922Y-64460524D01*
X128225921Y-64460523D01*
X128181359Y-64428147D01*
X128181350Y-64428141D01*
X128088369Y-64380765D01*
X128037573Y-64332790D01*
X128020778Y-64264969D01*
X128043315Y-64198835D01*
X128088370Y-64159795D01*
X128088920Y-64159515D01*
X128181610Y-64112287D01*
X128254618Y-64059244D01*
X128347213Y-63991971D01*
X128347215Y-63991968D01*
X128347219Y-63991966D01*
X128491966Y-63847219D01*
X128491968Y-63847215D01*
X128491971Y-63847213D01*
X128562599Y-63750000D01*
X128612287Y-63681610D01*
X128705220Y-63499219D01*
X128768477Y-63304534D01*
X128800500Y-63102352D01*
X128800500Y-62897648D01*
X128794207Y-62857918D01*
X128768477Y-62695465D01*
X128720743Y-62548555D01*
X128705220Y-62500781D01*
X128705218Y-62500778D01*
X128705218Y-62500776D01*
X128666201Y-62424203D01*
X128612287Y-62318390D01*
X128604531Y-62307715D01*
X128491971Y-62152786D01*
X128347213Y-62008028D01*
X128181611Y-61887713D01*
X128088369Y-61840203D01*
X128037574Y-61792229D01*
X128020779Y-61724407D01*
X128043317Y-61658273D01*
X128088371Y-61619234D01*
X128181346Y-61571861D01*
X128181347Y-61571861D01*
X128225921Y-61539474D01*
X127546447Y-60860000D01*
X127552661Y-60860000D01*
X127654394Y-60832741D01*
X127745606Y-60780080D01*
X127820080Y-60705606D01*
X127872741Y-60614394D01*
X127900000Y-60512661D01*
X127900000Y-60506448D01*
X128579474Y-61185922D01*
X128579474Y-61185921D01*
X128611859Y-61141349D01*
X128704755Y-60959031D01*
X128767990Y-60764417D01*
X128800000Y-60562317D01*
X128800000Y-60357682D01*
X128767990Y-60155582D01*
X128704755Y-59960968D01*
X128611859Y-59778650D01*
X128579474Y-59734077D01*
X128579474Y-59734076D01*
X127900000Y-60413551D01*
X127900000Y-60407339D01*
X127872741Y-60305606D01*
X127820080Y-60214394D01*
X127745606Y-60139920D01*
X127654394Y-60087259D01*
X127552661Y-60060000D01*
X127546446Y-60060000D01*
X128225922Y-59380524D01*
X128225921Y-59380523D01*
X128181359Y-59348147D01*
X128181350Y-59348141D01*
X128088369Y-59300765D01*
X128037573Y-59252790D01*
X128020778Y-59184969D01*
X128043315Y-59118835D01*
X128088370Y-59079795D01*
X128088920Y-59079515D01*
X128181610Y-59032287D01*
X128237108Y-58991966D01*
X128347213Y-58911971D01*
X128347215Y-58911968D01*
X128347219Y-58911966D01*
X128491966Y-58767219D01*
X128491968Y-58767215D01*
X128491971Y-58767213D01*
X128564184Y-58667819D01*
X128612287Y-58601610D01*
X128705220Y-58419219D01*
X128768477Y-58224534D01*
X128800500Y-58022352D01*
X128800500Y-57817648D01*
X128768477Y-57615466D01*
X128754147Y-57571364D01*
X128736725Y-57517743D01*
X128705220Y-57420781D01*
X128705218Y-57420778D01*
X128705218Y-57420776D01*
X128653047Y-57318386D01*
X128612287Y-57238390D01*
X128550093Y-57152786D01*
X128491971Y-57072786D01*
X128347213Y-56928028D01*
X128181614Y-56807715D01*
X128168955Y-56801265D01*
X128088917Y-56760483D01*
X128038123Y-56712511D01*
X128021328Y-56644690D01*
X128043865Y-56578555D01*
X128088917Y-56539516D01*
X128181610Y-56492287D01*
X128245183Y-56446099D01*
X128347213Y-56371971D01*
X128347215Y-56371968D01*
X128347219Y-56371966D01*
X128491966Y-56227219D01*
X128491968Y-56227215D01*
X128491971Y-56227213D01*
X128612284Y-56061614D01*
X128612285Y-56061613D01*
X128612287Y-56061610D01*
X128665015Y-55958124D01*
X128712989Y-55907329D01*
X128780810Y-55890534D01*
X128846945Y-55913071D01*
X128890397Y-55967786D01*
X128899500Y-56014420D01*
X128899500Y-56913330D01*
X128899499Y-56913348D01*
X128899499Y-57079054D01*
X128899498Y-57079054D01*
X128940424Y-57231789D01*
X128940425Y-57231790D01*
X128957847Y-57261965D01*
X128957848Y-57261966D01*
X129019477Y-57368712D01*
X129019481Y-57368717D01*
X129138349Y-57487585D01*
X129138355Y-57487590D01*
X133914144Y-62263379D01*
X133930997Y-62280234D01*
X133946001Y-62307715D01*
X133964477Y-62341552D01*
X133964476Y-62341554D01*
X133964479Y-62341559D01*
X133962706Y-62366319D01*
X133959493Y-62411244D01*
X133953797Y-62424203D01*
X133914778Y-62500784D01*
X133851523Y-62695461D01*
X133851523Y-62695464D01*
X133819500Y-62897648D01*
X133819500Y-63102351D01*
X133851522Y-63304534D01*
X133914781Y-63499223D01*
X133978691Y-63624653D01*
X134007478Y-63681149D01*
X134007715Y-63681613D01*
X134128028Y-63847213D01*
X134272786Y-63991971D01*
X134427749Y-64104556D01*
X134438390Y-64112287D01*
X134529840Y-64158883D01*
X134531080Y-64159515D01*
X134581876Y-64207490D01*
X134598671Y-64275311D01*
X134576134Y-64341446D01*
X134531080Y-64380485D01*
X134438386Y-64427715D01*
X134272786Y-64548028D01*
X134128028Y-64692786D01*
X134007715Y-64858386D01*
X133914781Y-65040776D01*
X133851522Y-65235465D01*
X133819500Y-65437648D01*
X133819500Y-65642351D01*
X133851522Y-65844534D01*
X133914781Y-66039223D01*
X133959170Y-66126339D01*
X134007585Y-66221359D01*
X134007715Y-66221613D01*
X134128028Y-66387213D01*
X134128034Y-66387219D01*
X134272781Y-66531966D01*
X134366452Y-66600021D01*
X134409117Y-66655350D01*
X134415096Y-66724963D01*
X134382491Y-66786759D01*
X134332571Y-66818045D01*
X134250666Y-66845186D01*
X134250663Y-66845187D01*
X134101342Y-66937289D01*
X133977289Y-67061342D01*
X133885187Y-67210663D01*
X133885186Y-67210666D01*
X133830001Y-67377203D01*
X133830001Y-67377204D01*
X133830000Y-67377204D01*
X133819500Y-67479983D01*
X133819500Y-68680001D01*
X133819501Y-68680018D01*
X133830000Y-68782796D01*
X133830001Y-68782799D01*
X133864767Y-68887713D01*
X133885186Y-68949334D01*
X133977288Y-69098656D01*
X134101344Y-69222712D01*
X134250666Y-69314814D01*
X134417203Y-69369999D01*
X134519991Y-69380500D01*
X135519902Y-69380499D01*
X135586941Y-69400183D01*
X135607583Y-69416818D01*
X136555139Y-70364374D01*
X136555149Y-70364385D01*
X136559479Y-70368715D01*
X136559480Y-70368716D01*
X136671284Y-70480520D01*
X136758095Y-70530639D01*
X136758097Y-70530641D01*
X136796151Y-70552611D01*
X136808215Y-70559577D01*
X136960943Y-70600501D01*
X136960946Y-70600501D01*
X137126653Y-70600501D01*
X137126669Y-70600500D01*
X146190398Y-70600500D01*
X146257437Y-70620185D01*
X146300883Y-70668205D01*
X146307715Y-70681614D01*
X146428028Y-70847213D01*
X146572786Y-70991971D01*
X146727749Y-71104556D01*
X146738390Y-71112287D01*
X146854607Y-71171503D01*
X146920776Y-71205218D01*
X146920778Y-71205218D01*
X146920781Y-71205220D01*
X147025137Y-71239127D01*
X147115465Y-71268477D01*
X147216557Y-71284488D01*
X147317648Y-71300500D01*
X147317649Y-71300500D01*
X147522351Y-71300500D01*
X147522352Y-71300500D01*
X147724534Y-71268477D01*
X147919219Y-71205220D01*
X148101610Y-71112287D01*
X148246005Y-71007379D01*
X148267213Y-70991971D01*
X148267215Y-70991968D01*
X148267219Y-70991966D01*
X148411966Y-70847219D01*
X148411968Y-70847215D01*
X148411971Y-70847213D01*
X148494207Y-70734023D01*
X148532287Y-70681610D01*
X148625220Y-70499219D01*
X148688477Y-70304534D01*
X148720500Y-70102352D01*
X148720500Y-69897648D01*
X156279500Y-69897648D01*
X156279500Y-70102351D01*
X156311522Y-70304534D01*
X156374781Y-70499223D01*
X156426385Y-70600500D01*
X156460882Y-70668204D01*
X156467715Y-70681613D01*
X156588028Y-70847213D01*
X156732786Y-70991971D01*
X156887749Y-71104556D01*
X156898390Y-71112287D01*
X157014607Y-71171503D01*
X157080776Y-71205218D01*
X157080778Y-71205218D01*
X157080781Y-71205220D01*
X157185137Y-71239127D01*
X157275465Y-71268477D01*
X157376557Y-71284488D01*
X157477648Y-71300500D01*
X157477649Y-71300500D01*
X157682351Y-71300500D01*
X157682352Y-71300500D01*
X157884534Y-71268477D01*
X158079219Y-71205220D01*
X158261610Y-71112287D01*
X158406005Y-71007379D01*
X158427213Y-70991971D01*
X158427215Y-70991968D01*
X158427219Y-70991966D01*
X158571966Y-70847219D01*
X158571968Y-70847215D01*
X158571971Y-70847213D01*
X158692284Y-70681614D01*
X158692285Y-70681613D01*
X158692287Y-70681610D01*
X158699117Y-70668204D01*
X158747091Y-70617409D01*
X158809602Y-70600500D01*
X159888164Y-70600500D01*
X159955203Y-70620185D01*
X159998648Y-70668204D01*
X160032185Y-70734023D01*
X160161752Y-70912358D01*
X160161756Y-70912363D01*
X160317636Y-71068243D01*
X160317641Y-71068247D01*
X160473192Y-71181260D01*
X160495978Y-71197815D01*
X160612501Y-71257187D01*
X160692393Y-71297895D01*
X160692396Y-71297896D01*
X160797221Y-71331955D01*
X160902049Y-71366015D01*
X161119778Y-71400500D01*
X161119779Y-71400500D01*
X161340221Y-71400500D01*
X161340222Y-71400500D01*
X161557951Y-71366015D01*
X161767606Y-71297895D01*
X161964022Y-71197815D01*
X162142365Y-71068242D01*
X162192924Y-71017682D01*
X162254245Y-70984198D01*
X162323936Y-70989182D01*
X162379870Y-71031053D01*
X162396786Y-71062030D01*
X162426646Y-71142087D01*
X162426649Y-71142093D01*
X162512809Y-71257187D01*
X162512812Y-71257190D01*
X162627906Y-71343350D01*
X162627913Y-71343354D01*
X162762620Y-71393596D01*
X162762627Y-71393598D01*
X162822155Y-71399999D01*
X162822172Y-71400000D01*
X163520000Y-71400000D01*
X163520000Y-70375277D01*
X163596306Y-70419333D01*
X163710756Y-70450000D01*
X163829244Y-70450000D01*
X163943694Y-70419333D01*
X164020000Y-70375277D01*
X164020000Y-71400000D01*
X164717828Y-71400000D01*
X164717844Y-71399999D01*
X164777372Y-71393598D01*
X164777379Y-71393596D01*
X164912086Y-71343354D01*
X164912093Y-71343350D01*
X165027187Y-71257190D01*
X165027190Y-71257187D01*
X165113350Y-71142093D01*
X165113354Y-71142086D01*
X165163596Y-71007379D01*
X165163598Y-71007372D01*
X165169999Y-70947844D01*
X165170000Y-70947827D01*
X165170000Y-70250000D01*
X164145278Y-70250000D01*
X164189333Y-70173694D01*
X164220000Y-70059244D01*
X164220000Y-69940756D01*
X164189333Y-69826306D01*
X164145278Y-69750000D01*
X165170000Y-69750000D01*
X165170000Y-69052172D01*
X165169999Y-69052155D01*
X165163598Y-68992627D01*
X165163596Y-68992620D01*
X165113354Y-68857913D01*
X165113350Y-68857906D01*
X165027190Y-68742812D01*
X165027187Y-68742809D01*
X164912093Y-68656649D01*
X164912086Y-68656645D01*
X164777379Y-68606403D01*
X164777372Y-68606401D01*
X164717844Y-68600000D01*
X164020000Y-68600000D01*
X164020000Y-69624722D01*
X163943694Y-69580667D01*
X163829244Y-69550000D01*
X163710756Y-69550000D01*
X163596306Y-69580667D01*
X163520000Y-69624722D01*
X163520000Y-68600000D01*
X162822155Y-68600000D01*
X162762627Y-68606401D01*
X162762620Y-68606403D01*
X162627913Y-68656645D01*
X162627906Y-68656649D01*
X162512812Y-68742809D01*
X162512809Y-68742812D01*
X162426649Y-68857906D01*
X162426643Y-68857918D01*
X162396785Y-68937969D01*
X162354914Y-68993903D01*
X162289449Y-69018319D01*
X162221176Y-69003467D01*
X162192923Y-68982316D01*
X162142363Y-68931756D01*
X162142358Y-68931752D01*
X161964025Y-68802187D01*
X161964024Y-68802186D01*
X161964022Y-68802185D01*
X161884390Y-68761610D01*
X161767606Y-68702104D01*
X161767603Y-68702103D01*
X161557952Y-68633985D01*
X161449086Y-68616742D01*
X161340222Y-68599500D01*
X161119778Y-68599500D01*
X161047201Y-68610995D01*
X160902047Y-68633985D01*
X160692396Y-68702103D01*
X160692393Y-68702104D01*
X160495974Y-68802187D01*
X160317641Y-68931752D01*
X160317636Y-68931756D01*
X160161756Y-69087636D01*
X160161752Y-69087641D01*
X160032185Y-69265976D01*
X159998648Y-69331796D01*
X159950674Y-69382591D01*
X159888164Y-69399500D01*
X158809602Y-69399500D01*
X158742563Y-69379815D01*
X158699117Y-69331795D01*
X158692284Y-69318385D01*
X158571971Y-69152786D01*
X158427213Y-69008028D01*
X158261613Y-68887715D01*
X158261612Y-68887714D01*
X158261610Y-68887713D01*
X158203111Y-68857906D01*
X158079223Y-68794781D01*
X157884534Y-68731522D01*
X157698799Y-68702105D01*
X157682352Y-68699500D01*
X157477648Y-68699500D01*
X157461201Y-68702105D01*
X157275465Y-68731522D01*
X157080776Y-68794781D01*
X156898386Y-68887715D01*
X156732786Y-69008028D01*
X156588028Y-69152786D01*
X156467715Y-69318386D01*
X156374781Y-69500776D01*
X156311522Y-69695465D01*
X156279500Y-69897648D01*
X148720500Y-69897648D01*
X148688477Y-69695465D01*
X148659127Y-69605137D01*
X148625220Y-69500781D01*
X148625218Y-69500778D01*
X148625218Y-69500776D01*
X148582439Y-69416818D01*
X148532287Y-69318390D01*
X148508188Y-69285220D01*
X148411971Y-69152786D01*
X148267213Y-69008028D01*
X148101613Y-68887715D01*
X148101612Y-68887714D01*
X148101610Y-68887713D01*
X148043111Y-68857906D01*
X147919223Y-68794781D01*
X147724534Y-68731522D01*
X147538799Y-68702105D01*
X147522352Y-68699500D01*
X147317648Y-68699500D01*
X147301201Y-68702105D01*
X147115465Y-68731522D01*
X146920776Y-68794781D01*
X146738386Y-68887715D01*
X146572786Y-69008028D01*
X146428028Y-69152786D01*
X146307715Y-69318385D01*
X146300883Y-69331795D01*
X146252909Y-69382591D01*
X146190398Y-69399500D01*
X137340097Y-69399500D01*
X137273058Y-69379815D01*
X137252416Y-69363181D01*
X136456818Y-68567583D01*
X136423333Y-68506260D01*
X136420499Y-68479902D01*
X136420499Y-67479998D01*
X136420498Y-67479981D01*
X136409999Y-67377203D01*
X136409998Y-67377200D01*
X136354814Y-67210666D01*
X136262712Y-67061344D01*
X136138656Y-66937288D01*
X135989334Y-66845186D01*
X135907427Y-66818044D01*
X135849984Y-66778272D01*
X135823161Y-66713756D01*
X135835476Y-66644980D01*
X135873547Y-66600021D01*
X135967219Y-66531966D01*
X136111966Y-66387219D01*
X136111968Y-66387215D01*
X136111971Y-66387213D01*
X136164732Y-66314590D01*
X136232287Y-66221610D01*
X136325220Y-66039219D01*
X136388477Y-65844534D01*
X136420500Y-65642352D01*
X136420500Y-65437648D01*
X136409154Y-65366014D01*
X136388477Y-65235465D01*
X136342908Y-65095220D01*
X136325220Y-65040781D01*
X136325218Y-65040778D01*
X136325218Y-65040776D01*
X136277857Y-64947827D01*
X136232287Y-64858390D01*
X136200092Y-64814077D01*
X136111971Y-64692786D01*
X135967213Y-64548028D01*
X135801614Y-64427715D01*
X135787732Y-64420642D01*
X135708917Y-64380483D01*
X135658123Y-64332511D01*
X135641328Y-64264690D01*
X135663865Y-64198555D01*
X135708917Y-64159516D01*
X135801610Y-64112287D01*
X135874618Y-64059244D01*
X135967213Y-63991971D01*
X135967215Y-63991968D01*
X135967219Y-63991966D01*
X136111966Y-63847219D01*
X136111968Y-63847215D01*
X136111971Y-63847213D01*
X136182599Y-63750000D01*
X136232287Y-63681610D01*
X136325220Y-63499219D01*
X136388477Y-63304534D01*
X136420500Y-63102352D01*
X136420500Y-62897648D01*
X136388477Y-62695466D01*
X136388475Y-62695462D01*
X136388475Y-62695457D01*
X136377545Y-62661817D01*
X136375550Y-62591976D01*
X136411631Y-62532144D01*
X136474332Y-62501316D01*
X136495476Y-62499500D01*
X145018903Y-62499500D01*
X145085942Y-62519185D01*
X145106584Y-62535819D01*
X146125921Y-63555157D01*
X146159406Y-63616480D01*
X146156173Y-63681149D01*
X146151523Y-63695460D01*
X146151523Y-63695462D01*
X146119500Y-63897648D01*
X146119500Y-64102352D01*
X146121074Y-64112287D01*
X146151522Y-64304534D01*
X146214781Y-64499223D01*
X146251667Y-64571614D01*
X146300882Y-64668204D01*
X146307715Y-64681613D01*
X146428028Y-64847213D01*
X146572786Y-64991971D01*
X146714896Y-65095218D01*
X146738390Y-65112287D01*
X146854607Y-65171503D01*
X146920776Y-65205218D01*
X146920778Y-65205218D01*
X146920781Y-65205220D01*
X147013866Y-65235465D01*
X147115465Y-65268477D01*
X147216557Y-65284488D01*
X147317648Y-65300500D01*
X147317649Y-65300500D01*
X147522351Y-65300500D01*
X147522352Y-65300500D01*
X147724534Y-65268477D01*
X147919219Y-65205220D01*
X148101610Y-65112287D01*
X148246005Y-65007379D01*
X148267213Y-64991971D01*
X148267215Y-64991968D01*
X148267219Y-64991966D01*
X148411966Y-64847219D01*
X148411968Y-64847215D01*
X148411971Y-64847213D01*
X148494207Y-64734023D01*
X148532287Y-64681610D01*
X148625220Y-64499219D01*
X148688477Y-64304534D01*
X148720500Y-64102352D01*
X148720500Y-63897648D01*
X156279500Y-63897648D01*
X156279500Y-64102352D01*
X156281074Y-64112287D01*
X156311522Y-64304534D01*
X156374781Y-64499223D01*
X156411667Y-64571614D01*
X156460882Y-64668204D01*
X156467715Y-64681613D01*
X156588028Y-64847213D01*
X156732786Y-64991971D01*
X156874896Y-65095218D01*
X156898390Y-65112287D01*
X157014607Y-65171503D01*
X157080776Y-65205218D01*
X157080778Y-65205218D01*
X157080781Y-65205220D01*
X157173866Y-65235465D01*
X157275465Y-65268477D01*
X157376557Y-65284488D01*
X157477648Y-65300500D01*
X157477649Y-65300500D01*
X157682351Y-65300500D01*
X157682352Y-65300500D01*
X157884534Y-65268477D01*
X158079219Y-65205220D01*
X158261610Y-65112287D01*
X158406005Y-65007379D01*
X158427213Y-64991971D01*
X158427215Y-64991968D01*
X158427219Y-64991966D01*
X158571966Y-64847219D01*
X158571968Y-64847215D01*
X158571971Y-64847213D01*
X158692284Y-64681614D01*
X158692285Y-64681613D01*
X158692287Y-64681610D01*
X158699117Y-64668204D01*
X158747091Y-64617409D01*
X158809602Y-64600500D01*
X159888164Y-64600500D01*
X159955203Y-64620185D01*
X159998648Y-64668204D01*
X160032185Y-64734023D01*
X160161752Y-64912358D01*
X160161756Y-64912363D01*
X160317636Y-65068243D01*
X160317641Y-65068247D01*
X160453921Y-65167259D01*
X160495978Y-65197815D01*
X160612501Y-65257187D01*
X160692393Y-65297895D01*
X160692396Y-65297896D01*
X160783295Y-65327430D01*
X160902049Y-65366015D01*
X161119778Y-65400500D01*
X161119779Y-65400500D01*
X161340221Y-65400500D01*
X161340222Y-65400500D01*
X161557951Y-65366015D01*
X161767606Y-65297895D01*
X161964022Y-65197815D01*
X162142365Y-65068242D01*
X162192924Y-65017682D01*
X162254245Y-64984198D01*
X162323936Y-64989182D01*
X162379870Y-65031053D01*
X162396786Y-65062030D01*
X162426646Y-65142087D01*
X162426649Y-65142093D01*
X162512809Y-65257187D01*
X162512812Y-65257190D01*
X162627906Y-65343350D01*
X162627913Y-65343354D01*
X162762620Y-65393596D01*
X162762627Y-65393598D01*
X162822155Y-65399999D01*
X162822172Y-65400000D01*
X163520000Y-65400000D01*
X163520000Y-64375277D01*
X163596306Y-64419333D01*
X163710756Y-64450000D01*
X163829244Y-64450000D01*
X163943694Y-64419333D01*
X164020000Y-64375277D01*
X164020000Y-65400000D01*
X164717828Y-65400000D01*
X164717844Y-65399999D01*
X164777372Y-65393598D01*
X164777379Y-65393596D01*
X164912086Y-65343354D01*
X164912093Y-65343350D01*
X165027187Y-65257190D01*
X165027190Y-65257187D01*
X165113350Y-65142093D01*
X165113354Y-65142086D01*
X165163596Y-65007379D01*
X165163598Y-65007372D01*
X165169999Y-64947844D01*
X165170000Y-64947827D01*
X165170000Y-64250000D01*
X164145278Y-64250000D01*
X164189333Y-64173694D01*
X164220000Y-64059244D01*
X164220000Y-63940756D01*
X164189333Y-63826306D01*
X164145278Y-63750000D01*
X165170000Y-63750000D01*
X165170000Y-63052172D01*
X165169999Y-63052155D01*
X165163598Y-62992627D01*
X165163596Y-62992620D01*
X165113354Y-62857913D01*
X165113350Y-62857906D01*
X165027190Y-62742812D01*
X165027187Y-62742809D01*
X164912093Y-62656649D01*
X164912086Y-62656645D01*
X164777379Y-62606403D01*
X164777372Y-62606401D01*
X164717844Y-62600000D01*
X164020000Y-62600000D01*
X164020000Y-63624722D01*
X163943694Y-63580667D01*
X163829244Y-63550000D01*
X163710756Y-63550000D01*
X163596306Y-63580667D01*
X163520000Y-63624722D01*
X163520000Y-62600000D01*
X162822155Y-62600000D01*
X162762627Y-62606401D01*
X162762620Y-62606403D01*
X162627913Y-62656645D01*
X162627906Y-62656649D01*
X162512812Y-62742809D01*
X162512809Y-62742812D01*
X162426649Y-62857906D01*
X162426643Y-62857918D01*
X162396785Y-62937969D01*
X162354914Y-62993903D01*
X162289449Y-63018319D01*
X162221176Y-63003467D01*
X162192923Y-62982316D01*
X162142363Y-62931756D01*
X162142358Y-62931752D01*
X161964025Y-62802187D01*
X161964024Y-62802186D01*
X161964022Y-62802185D01*
X161855599Y-62746940D01*
X161767606Y-62702104D01*
X161767603Y-62702103D01*
X161557952Y-62633985D01*
X161449086Y-62616742D01*
X161340222Y-62599500D01*
X161119778Y-62599500D01*
X161047201Y-62610995D01*
X160902047Y-62633985D01*
X160692396Y-62702103D01*
X160692393Y-62702104D01*
X160495974Y-62802187D01*
X160317641Y-62931752D01*
X160317636Y-62931756D01*
X160161756Y-63087636D01*
X160161752Y-63087641D01*
X160032185Y-63265976D01*
X159998648Y-63331796D01*
X159950674Y-63382591D01*
X159888164Y-63399500D01*
X158809602Y-63399500D01*
X158742563Y-63379815D01*
X158699117Y-63331795D01*
X158692287Y-63318390D01*
X158692285Y-63318387D01*
X158692284Y-63318385D01*
X158571971Y-63152786D01*
X158427213Y-63008028D01*
X158261613Y-62887715D01*
X158261612Y-62887714D01*
X158261610Y-62887713D01*
X158203111Y-62857906D01*
X158079223Y-62794781D01*
X157884534Y-62731522D01*
X157698799Y-62702105D01*
X157682352Y-62699500D01*
X157477648Y-62699500D01*
X157461201Y-62702105D01*
X157275465Y-62731522D01*
X157080776Y-62794781D01*
X156898386Y-62887715D01*
X156732786Y-63008028D01*
X156588028Y-63152786D01*
X156467715Y-63318386D01*
X156374781Y-63500776D01*
X156311522Y-63695465D01*
X156279500Y-63897648D01*
X148720500Y-63897648D01*
X148688477Y-63695465D01*
X148652736Y-63585466D01*
X148625220Y-63500781D01*
X148625218Y-63500778D01*
X148625218Y-63500776D01*
X148591503Y-63434607D01*
X148532287Y-63318390D01*
X148522220Y-63304534D01*
X148411971Y-63152786D01*
X148267213Y-63008028D01*
X148101613Y-62887715D01*
X148101612Y-62887714D01*
X148101610Y-62887713D01*
X148043111Y-62857906D01*
X147919223Y-62794781D01*
X147724534Y-62731522D01*
X147538799Y-62702105D01*
X147522352Y-62699500D01*
X147317648Y-62699500D01*
X147277211Y-62705904D01*
X147115462Y-62731523D01*
X147115460Y-62731523D01*
X147101149Y-62736173D01*
X147031308Y-62738164D01*
X146975157Y-62705921D01*
X145806590Y-61537355D01*
X145806588Y-61537352D01*
X145687717Y-61418481D01*
X145687709Y-61418475D01*
X145587292Y-61360500D01*
X145587291Y-61360499D01*
X145587291Y-61360500D01*
X145550785Y-61339423D01*
X145398057Y-61298499D01*
X145239943Y-61298499D01*
X145232347Y-61298499D01*
X145232331Y-61298500D01*
X138172704Y-61298500D01*
X138160010Y-61294772D01*
X138146818Y-61295768D01*
X138127134Y-61285119D01*
X138105665Y-61278815D01*
X138097002Y-61268817D01*
X138085365Y-61262522D01*
X138074562Y-61242920D01*
X138059910Y-61226011D01*
X138058027Y-61212918D01*
X138051641Y-61201330D01*
X138053150Y-61179001D01*
X138049966Y-61156853D01*
X138055461Y-61144819D01*
X138056354Y-61131620D01*
X138069694Y-61113653D01*
X138078991Y-61093297D01*
X138091054Y-61084886D01*
X138098007Y-61075523D01*
X138119613Y-61064975D01*
X138128918Y-61058488D01*
X138134666Y-61056318D01*
X138271785Y-61019577D01*
X138338110Y-60981284D01*
X138408716Y-60940520D01*
X138520520Y-60828716D01*
X138520520Y-60828714D01*
X138530724Y-60818511D01*
X138530727Y-60818506D01*
X141451585Y-57897648D01*
X146119500Y-57897648D01*
X146119500Y-58102351D01*
X146151522Y-58304534D01*
X146214781Y-58499223D01*
X146257365Y-58582797D01*
X146300882Y-58668204D01*
X146307715Y-58681613D01*
X146428028Y-58847213D01*
X146572786Y-58991971D01*
X146693668Y-59079795D01*
X146738390Y-59112287D01*
X146818125Y-59152914D01*
X146920776Y-59205218D01*
X146920778Y-59205218D01*
X146920781Y-59205220D01*
X147025137Y-59239127D01*
X147115465Y-59268477D01*
X147216557Y-59284488D01*
X147317648Y-59300500D01*
X147317649Y-59300500D01*
X147522351Y-59300500D01*
X147522352Y-59300500D01*
X147724534Y-59268477D01*
X147919219Y-59205220D01*
X148101610Y-59112287D01*
X148194590Y-59044732D01*
X148267213Y-58991971D01*
X148267215Y-58991968D01*
X148267219Y-58991966D01*
X148411966Y-58847219D01*
X148411968Y-58847215D01*
X148411971Y-58847213D01*
X148470093Y-58767213D01*
X148532287Y-58681610D01*
X148625220Y-58499219D01*
X148688477Y-58304534D01*
X148720500Y-58102352D01*
X148720500Y-57897648D01*
X156279500Y-57897648D01*
X156279500Y-58102351D01*
X156311522Y-58304534D01*
X156374781Y-58499223D01*
X156417365Y-58582797D01*
X156460882Y-58668204D01*
X156467715Y-58681613D01*
X156588028Y-58847213D01*
X156732786Y-58991971D01*
X156853668Y-59079795D01*
X156898390Y-59112287D01*
X156978125Y-59152914D01*
X157080776Y-59205218D01*
X157080778Y-59205218D01*
X157080781Y-59205220D01*
X157185137Y-59239127D01*
X157275465Y-59268477D01*
X157376557Y-59284488D01*
X157477648Y-59300500D01*
X157477649Y-59300500D01*
X157682351Y-59300500D01*
X157682352Y-59300500D01*
X157884534Y-59268477D01*
X158079219Y-59205220D01*
X158261610Y-59112287D01*
X158354590Y-59044732D01*
X158427213Y-58991971D01*
X158427215Y-58991968D01*
X158427219Y-58991966D01*
X158571966Y-58847219D01*
X158571968Y-58847215D01*
X158571971Y-58847213D01*
X158692284Y-58681614D01*
X158692285Y-58681613D01*
X158692287Y-58681610D01*
X158699117Y-58668204D01*
X158747091Y-58617409D01*
X158809602Y-58600500D01*
X159888164Y-58600500D01*
X159955203Y-58620185D01*
X159998648Y-58668204D01*
X160032185Y-58734023D01*
X160161752Y-58912358D01*
X160161756Y-58912363D01*
X160317636Y-59068243D01*
X160317641Y-59068247D01*
X160457691Y-59169998D01*
X160495978Y-59197815D01*
X160607777Y-59254780D01*
X160692393Y-59297895D01*
X160692396Y-59297896D01*
X160797221Y-59331955D01*
X160902049Y-59366015D01*
X161119778Y-59400500D01*
X161119779Y-59400500D01*
X161340221Y-59400500D01*
X161340222Y-59400500D01*
X161557951Y-59366015D01*
X161767606Y-59297895D01*
X161964022Y-59197815D01*
X162142365Y-59068242D01*
X162192924Y-59017682D01*
X162254245Y-58984198D01*
X162323936Y-58989182D01*
X162379870Y-59031053D01*
X162396786Y-59062030D01*
X162426646Y-59142087D01*
X162426649Y-59142093D01*
X162512809Y-59257187D01*
X162512812Y-59257190D01*
X162627906Y-59343350D01*
X162627913Y-59343354D01*
X162762620Y-59393596D01*
X162762627Y-59393598D01*
X162822155Y-59399999D01*
X162822172Y-59400000D01*
X163520000Y-59400000D01*
X163520000Y-58375277D01*
X163596306Y-58419333D01*
X163710756Y-58450000D01*
X163829244Y-58450000D01*
X163943694Y-58419333D01*
X164020000Y-58375277D01*
X164020000Y-59400000D01*
X164717828Y-59400000D01*
X164717844Y-59399999D01*
X164777372Y-59393598D01*
X164777379Y-59393596D01*
X164912086Y-59343354D01*
X164912093Y-59343350D01*
X165027187Y-59257190D01*
X165027190Y-59257187D01*
X165113350Y-59142093D01*
X165113354Y-59142086D01*
X165163596Y-59007379D01*
X165163598Y-59007372D01*
X165169999Y-58947844D01*
X165170000Y-58947827D01*
X165170000Y-58250000D01*
X164145278Y-58250000D01*
X164189333Y-58173694D01*
X164220000Y-58059244D01*
X164220000Y-57940756D01*
X164189333Y-57826306D01*
X164145278Y-57750000D01*
X165170000Y-57750000D01*
X165170000Y-57052172D01*
X165169999Y-57052155D01*
X165163598Y-56992627D01*
X165163596Y-56992620D01*
X165113354Y-56857913D01*
X165113350Y-56857906D01*
X165027190Y-56742812D01*
X165027187Y-56742809D01*
X164912093Y-56656649D01*
X164912086Y-56656645D01*
X164777379Y-56606403D01*
X164777372Y-56606401D01*
X164717844Y-56600000D01*
X164020000Y-56600000D01*
X164020000Y-57624722D01*
X163943694Y-57580667D01*
X163829244Y-57550000D01*
X163710756Y-57550000D01*
X163596306Y-57580667D01*
X163520000Y-57624722D01*
X163520000Y-56600000D01*
X162822155Y-56600000D01*
X162762627Y-56606401D01*
X162762620Y-56606403D01*
X162627913Y-56656645D01*
X162627906Y-56656649D01*
X162512812Y-56742809D01*
X162512809Y-56742812D01*
X162426649Y-56857906D01*
X162426643Y-56857918D01*
X162396785Y-56937969D01*
X162354914Y-56993903D01*
X162289449Y-57018319D01*
X162221176Y-57003467D01*
X162192923Y-56982316D01*
X162142363Y-56931756D01*
X162142358Y-56931752D01*
X161964025Y-56802187D01*
X161964024Y-56802186D01*
X161964022Y-56802185D01*
X161861414Y-56749903D01*
X161767606Y-56702104D01*
X161767603Y-56702103D01*
X161557952Y-56633985D01*
X161449086Y-56616742D01*
X161340222Y-56599500D01*
X161119778Y-56599500D01*
X161047201Y-56610995D01*
X160902047Y-56633985D01*
X160692396Y-56702103D01*
X160692393Y-56702104D01*
X160495974Y-56802187D01*
X160317641Y-56931752D01*
X160317636Y-56931756D01*
X160161756Y-57087636D01*
X160161752Y-57087641D01*
X160032185Y-57265976D01*
X159998648Y-57331796D01*
X159950674Y-57382591D01*
X159888164Y-57399500D01*
X158809602Y-57399500D01*
X158742563Y-57379815D01*
X158699117Y-57331795D01*
X158692284Y-57318385D01*
X158571971Y-57152786D01*
X158427213Y-57008028D01*
X158261613Y-56887715D01*
X158261612Y-56887714D01*
X158261610Y-56887713D01*
X158203111Y-56857906D01*
X158079223Y-56794781D01*
X157884534Y-56731522D01*
X157698799Y-56702105D01*
X157682352Y-56699500D01*
X157477648Y-56699500D01*
X157461201Y-56702105D01*
X157275465Y-56731522D01*
X157080776Y-56794781D01*
X156898386Y-56887715D01*
X156732786Y-57008028D01*
X156588028Y-57152786D01*
X156467715Y-57318386D01*
X156374781Y-57500776D01*
X156311522Y-57695465D01*
X156279500Y-57897648D01*
X148720500Y-57897648D01*
X148720207Y-57895795D01*
X148688477Y-57695465D01*
X148658274Y-57602511D01*
X148625220Y-57500781D01*
X148625218Y-57500778D01*
X148625218Y-57500776D01*
X148579304Y-57410666D01*
X148532287Y-57318390D01*
X148494208Y-57265978D01*
X148411971Y-57152786D01*
X148267213Y-57008028D01*
X148101613Y-56887715D01*
X148101612Y-56887714D01*
X148101610Y-56887713D01*
X148043111Y-56857906D01*
X147919223Y-56794781D01*
X147724534Y-56731522D01*
X147538799Y-56702105D01*
X147522352Y-56699500D01*
X147317648Y-56699500D01*
X147301201Y-56702105D01*
X147115465Y-56731522D01*
X146920776Y-56794781D01*
X146738386Y-56887715D01*
X146572786Y-57008028D01*
X146428028Y-57152786D01*
X146307715Y-57318386D01*
X146214781Y-57500776D01*
X146151522Y-57695465D01*
X146119500Y-57897648D01*
X141451585Y-57897648D01*
X146146103Y-53203131D01*
X146207424Y-53169648D01*
X146277116Y-53174632D01*
X146333049Y-53216504D01*
X146334043Y-53217850D01*
X146382715Y-53284842D01*
X146428034Y-53347219D01*
X146572786Y-53491971D01*
X146710437Y-53591978D01*
X146738390Y-53612287D01*
X146854607Y-53671503D01*
X146920776Y-53705218D01*
X146920778Y-53705218D01*
X146920781Y-53705220D01*
X147025137Y-53739127D01*
X147115465Y-53768477D01*
X147216557Y-53784488D01*
X147317648Y-53800500D01*
X147317649Y-53800500D01*
X147522351Y-53800500D01*
X147522352Y-53800500D01*
X147724534Y-53768477D01*
X147919219Y-53705220D01*
X148101610Y-53612287D01*
X148226413Y-53521613D01*
X148267213Y-53491971D01*
X148267215Y-53491968D01*
X148267219Y-53491966D01*
X148411966Y-53347219D01*
X148411968Y-53347215D01*
X148411971Y-53347213D01*
X148494207Y-53234023D01*
X148532287Y-53181610D01*
X148625220Y-52999219D01*
X148688477Y-52804534D01*
X148720500Y-52602352D01*
X148720500Y-52397648D01*
X156279500Y-52397648D01*
X156279500Y-52602351D01*
X156311522Y-52804534D01*
X156374781Y-52999223D01*
X156426385Y-53100500D01*
X156460882Y-53168204D01*
X156467715Y-53181613D01*
X156588028Y-53347213D01*
X156732786Y-53491971D01*
X156870437Y-53591978D01*
X156898390Y-53612287D01*
X157014607Y-53671503D01*
X157080776Y-53705218D01*
X157080778Y-53705218D01*
X157080781Y-53705220D01*
X157185137Y-53739127D01*
X157275465Y-53768477D01*
X157376557Y-53784488D01*
X157477648Y-53800500D01*
X157477649Y-53800500D01*
X157682351Y-53800500D01*
X157682352Y-53800500D01*
X157884534Y-53768477D01*
X158079219Y-53705220D01*
X158261610Y-53612287D01*
X158386413Y-53521613D01*
X158427213Y-53491971D01*
X158427215Y-53491968D01*
X158427219Y-53491966D01*
X158571966Y-53347219D01*
X158571968Y-53347215D01*
X158571971Y-53347213D01*
X158692284Y-53181614D01*
X158692285Y-53181613D01*
X158692287Y-53181610D01*
X158699117Y-53168204D01*
X158747091Y-53117409D01*
X158809602Y-53100500D01*
X159888164Y-53100500D01*
X159955203Y-53120185D01*
X159998648Y-53168204D01*
X160032185Y-53234023D01*
X160161752Y-53412358D01*
X160161756Y-53412363D01*
X160317636Y-53568243D01*
X160317641Y-53568247D01*
X160473192Y-53681260D01*
X160495978Y-53697815D01*
X160612501Y-53757187D01*
X160692393Y-53797895D01*
X160692396Y-53797896D01*
X160797221Y-53831955D01*
X160902049Y-53866015D01*
X161119778Y-53900500D01*
X161119779Y-53900500D01*
X161340221Y-53900500D01*
X161340222Y-53900500D01*
X161557951Y-53866015D01*
X161767606Y-53797895D01*
X161964022Y-53697815D01*
X162142365Y-53568242D01*
X162192924Y-53517682D01*
X162254245Y-53484198D01*
X162323936Y-53489182D01*
X162379870Y-53531053D01*
X162396786Y-53562030D01*
X162426646Y-53642087D01*
X162426649Y-53642093D01*
X162512809Y-53757187D01*
X162512812Y-53757190D01*
X162627906Y-53843350D01*
X162627913Y-53843354D01*
X162762620Y-53893596D01*
X162762627Y-53893598D01*
X162822155Y-53899999D01*
X162822172Y-53900000D01*
X163520000Y-53900000D01*
X163520000Y-52875277D01*
X163596306Y-52919333D01*
X163710756Y-52950000D01*
X163829244Y-52950000D01*
X163943694Y-52919333D01*
X164020000Y-52875277D01*
X164020000Y-53900000D01*
X164717828Y-53900000D01*
X164717844Y-53899999D01*
X164777372Y-53893598D01*
X164777379Y-53893596D01*
X164912086Y-53843354D01*
X164912093Y-53843350D01*
X165027187Y-53757190D01*
X165027190Y-53757187D01*
X165113350Y-53642093D01*
X165113354Y-53642086D01*
X165163596Y-53507379D01*
X165163598Y-53507372D01*
X165169999Y-53447844D01*
X165170000Y-53447827D01*
X165170000Y-52750000D01*
X164145278Y-52750000D01*
X164189333Y-52673694D01*
X164220000Y-52559244D01*
X164220000Y-52440756D01*
X164189333Y-52326306D01*
X164145278Y-52250000D01*
X165170000Y-52250000D01*
X165170000Y-51552172D01*
X165169999Y-51552155D01*
X165163598Y-51492627D01*
X165163596Y-51492620D01*
X165113354Y-51357913D01*
X165113350Y-51357906D01*
X165027190Y-51242812D01*
X165027187Y-51242809D01*
X164912093Y-51156649D01*
X164912086Y-51156645D01*
X164777379Y-51106403D01*
X164777372Y-51106401D01*
X164717844Y-51100000D01*
X164020000Y-51100000D01*
X164020000Y-52124722D01*
X163943694Y-52080667D01*
X163829244Y-52050000D01*
X163710756Y-52050000D01*
X163596306Y-52080667D01*
X163520000Y-52124722D01*
X163520000Y-51100000D01*
X162822155Y-51100000D01*
X162762627Y-51106401D01*
X162762620Y-51106403D01*
X162627913Y-51156645D01*
X162627906Y-51156649D01*
X162512812Y-51242809D01*
X162512809Y-51242812D01*
X162426649Y-51357906D01*
X162426643Y-51357918D01*
X162396785Y-51437969D01*
X162354914Y-51493903D01*
X162289449Y-51518319D01*
X162221176Y-51503467D01*
X162192923Y-51482316D01*
X162142363Y-51431756D01*
X162142358Y-51431752D01*
X161964025Y-51302187D01*
X161964024Y-51302186D01*
X161964022Y-51302185D01*
X161872424Y-51255513D01*
X161767606Y-51202104D01*
X161767603Y-51202103D01*
X161557952Y-51133985D01*
X161449086Y-51116742D01*
X161340222Y-51099500D01*
X161119778Y-51099500D01*
X161047201Y-51110995D01*
X160902047Y-51133985D01*
X160692396Y-51202103D01*
X160692393Y-51202104D01*
X160495974Y-51302187D01*
X160317641Y-51431752D01*
X160317636Y-51431756D01*
X160161756Y-51587636D01*
X160161752Y-51587641D01*
X160032185Y-51765976D01*
X159998648Y-51831796D01*
X159950674Y-51882591D01*
X159888164Y-51899500D01*
X158809602Y-51899500D01*
X158742563Y-51879815D01*
X158699117Y-51831795D01*
X158692284Y-51818385D01*
X158571971Y-51652786D01*
X158427213Y-51508028D01*
X158261613Y-51387715D01*
X158261612Y-51387714D01*
X158261610Y-51387713D01*
X158203111Y-51357906D01*
X158079223Y-51294781D01*
X157884534Y-51231522D01*
X157698799Y-51202105D01*
X157682352Y-51199500D01*
X157477648Y-51199500D01*
X157461201Y-51202105D01*
X157275465Y-51231522D01*
X157080776Y-51294781D01*
X156898386Y-51387715D01*
X156732786Y-51508028D01*
X156588028Y-51652786D01*
X156467715Y-51818386D01*
X156374781Y-52000776D01*
X156311522Y-52195465D01*
X156279500Y-52397648D01*
X148720500Y-52397648D01*
X148688477Y-52195465D01*
X148659127Y-52105137D01*
X148625220Y-52000781D01*
X148625218Y-52000778D01*
X148625218Y-52000776D01*
X148591503Y-51934607D01*
X148532287Y-51818390D01*
X148494208Y-51765978D01*
X148411971Y-51652786D01*
X148267213Y-51508028D01*
X148101613Y-51387715D01*
X148101612Y-51387714D01*
X148101610Y-51387713D01*
X148043111Y-51357906D01*
X147919223Y-51294781D01*
X147724534Y-51231522D01*
X147538799Y-51202105D01*
X147522352Y-51199500D01*
X147317648Y-51199500D01*
X147301201Y-51202105D01*
X147115465Y-51231522D01*
X146920776Y-51294781D01*
X146738386Y-51387715D01*
X146572786Y-51508028D01*
X146428028Y-51652786D01*
X146307715Y-51818385D01*
X146300883Y-51831795D01*
X146290433Y-51842859D01*
X146284111Y-51856703D01*
X146266931Y-51867743D01*
X146252909Y-51882591D01*
X146237227Y-51886832D01*
X146225333Y-51894477D01*
X146190398Y-51899500D01*
X146086669Y-51899500D01*
X146086653Y-51899499D01*
X146079057Y-51899499D01*
X145920943Y-51899499D01*
X145841010Y-51920917D01*
X145768216Y-51940422D01*
X145730159Y-51962395D01*
X145730158Y-51962394D01*
X145631287Y-52019477D01*
X145631282Y-52019481D01*
X142062181Y-55588583D01*
X142000858Y-55622068D01*
X141931166Y-55617084D01*
X141875233Y-55575212D01*
X141850816Y-55509748D01*
X141850500Y-55500902D01*
X141850500Y-55416232D01*
X141850499Y-55416228D01*
X141834126Y-55333914D01*
X141817816Y-55251918D01*
X141753703Y-55097137D01*
X141689815Y-55001522D01*
X141660626Y-54957837D01*
X141542162Y-54839373D01*
X141402860Y-54746295D01*
X141248082Y-54682184D01*
X141248074Y-54682182D01*
X141083771Y-54649500D01*
X141083767Y-54649500D01*
X141050097Y-54649500D01*
X140983058Y-54629815D01*
X140962416Y-54613181D01*
X138827590Y-52478355D01*
X138827588Y-52478352D01*
X138708717Y-52359481D01*
X138708716Y-52359480D01*
X138621904Y-52309360D01*
X138621904Y-52309359D01*
X138621900Y-52309358D01*
X138571785Y-52280423D01*
X138419057Y-52239499D01*
X138260943Y-52239499D01*
X138253347Y-52239499D01*
X138253331Y-52239500D01*
X136349602Y-52239500D01*
X136282563Y-52219815D01*
X136239117Y-52171795D01*
X136232284Y-52158385D01*
X136111971Y-51992786D01*
X135967213Y-51848028D01*
X135801611Y-51727713D01*
X135708369Y-51680203D01*
X135657574Y-51632229D01*
X135640779Y-51564407D01*
X135663317Y-51498273D01*
X135708371Y-51459234D01*
X135801346Y-51411861D01*
X135801347Y-51411861D01*
X135845921Y-51379474D01*
X135166447Y-50700000D01*
X135172661Y-50700000D01*
X135274394Y-50672741D01*
X135365606Y-50620080D01*
X135440080Y-50545606D01*
X135492741Y-50454394D01*
X135520000Y-50352661D01*
X135520000Y-50346448D01*
X136199474Y-51025922D01*
X136199474Y-51025921D01*
X136231859Y-50981349D01*
X136324755Y-50799031D01*
X136387990Y-50604417D01*
X136420000Y-50402317D01*
X136420000Y-50197682D01*
X136387990Y-49995582D01*
X136324755Y-49800968D01*
X136231859Y-49618650D01*
X136199474Y-49574077D01*
X136199474Y-49574076D01*
X135520000Y-50253551D01*
X135520000Y-50247339D01*
X135492741Y-50145606D01*
X135440080Y-50054394D01*
X135365606Y-49979920D01*
X135274394Y-49927259D01*
X135172661Y-49900000D01*
X135166446Y-49900000D01*
X135845922Y-49220524D01*
X135845921Y-49220523D01*
X135801359Y-49188147D01*
X135801350Y-49188141D01*
X135619031Y-49095244D01*
X135424417Y-49032009D01*
X135222317Y-49000000D01*
X135017683Y-49000000D01*
X134815582Y-49032009D01*
X134620968Y-49095244D01*
X134438644Y-49188143D01*
X134394077Y-49220523D01*
X134394077Y-49220524D01*
X135073554Y-49900000D01*
X135067339Y-49900000D01*
X134965606Y-49927259D01*
X134874394Y-49979920D01*
X134799920Y-50054394D01*
X134747259Y-50145606D01*
X134720000Y-50247339D01*
X134720000Y-50253553D01*
X134040524Y-49574077D01*
X134040523Y-49574077D01*
X134008143Y-49618644D01*
X133915244Y-49800968D01*
X133852009Y-49995582D01*
X133820000Y-50197682D01*
X133820000Y-50402317D01*
X133852009Y-50604417D01*
X133915244Y-50799031D01*
X134008141Y-50981350D01*
X134008147Y-50981359D01*
X134040523Y-51025921D01*
X134040524Y-51025922D01*
X134720000Y-50346446D01*
X134720000Y-50352661D01*
X134747259Y-50454394D01*
X134799920Y-50545606D01*
X134874394Y-50620080D01*
X134965606Y-50672741D01*
X135067339Y-50700000D01*
X135073553Y-50700000D01*
X134394076Y-51379474D01*
X134438652Y-51411861D01*
X134531628Y-51459234D01*
X134582425Y-51507208D01*
X134599220Y-51575029D01*
X134576683Y-51641164D01*
X134531630Y-51680203D01*
X134438388Y-51727713D01*
X134272786Y-51848028D01*
X134128028Y-51992786D01*
X134007715Y-52158386D01*
X133914781Y-52340776D01*
X133851522Y-52535465D01*
X133819500Y-52737648D01*
X133819500Y-52942351D01*
X133851522Y-53144534D01*
X133914781Y-53339223D01*
X133970127Y-53447844D01*
X134006379Y-53518992D01*
X134007715Y-53521613D01*
X134128028Y-53687213D01*
X134272786Y-53831971D01*
X134427749Y-53944556D01*
X134438390Y-53952287D01*
X134529840Y-53998883D01*
X134531080Y-53999515D01*
X134581876Y-54047490D01*
X134598671Y-54115311D01*
X134576134Y-54181446D01*
X134531080Y-54220485D01*
X134438386Y-54267715D01*
X134272786Y-54388028D01*
X134128028Y-54532786D01*
X134007715Y-54698386D01*
X133914781Y-54880776D01*
X133851522Y-55075465D01*
X133819500Y-55277648D01*
X133819500Y-55482351D01*
X133851522Y-55684534D01*
X133914781Y-55879223D01*
X133958725Y-55965466D01*
X133988750Y-56024394D01*
X134007715Y-56061613D01*
X134128028Y-56227213D01*
X134272786Y-56371971D01*
X134374817Y-56446099D01*
X134438390Y-56492287D01*
X134529840Y-56538883D01*
X134531080Y-56539515D01*
X134581876Y-56587490D01*
X134598671Y-56655311D01*
X134576134Y-56721446D01*
X134531080Y-56760485D01*
X134438386Y-56807715D01*
X134272786Y-56928028D01*
X134128028Y-57072786D01*
X134007715Y-57238386D01*
X133914781Y-57420776D01*
X133851522Y-57615465D01*
X133819500Y-57817648D01*
X133819500Y-58022351D01*
X133851522Y-58224534D01*
X133914781Y-58419223D01*
X133970475Y-58528527D01*
X134007147Y-58600500D01*
X134007715Y-58601613D01*
X134128028Y-58767213D01*
X134272786Y-58911971D01*
X134425208Y-59022710D01*
X134438390Y-59032287D01*
X134529840Y-59078883D01*
X134531080Y-59079515D01*
X134581876Y-59127490D01*
X134598671Y-59195311D01*
X134576134Y-59261446D01*
X134531080Y-59300485D01*
X134438386Y-59347715D01*
X134272786Y-59468028D01*
X134128028Y-59612786D01*
X134007715Y-59778386D01*
X133914781Y-59960776D01*
X133851523Y-60155464D01*
X133842172Y-60214501D01*
X133812242Y-60277636D01*
X133752930Y-60314566D01*
X133683067Y-60313568D01*
X133632018Y-60282783D01*
X130136819Y-56787584D01*
X130103334Y-56726261D01*
X130100500Y-56699903D01*
X130100500Y-54760945D01*
X130100500Y-54760943D01*
X130059577Y-54608216D01*
X130059577Y-54608215D01*
X130005243Y-54514106D01*
X129980520Y-54471284D01*
X129868716Y-54359480D01*
X129864385Y-54355149D01*
X129864374Y-54355139D01*
X128794077Y-53284842D01*
X128760592Y-53223519D01*
X128763828Y-53158841D01*
X128768477Y-53144534D01*
X128800500Y-52942352D01*
X128800500Y-52737648D01*
X128768477Y-52535466D01*
X128705220Y-52340781D01*
X128705218Y-52340778D01*
X128705218Y-52340776D01*
X128671503Y-52274607D01*
X128612287Y-52158390D01*
X128592595Y-52131286D01*
X128491971Y-51992786D01*
X128347213Y-51848028D01*
X128181614Y-51727715D01*
X128175006Y-51724348D01*
X128088917Y-51680483D01*
X128038123Y-51632511D01*
X128021328Y-51564690D01*
X128043865Y-51498555D01*
X128088917Y-51459516D01*
X128181610Y-51412287D01*
X128215431Y-51387715D01*
X128347213Y-51291971D01*
X128347215Y-51291968D01*
X128347219Y-51291966D01*
X128491966Y-51147219D01*
X128491968Y-51147215D01*
X128491971Y-51147213D01*
X128544732Y-51074590D01*
X128612287Y-50981610D01*
X128705220Y-50799219D01*
X128768477Y-50604534D01*
X128800500Y-50402352D01*
X128800500Y-50197648D01*
X128783145Y-50088074D01*
X128768477Y-49995465D01*
X128716078Y-49834199D01*
X128705220Y-49800781D01*
X128705218Y-49800778D01*
X128705218Y-49800776D01*
X128671503Y-49734607D01*
X128612287Y-49618390D01*
X128593054Y-49591918D01*
X128491971Y-49452786D01*
X128347213Y-49308028D01*
X128181613Y-49187715D01*
X128181612Y-49187714D01*
X128181610Y-49187713D01*
X128124653Y-49158691D01*
X127999223Y-49094781D01*
X127804534Y-49031522D01*
X127629995Y-49003878D01*
X127602352Y-48999500D01*
X127397648Y-48999500D01*
X127373329Y-49003351D01*
X127195465Y-49031522D01*
X127000776Y-49094781D01*
X126818386Y-49187715D01*
X126652786Y-49308028D01*
X126508028Y-49452786D01*
X126387715Y-49618386D01*
X126294781Y-49800776D01*
X126231522Y-49995465D01*
X126199500Y-50197648D01*
X126199500Y-50402352D01*
X126203878Y-50429995D01*
X126231522Y-50604534D01*
X126294781Y-50799223D01*
X126353825Y-50915102D01*
X126387585Y-50981359D01*
X126387715Y-50981613D01*
X126508028Y-51147213D01*
X126652786Y-51291971D01*
X126784569Y-51387715D01*
X126818390Y-51412287D01*
X126909840Y-51458883D01*
X126911080Y-51459515D01*
X126961876Y-51507490D01*
X126978671Y-51575311D01*
X126956134Y-51641446D01*
X126911080Y-51680485D01*
X126818386Y-51727715D01*
X126652786Y-51848028D01*
X126508028Y-51992786D01*
X126387715Y-52158386D01*
X126294781Y-52340776D01*
X126231522Y-52535465D01*
X126199500Y-52737648D01*
X126199500Y-52942351D01*
X126231522Y-53144534D01*
X126294781Y-53339223D01*
X126350127Y-53447844D01*
X126386379Y-53518992D01*
X126387715Y-53521613D01*
X126508028Y-53687213D01*
X126652786Y-53831971D01*
X126807749Y-53944556D01*
X126818390Y-53952287D01*
X126909840Y-53998883D01*
X126911080Y-53999515D01*
X126961876Y-54047490D01*
X126978671Y-54115311D01*
X126956134Y-54181446D01*
X126911080Y-54220485D01*
X126818386Y-54267715D01*
X126652786Y-54388028D01*
X126508028Y-54532786D01*
X126387715Y-54698386D01*
X126294781Y-54880776D01*
X126231522Y-55075465D01*
X126199500Y-55277648D01*
X126199500Y-55482351D01*
X126231522Y-55684534D01*
X126294781Y-55879223D01*
X126338725Y-55965466D01*
X126368750Y-56024394D01*
X126387715Y-56061613D01*
X126508028Y-56227213D01*
X126652786Y-56371971D01*
X126754817Y-56446099D01*
X126818390Y-56492287D01*
X126909840Y-56538883D01*
X126911080Y-56539515D01*
X126961876Y-56587490D01*
X126978671Y-56655311D01*
X126956134Y-56721446D01*
X126911080Y-56760485D01*
X126818386Y-56807715D01*
X126652786Y-56928028D01*
X126508028Y-57072786D01*
X126387715Y-57238386D01*
X126294781Y-57420776D01*
X126231522Y-57615465D01*
X126199500Y-57817648D01*
X126199500Y-58022351D01*
X126231522Y-58224534D01*
X126294781Y-58419223D01*
X126350475Y-58528527D01*
X126387147Y-58600500D01*
X126387715Y-58601613D01*
X126508028Y-58767213D01*
X126652786Y-58911971D01*
X126818385Y-59032284D01*
X126818387Y-59032285D01*
X126818390Y-59032287D01*
X126911080Y-59079515D01*
X126911630Y-59079795D01*
X126962426Y-59127770D01*
X126979221Y-59195591D01*
X126956684Y-59261725D01*
X126911630Y-59300765D01*
X126818644Y-59348143D01*
X126774077Y-59380523D01*
X126774077Y-59380524D01*
X127453554Y-60060000D01*
X127447339Y-60060000D01*
X127345606Y-60087259D01*
X127254394Y-60139920D01*
X127179920Y-60214394D01*
X127127259Y-60305606D01*
X127100000Y-60407339D01*
X127100000Y-60413553D01*
X126420524Y-59734077D01*
X126420523Y-59734077D01*
X126388143Y-59778644D01*
X126295244Y-59960968D01*
X126232009Y-60155582D01*
X126200000Y-60357682D01*
X126200000Y-60562317D01*
X126232009Y-60764417D01*
X126295244Y-60959031D01*
X126388141Y-61141350D01*
X126388147Y-61141359D01*
X126420523Y-61185921D01*
X126420524Y-61185922D01*
X127100000Y-60506446D01*
X127100000Y-60512661D01*
X127127259Y-60614394D01*
X127179920Y-60705606D01*
X127254394Y-60780080D01*
X127345606Y-60832741D01*
X127447339Y-60860000D01*
X127453553Y-60860000D01*
X126774076Y-61539474D01*
X126818652Y-61571861D01*
X126911628Y-61619234D01*
X126962425Y-61667208D01*
X126979220Y-61735029D01*
X126956683Y-61801164D01*
X126911630Y-61840203D01*
X126818388Y-61887713D01*
X126652786Y-62008028D01*
X126508028Y-62152786D01*
X126387715Y-62318386D01*
X126294781Y-62500776D01*
X126231522Y-62695465D01*
X126201074Y-62887713D01*
X126199500Y-62897648D01*
X126199500Y-63102352D01*
X126212123Y-63182047D01*
X126231523Y-63304535D01*
X126236172Y-63318845D01*
X126238165Y-63388687D01*
X126205921Y-63444841D01*
X124151584Y-65499181D01*
X124090261Y-65532666D01*
X124063903Y-65535500D01*
X112386097Y-65535500D01*
X112319058Y-65515815D01*
X112298416Y-65499181D01*
X108594077Y-61794842D01*
X108560592Y-61733519D01*
X108563828Y-61668841D01*
X108564359Y-61667208D01*
X108568477Y-61654534D01*
X108600500Y-61452352D01*
X108600500Y-61247648D01*
X108573238Y-61075523D01*
X108568477Y-61045465D01*
X108505218Y-60850776D01*
X108461215Y-60764417D01*
X108412287Y-60668390D01*
X108373057Y-60614394D01*
X108291971Y-60502786D01*
X108147213Y-60358028D01*
X107981614Y-60237715D01*
X107899969Y-60196115D01*
X107888917Y-60190483D01*
X107838123Y-60142511D01*
X107821328Y-60074690D01*
X107843865Y-60008555D01*
X107888917Y-59969516D01*
X107981610Y-59922287D01*
X108068030Y-59859500D01*
X108147213Y-59801971D01*
X108147215Y-59801968D01*
X108147219Y-59801966D01*
X108291966Y-59657219D01*
X108361425Y-59561615D01*
X108416755Y-59518949D01*
X108461744Y-59510500D01*
X112038481Y-59510500D01*
X112105520Y-59530185D01*
X112126162Y-59546819D01*
X112865743Y-60286400D01*
X113603194Y-61023850D01*
X113636679Y-61085173D01*
X113637986Y-61130929D01*
X113619500Y-61247642D01*
X113619500Y-61452351D01*
X113651522Y-61654534D01*
X113714781Y-61849223D01*
X113767303Y-61952302D01*
X113795700Y-62008034D01*
X113807715Y-62031613D01*
X113928028Y-62197213D01*
X114072786Y-62341971D01*
X114185971Y-62424203D01*
X114238390Y-62462287D01*
X114314989Y-62501316D01*
X114331080Y-62509515D01*
X114381876Y-62557490D01*
X114398671Y-62625311D01*
X114376134Y-62691446D01*
X114331080Y-62730485D01*
X114238386Y-62777715D01*
X114072786Y-62898028D01*
X113928028Y-63042786D01*
X113807715Y-63208386D01*
X113714781Y-63390776D01*
X113651522Y-63585465D01*
X113619500Y-63787648D01*
X113619500Y-63992351D01*
X113651522Y-64194534D01*
X113714781Y-64389223D01*
X113766385Y-64490500D01*
X113795700Y-64548034D01*
X113807715Y-64571613D01*
X113928028Y-64737213D01*
X114072786Y-64881971D01*
X114213492Y-64984198D01*
X114238390Y-65002287D01*
X114313929Y-65040776D01*
X114420776Y-65095218D01*
X114420778Y-65095218D01*
X114420781Y-65095220D01*
X114473299Y-65112284D01*
X114615465Y-65158477D01*
X114670912Y-65167259D01*
X114817648Y-65190500D01*
X114817649Y-65190500D01*
X115022351Y-65190500D01*
X115022352Y-65190500D01*
X115224534Y-65158477D01*
X115419219Y-65095220D01*
X115601610Y-65002287D01*
X115725388Y-64912358D01*
X115767213Y-64881971D01*
X115767215Y-64881968D01*
X115767219Y-64881966D01*
X115911966Y-64737219D01*
X115911968Y-64737215D01*
X115911971Y-64737213D01*
X116032284Y-64571614D01*
X116032285Y-64571613D01*
X116032287Y-64571610D01*
X116039117Y-64558204D01*
X116087091Y-64507409D01*
X116149602Y-64490500D01*
X117258331Y-64490500D01*
X117258347Y-64490501D01*
X117265943Y-64490501D01*
X117424054Y-64490501D01*
X117424057Y-64490501D01*
X117576785Y-64449577D01*
X117626904Y-64420639D01*
X117713716Y-64370520D01*
X117825520Y-64258716D01*
X117825520Y-64258714D01*
X117835728Y-64248507D01*
X117835730Y-64248504D01*
X118244138Y-63840095D01*
X118305459Y-63806612D01*
X118344421Y-63804420D01*
X118354991Y-63805500D01*
X118955008Y-63805499D01*
X118955016Y-63805498D01*
X118955019Y-63805498D01*
X119017680Y-63799097D01*
X119057797Y-63794999D01*
X119224334Y-63739814D01*
X119373656Y-63647712D01*
X119497712Y-63523656D01*
X119499752Y-63520347D01*
X119501745Y-63518555D01*
X119502193Y-63517989D01*
X119502289Y-63518065D01*
X119551694Y-63473623D01*
X119620656Y-63462395D01*
X119684740Y-63490234D01*
X119710829Y-63520339D01*
X119712681Y-63523341D01*
X119712683Y-63523344D01*
X119836654Y-63647315D01*
X119985875Y-63739356D01*
X119985880Y-63739358D01*
X120152302Y-63794505D01*
X120152309Y-63794506D01*
X120255019Y-63804999D01*
X120805000Y-63804999D01*
X120854972Y-63804999D01*
X120854986Y-63804998D01*
X120957697Y-63794505D01*
X121124119Y-63739358D01*
X121124124Y-63739356D01*
X121273345Y-63647315D01*
X121397315Y-63523345D01*
X121489356Y-63374124D01*
X121489358Y-63374119D01*
X121544505Y-63207697D01*
X121544506Y-63207690D01*
X121554999Y-63104986D01*
X121555000Y-63104973D01*
X121555000Y-62830000D01*
X120805000Y-62830000D01*
X120805000Y-63804999D01*
X120255019Y-63804999D01*
X120304999Y-63804998D01*
X120305000Y-63804998D01*
X120305000Y-62330000D01*
X120805000Y-62330000D01*
X121554999Y-62330000D01*
X121554999Y-62055028D01*
X121554998Y-62055013D01*
X121544505Y-61952302D01*
X121489358Y-61785880D01*
X121489356Y-61785875D01*
X121397315Y-61636654D01*
X121273345Y-61512684D01*
X121124124Y-61420643D01*
X121124119Y-61420641D01*
X120957697Y-61365494D01*
X120957690Y-61365493D01*
X120854986Y-61355000D01*
X120805000Y-61355000D01*
X120805000Y-62330000D01*
X120305000Y-62330000D01*
X120305000Y-61355000D01*
X120304999Y-61354999D01*
X120255029Y-61355000D01*
X120255011Y-61355001D01*
X120152302Y-61365494D01*
X119985880Y-61420641D01*
X119985875Y-61420643D01*
X119836654Y-61512684D01*
X119712683Y-61636655D01*
X119712679Y-61636660D01*
X119710826Y-61639665D01*
X119709018Y-61641290D01*
X119708202Y-61642323D01*
X119708025Y-61642183D01*
X119658874Y-61686385D01*
X119589911Y-61697601D01*
X119525831Y-61669752D01*
X119499753Y-61639653D01*
X119499737Y-61639628D01*
X119497712Y-61636344D01*
X119373656Y-61512288D01*
X119224334Y-61420186D01*
X119057797Y-61365001D01*
X119057795Y-61365000D01*
X118955010Y-61354500D01*
X118354998Y-61354500D01*
X118354980Y-61354501D01*
X118252203Y-61365000D01*
X118252200Y-61365001D01*
X118085668Y-61420185D01*
X118085663Y-61420187D01*
X117936342Y-61512289D01*
X117812289Y-61636342D01*
X117720187Y-61785663D01*
X117720185Y-61785668D01*
X117699125Y-61849223D01*
X117665001Y-61952203D01*
X117665001Y-61952204D01*
X117665000Y-61952204D01*
X117654500Y-62054983D01*
X117654500Y-62679901D01*
X117634815Y-62746940D01*
X117618181Y-62767582D01*
X117132584Y-63253181D01*
X117071261Y-63286666D01*
X117044903Y-63289500D01*
X116149602Y-63289500D01*
X116082563Y-63269815D01*
X116039117Y-63221795D01*
X116032284Y-63208385D01*
X115911971Y-63042786D01*
X115767213Y-62898028D01*
X115601614Y-62777715D01*
X115566165Y-62759653D01*
X115508917Y-62730483D01*
X115458123Y-62682511D01*
X115441328Y-62614690D01*
X115463865Y-62548555D01*
X115508917Y-62509516D01*
X115601610Y-62462287D01*
X115767219Y-62341966D01*
X115880320Y-62228864D01*
X115941639Y-62195382D01*
X116011331Y-62200366D01*
X116036886Y-62213444D01*
X116097137Y-62253703D01*
X116251918Y-62317816D01*
X116416228Y-62350499D01*
X116416232Y-62350500D01*
X116416233Y-62350500D01*
X116583768Y-62350500D01*
X116583769Y-62350499D01*
X116748082Y-62317816D01*
X116902863Y-62253703D01*
X117042162Y-62160626D01*
X117160626Y-62042162D01*
X117253703Y-61902863D01*
X117317816Y-61748082D01*
X117350500Y-61583767D01*
X117350500Y-61416233D01*
X117317816Y-61251918D01*
X117253703Y-61097137D01*
X117201879Y-61019577D01*
X117160626Y-60957837D01*
X117136819Y-60934030D01*
X117103334Y-60872707D01*
X117100500Y-60846349D01*
X117100500Y-60366530D01*
X117103710Y-60355595D01*
X117102516Y-60344259D01*
X117113378Y-60322672D01*
X117120185Y-60299491D01*
X117129609Y-60290416D01*
X117133922Y-60281845D01*
X117150256Y-60270534D01*
X117161449Y-60259756D01*
X117168964Y-60255317D01*
X117172863Y-60253703D01*
X117231343Y-60214627D01*
X117276039Y-60196115D01*
X117304342Y-60190485D01*
X117389328Y-60173580D01*
X117458858Y-60144780D01*
X117516807Y-60120777D01*
X117516808Y-60120776D01*
X117516811Y-60120775D01*
X117631543Y-60044114D01*
X118458838Y-59216817D01*
X118520161Y-59183333D01*
X118546519Y-59180499D01*
X119005002Y-59180499D01*
X119005008Y-59180499D01*
X119107797Y-59169999D01*
X119274334Y-59114814D01*
X119423656Y-59022712D01*
X119430079Y-59016289D01*
X120022261Y-59016289D01*
X120022262Y-59016290D01*
X120028471Y-59020801D01*
X120182742Y-59099408D01*
X120347415Y-59152914D01*
X120518429Y-59180000D01*
X120691571Y-59180000D01*
X120862584Y-59152914D01*
X121027257Y-59099408D01*
X121181525Y-59020803D01*
X121187736Y-59016289D01*
X121187737Y-59016289D01*
X120605001Y-58433553D01*
X120605000Y-58433553D01*
X120022261Y-59016289D01*
X119430079Y-59016289D01*
X119547712Y-58898656D01*
X119639814Y-58749334D01*
X119659167Y-58690930D01*
X119689191Y-58642254D01*
X120251446Y-58080000D01*
X120251446Y-58079999D01*
X120211951Y-58040504D01*
X120305000Y-58040504D01*
X120305000Y-58119496D01*
X120325444Y-58195796D01*
X120364940Y-58264205D01*
X120420795Y-58320060D01*
X120489204Y-58359556D01*
X120565504Y-58380000D01*
X120644496Y-58380000D01*
X120720796Y-58359556D01*
X120789205Y-58320060D01*
X120845060Y-58264205D01*
X120884556Y-58195796D01*
X120905000Y-58119496D01*
X120905000Y-58079999D01*
X120958553Y-58079999D01*
X120958553Y-58080000D01*
X121541289Y-58662736D01*
X121545803Y-58656525D01*
X121624408Y-58502257D01*
X121677914Y-58337584D01*
X121705000Y-58166571D01*
X121705000Y-57993428D01*
X121677914Y-57822415D01*
X121624408Y-57657742D01*
X121545801Y-57503471D01*
X121541290Y-57497262D01*
X121541289Y-57497261D01*
X120958553Y-58079999D01*
X120905000Y-58079999D01*
X120905000Y-58040504D01*
X120884556Y-57964204D01*
X120845060Y-57895795D01*
X120789205Y-57839940D01*
X120720796Y-57800444D01*
X120644496Y-57780000D01*
X120565504Y-57780000D01*
X120489204Y-57800444D01*
X120420795Y-57839940D01*
X120364940Y-57895795D01*
X120325444Y-57964204D01*
X120305000Y-58040504D01*
X120211951Y-58040504D01*
X119689190Y-57517743D01*
X119659166Y-57469066D01*
X119639814Y-57410666D01*
X119547712Y-57261344D01*
X119430076Y-57143708D01*
X120022261Y-57143708D01*
X120022261Y-57143709D01*
X120605000Y-57726446D01*
X120605001Y-57726446D01*
X121187737Y-57143709D01*
X121181525Y-57139196D01*
X121027259Y-57060592D01*
X120862584Y-57007085D01*
X120691571Y-56980000D01*
X120518429Y-56980000D01*
X120347415Y-57007085D01*
X120182740Y-57060592D01*
X120028480Y-57139193D01*
X120028463Y-57139203D01*
X120022261Y-57143708D01*
X119430076Y-57143708D01*
X119423656Y-57137288D01*
X119274334Y-57045186D01*
X119107797Y-56990001D01*
X119107795Y-56990000D01*
X119005010Y-56979500D01*
X118204998Y-56979500D01*
X118204980Y-56979501D01*
X118102203Y-56990000D01*
X118102200Y-56990001D01*
X117935668Y-57045185D01*
X117935663Y-57045187D01*
X117786342Y-57137289D01*
X117662289Y-57261342D01*
X117570187Y-57410663D01*
X117570185Y-57410668D01*
X117544696Y-57487590D01*
X117515001Y-57577203D01*
X117515001Y-57577204D01*
X117515000Y-57577204D01*
X117504500Y-57679983D01*
X117504500Y-58138480D01*
X117484815Y-58205519D01*
X117468181Y-58226161D01*
X117060007Y-58634334D01*
X116998684Y-58667819D01*
X116948135Y-58668270D01*
X116853771Y-58649500D01*
X116853767Y-58649500D01*
X116686233Y-58649500D01*
X116686228Y-58649500D01*
X116521925Y-58682182D01*
X116521917Y-58682184D01*
X116380592Y-58740723D01*
X116311122Y-58748192D01*
X116248643Y-58716917D01*
X116212991Y-58656828D01*
X116210666Y-58645560D01*
X116188477Y-58505465D01*
X116159127Y-58415137D01*
X116125220Y-58310781D01*
X116125218Y-58310778D01*
X116125218Y-58310776D01*
X116063284Y-58189225D01*
X116032287Y-58128390D01*
X116013623Y-58102701D01*
X115911971Y-57962786D01*
X115767213Y-57818028D01*
X115601614Y-57697715D01*
X115594884Y-57694286D01*
X115508917Y-57650483D01*
X115458123Y-57602511D01*
X115441328Y-57534690D01*
X115463865Y-57468555D01*
X115508917Y-57429516D01*
X115601610Y-57382287D01*
X115622770Y-57366913D01*
X115767213Y-57261971D01*
X115767220Y-57261965D01*
X115797400Y-57231785D01*
X115911966Y-57117219D01*
X115911968Y-57117215D01*
X115911971Y-57117213D01*
X115994611Y-57003467D01*
X116032287Y-56951610D01*
X116125220Y-56769219D01*
X116188477Y-56574534D01*
X116220500Y-56372352D01*
X116220500Y-56167648D01*
X116203706Y-56061614D01*
X116188477Y-55965465D01*
X116125218Y-55770776D01*
X116081275Y-55684534D01*
X116032287Y-55588390D01*
X116016966Y-55567302D01*
X115911971Y-55422786D01*
X115767213Y-55278028D01*
X115601613Y-55157715D01*
X115601612Y-55157714D01*
X115601610Y-55157713D01*
X115542675Y-55127684D01*
X115419223Y-55064781D01*
X115224534Y-55001522D01*
X115049995Y-54973878D01*
X115022352Y-54969500D01*
X114817648Y-54969500D01*
X114793329Y-54973351D01*
X114615465Y-55001522D01*
X114420776Y-55064781D01*
X114238386Y-55157715D01*
X114072786Y-55278028D01*
X114072782Y-55278032D01*
X114072181Y-55278634D01*
X114071896Y-55278789D01*
X114069085Y-55281191D01*
X114068580Y-55280600D01*
X114010858Y-55312119D01*
X113941166Y-55307135D01*
X113885233Y-55265263D01*
X113860816Y-55199799D01*
X113860500Y-55190953D01*
X113860500Y-50360101D01*
X113863519Y-50347377D01*
X113862514Y-50337846D01*
X113870410Y-50318345D01*
X113873725Y-50304379D01*
X113877154Y-50297560D01*
X113913703Y-50242863D01*
X113977816Y-50088082D01*
X114010500Y-49923767D01*
X114010500Y-49756233D01*
X113977816Y-49591918D01*
X113913703Y-49437137D01*
X113827435Y-49308028D01*
X113820626Y-49297837D01*
X113702162Y-49179373D01*
X113562860Y-49086295D01*
X113408082Y-49022184D01*
X113408075Y-49022182D01*
X113401269Y-49020828D01*
X113339360Y-48988440D01*
X113304789Y-48927722D01*
X113308532Y-48857953D01*
X113349402Y-48801283D01*
X113406066Y-48776740D01*
X113445801Y-48770447D01*
X113628509Y-48711082D01*
X113799681Y-48623865D01*
X113955102Y-48510945D01*
X114090945Y-48375102D01*
X114203865Y-48219681D01*
X114291082Y-48048509D01*
X114350447Y-47865801D01*
X114380500Y-47676055D01*
X114380500Y-47483945D01*
X114350447Y-47294199D01*
X114291082Y-47111491D01*
X114203865Y-46940319D01*
X114172863Y-46897648D01*
X146119500Y-46897648D01*
X146119500Y-47102352D01*
X146120948Y-47111493D01*
X146151522Y-47304534D01*
X146214781Y-47499223D01*
X146266385Y-47600500D01*
X146300882Y-47668204D01*
X146307715Y-47681613D01*
X146428028Y-47847213D01*
X146572786Y-47991971D01*
X146727749Y-48104556D01*
X146738390Y-48112287D01*
X146854607Y-48171503D01*
X146920776Y-48205218D01*
X146920778Y-48205218D01*
X146920781Y-48205220D01*
X147025137Y-48239127D01*
X147115465Y-48268477D01*
X147216557Y-48284488D01*
X147317648Y-48300500D01*
X147317649Y-48300500D01*
X147522351Y-48300500D01*
X147522352Y-48300500D01*
X147724534Y-48268477D01*
X147919219Y-48205220D01*
X148101610Y-48112287D01*
X148246005Y-48007379D01*
X148267213Y-47991971D01*
X148267215Y-47991968D01*
X148267219Y-47991966D01*
X148411966Y-47847219D01*
X148411968Y-47847215D01*
X148411971Y-47847213D01*
X148494207Y-47734023D01*
X148532287Y-47681610D01*
X148625220Y-47499219D01*
X148688477Y-47304534D01*
X148720500Y-47102352D01*
X148720500Y-46897648D01*
X156279500Y-46897648D01*
X156279500Y-47102352D01*
X156280948Y-47111493D01*
X156311522Y-47304534D01*
X156374781Y-47499223D01*
X156426385Y-47600500D01*
X156460882Y-47668204D01*
X156467715Y-47681613D01*
X156588028Y-47847213D01*
X156732786Y-47991971D01*
X156887749Y-48104556D01*
X156898390Y-48112287D01*
X157014607Y-48171503D01*
X157080776Y-48205218D01*
X157080778Y-48205218D01*
X157080781Y-48205220D01*
X157185137Y-48239127D01*
X157275465Y-48268477D01*
X157376557Y-48284488D01*
X157477648Y-48300500D01*
X157477649Y-48300500D01*
X157682351Y-48300500D01*
X157682352Y-48300500D01*
X157884534Y-48268477D01*
X158079219Y-48205220D01*
X158261610Y-48112287D01*
X158406005Y-48007379D01*
X158427213Y-47991971D01*
X158427215Y-47991968D01*
X158427219Y-47991966D01*
X158571966Y-47847219D01*
X158571968Y-47847215D01*
X158571971Y-47847213D01*
X158692284Y-47681614D01*
X158692285Y-47681613D01*
X158692287Y-47681610D01*
X158699117Y-47668204D01*
X158747091Y-47617409D01*
X158809602Y-47600500D01*
X159888164Y-47600500D01*
X159955203Y-47620185D01*
X159998648Y-47668204D01*
X160032185Y-47734023D01*
X160161752Y-47912358D01*
X160161756Y-47912363D01*
X160317636Y-48068243D01*
X160317641Y-48068247D01*
X160473192Y-48181260D01*
X160495978Y-48197815D01*
X160612501Y-48257187D01*
X160692393Y-48297895D01*
X160692396Y-48297896D01*
X160797221Y-48331955D01*
X160902049Y-48366015D01*
X161119778Y-48400500D01*
X161119779Y-48400500D01*
X161340221Y-48400500D01*
X161340222Y-48400500D01*
X161557951Y-48366015D01*
X161767606Y-48297895D01*
X161964022Y-48197815D01*
X162142365Y-48068242D01*
X162192924Y-48017682D01*
X162254245Y-47984198D01*
X162323936Y-47989182D01*
X162379870Y-48031053D01*
X162396786Y-48062030D01*
X162426646Y-48142087D01*
X162426649Y-48142093D01*
X162512809Y-48257187D01*
X162512812Y-48257190D01*
X162627906Y-48343350D01*
X162627913Y-48343354D01*
X162762620Y-48393596D01*
X162762627Y-48393598D01*
X162822155Y-48399999D01*
X162822172Y-48400000D01*
X163520000Y-48400000D01*
X163520000Y-47375277D01*
X163596306Y-47419333D01*
X163710756Y-47450000D01*
X163829244Y-47450000D01*
X163943694Y-47419333D01*
X164020000Y-47375277D01*
X164020000Y-48400000D01*
X164717828Y-48400000D01*
X164717844Y-48399999D01*
X164777372Y-48393598D01*
X164777379Y-48393596D01*
X164912086Y-48343354D01*
X164912093Y-48343350D01*
X165027187Y-48257190D01*
X165027190Y-48257187D01*
X165113350Y-48142093D01*
X165113354Y-48142086D01*
X165163596Y-48007379D01*
X165163598Y-48007372D01*
X165169999Y-47947844D01*
X165170000Y-47947827D01*
X165170000Y-47250000D01*
X164145278Y-47250000D01*
X164189333Y-47173694D01*
X164220000Y-47059244D01*
X164220000Y-46940756D01*
X164189333Y-46826306D01*
X164145278Y-46750000D01*
X165170000Y-46750000D01*
X165170000Y-46052172D01*
X165169999Y-46052155D01*
X165163598Y-45992627D01*
X165163596Y-45992620D01*
X165113354Y-45857913D01*
X165113350Y-45857906D01*
X165027190Y-45742812D01*
X165027187Y-45742809D01*
X164912093Y-45656649D01*
X164912086Y-45656645D01*
X164777379Y-45606403D01*
X164777372Y-45606401D01*
X164717844Y-45600000D01*
X164020000Y-45600000D01*
X164020000Y-46624722D01*
X163943694Y-46580667D01*
X163829244Y-46550000D01*
X163710756Y-46550000D01*
X163596306Y-46580667D01*
X163520000Y-46624722D01*
X163520000Y-45600000D01*
X162822155Y-45600000D01*
X162762627Y-45606401D01*
X162762620Y-45606403D01*
X162627913Y-45656645D01*
X162627906Y-45656649D01*
X162512812Y-45742809D01*
X162512809Y-45742812D01*
X162426649Y-45857906D01*
X162426643Y-45857918D01*
X162396785Y-45937969D01*
X162354914Y-45993903D01*
X162289449Y-46018319D01*
X162221176Y-46003467D01*
X162192923Y-45982316D01*
X162142363Y-45931756D01*
X162142358Y-45931752D01*
X161964025Y-45802187D01*
X161964024Y-45802186D01*
X161964022Y-45802185D01*
X161901096Y-45770122D01*
X161767606Y-45702104D01*
X161767603Y-45702103D01*
X161557952Y-45633985D01*
X161449086Y-45616742D01*
X161340222Y-45599500D01*
X161119778Y-45599500D01*
X161047201Y-45610995D01*
X160902047Y-45633985D01*
X160692396Y-45702103D01*
X160692393Y-45702104D01*
X160495974Y-45802187D01*
X160317641Y-45931752D01*
X160317636Y-45931756D01*
X160161756Y-46087636D01*
X160161752Y-46087641D01*
X160032185Y-46265976D01*
X159998648Y-46331796D01*
X159950674Y-46382591D01*
X159888164Y-46399500D01*
X158809602Y-46399500D01*
X158742563Y-46379815D01*
X158699117Y-46331795D01*
X158692284Y-46318385D01*
X158571971Y-46152786D01*
X158427213Y-46008028D01*
X158261613Y-45887715D01*
X158261612Y-45887714D01*
X158261610Y-45887713D01*
X158203111Y-45857906D01*
X158079223Y-45794781D01*
X157884534Y-45731522D01*
X157698799Y-45702105D01*
X157682352Y-45699500D01*
X157477648Y-45699500D01*
X157461201Y-45702105D01*
X157275465Y-45731522D01*
X157080776Y-45794781D01*
X156898386Y-45887715D01*
X156732786Y-46008028D01*
X156588028Y-46152786D01*
X156467715Y-46318386D01*
X156374781Y-46500776D01*
X156311522Y-46695465D01*
X156279500Y-46897648D01*
X148720500Y-46897648D01*
X148688477Y-46695465D01*
X148659127Y-46605137D01*
X148625220Y-46500781D01*
X148625218Y-46500778D01*
X148625218Y-46500776D01*
X148591503Y-46434607D01*
X148532287Y-46318390D01*
X148494208Y-46265978D01*
X148411971Y-46152786D01*
X148267213Y-46008028D01*
X148101613Y-45887715D01*
X148101612Y-45887714D01*
X148101610Y-45887713D01*
X148043111Y-45857906D01*
X147919223Y-45794781D01*
X147724534Y-45731522D01*
X147538799Y-45702105D01*
X147522352Y-45699500D01*
X147317648Y-45699500D01*
X147301201Y-45702105D01*
X147115465Y-45731522D01*
X146920776Y-45794781D01*
X146738386Y-45887715D01*
X146572786Y-46008028D01*
X146428028Y-46152786D01*
X146307715Y-46318386D01*
X146214781Y-46500776D01*
X146151522Y-46695465D01*
X146119500Y-46897648D01*
X114172863Y-46897648D01*
X114090945Y-46784898D01*
X113955102Y-46649055D01*
X113799681Y-46536135D01*
X113628506Y-46448916D01*
X113445802Y-46389553D01*
X113350928Y-46374526D01*
X113256055Y-46359500D01*
X113063945Y-46359500D01*
X113000696Y-46369517D01*
X112874197Y-46389553D01*
X112691493Y-46448916D01*
X112520318Y-46536135D01*
X112501235Y-46550000D01*
X112364898Y-46649055D01*
X112364896Y-46649057D01*
X112364895Y-46649057D01*
X112229057Y-46784895D01*
X112229057Y-46784896D01*
X112229055Y-46784898D01*
X112180560Y-46851645D01*
X112116135Y-46940318D01*
X112028916Y-47111493D01*
X111969553Y-47294197D01*
X111944876Y-47450000D01*
X111939500Y-47483945D01*
X111939500Y-47676055D01*
X111948681Y-47734022D01*
X111969553Y-47865802D01*
X112028916Y-48048506D01*
X112104992Y-48197812D01*
X112116135Y-48219681D01*
X112229055Y-48375102D01*
X112364898Y-48510945D01*
X112520319Y-48623865D01*
X112691491Y-48711082D01*
X112691493Y-48711083D01*
X112779664Y-48739731D01*
X112874199Y-48770447D01*
X112913931Y-48776740D01*
X112977063Y-48806666D01*
X113013995Y-48865977D01*
X113012999Y-48935840D01*
X112974390Y-48994073D01*
X112918731Y-49020828D01*
X112911923Y-49022182D01*
X112911917Y-49022184D01*
X112757139Y-49086295D01*
X112617837Y-49179373D01*
X112499373Y-49297837D01*
X112406295Y-49437139D01*
X112342184Y-49591917D01*
X112342182Y-49591925D01*
X112309500Y-49756228D01*
X112309500Y-49923771D01*
X112342182Y-50088074D01*
X112342184Y-50088082D01*
X112406295Y-50242860D01*
X112438602Y-50291210D01*
X112459480Y-50357887D01*
X112459500Y-50360101D01*
X112459500Y-56981006D01*
X112459500Y-57118994D01*
X112459500Y-57118996D01*
X112459499Y-57118996D01*
X112486418Y-57254322D01*
X112486421Y-57254332D01*
X112539222Y-57381807D01*
X112615887Y-57496545D01*
X112615888Y-57496546D01*
X113603194Y-58483851D01*
X113604262Y-58485807D01*
X113606182Y-58486944D01*
X113620928Y-58516328D01*
X113636679Y-58545174D01*
X113636833Y-58548022D01*
X113637520Y-58549391D01*
X113637680Y-58563674D01*
X113638816Y-58584661D01*
X113638481Y-58587806D01*
X113619500Y-58707648D01*
X113619500Y-58766064D01*
X113618803Y-58772610D01*
X113607876Y-58799064D01*
X113599815Y-58826520D01*
X113594710Y-58830942D01*
X113592131Y-58837189D01*
X113568634Y-58853537D01*
X113547011Y-58872275D01*
X113540324Y-58873236D01*
X113534779Y-58877095D01*
X113506183Y-58878145D01*
X113477853Y-58882219D01*
X113471706Y-58879412D01*
X113464956Y-58879660D01*
X113440331Y-58865083D01*
X113414297Y-58853194D01*
X113407819Y-58847162D01*
X112826546Y-58265888D01*
X112826545Y-58265887D01*
X112711807Y-58189222D01*
X112584330Y-58136420D01*
X112578494Y-58134650D01*
X112578921Y-58133239D01*
X112523502Y-58104240D01*
X112521936Y-58102701D01*
X111256819Y-56837584D01*
X111223334Y-56776261D01*
X111220500Y-56749903D01*
X111220500Y-51255513D01*
X111240185Y-51188474D01*
X111271614Y-51155195D01*
X111282592Y-51147219D01*
X111415102Y-51050945D01*
X111550945Y-50915102D01*
X111663865Y-50759681D01*
X111751082Y-50588509D01*
X111810447Y-50405801D01*
X111840500Y-50216055D01*
X111840500Y-50023945D01*
X111810447Y-49834199D01*
X111751082Y-49651491D01*
X111663865Y-49480319D01*
X111550945Y-49324898D01*
X111415102Y-49189055D01*
X111259681Y-49076135D01*
X111088506Y-48988916D01*
X110905802Y-48929553D01*
X110810928Y-48914526D01*
X110716055Y-48899500D01*
X110523945Y-48899500D01*
X110460696Y-48909517D01*
X110334197Y-48929553D01*
X110151493Y-48988916D01*
X109980318Y-49076135D01*
X109891645Y-49140560D01*
X109824898Y-49189055D01*
X109824896Y-49189057D01*
X109824895Y-49189057D01*
X109689057Y-49324895D01*
X109689057Y-49324896D01*
X109689055Y-49324898D01*
X109640560Y-49391645D01*
X109576135Y-49480318D01*
X109488916Y-49651493D01*
X109429553Y-49834197D01*
X109399500Y-50023945D01*
X109399500Y-50216054D01*
X109429553Y-50405802D01*
X109488916Y-50588506D01*
X109545726Y-50700000D01*
X109576135Y-50759681D01*
X109689055Y-50915102D01*
X109824898Y-51050945D01*
X109957408Y-51147219D01*
X109968386Y-51155195D01*
X110011051Y-51210525D01*
X110019500Y-51255513D01*
X110019500Y-56963330D01*
X110019499Y-56963348D01*
X110019499Y-57129054D01*
X110019498Y-57129054D01*
X110021705Y-57137289D01*
X110056187Y-57265978D01*
X110060424Y-57281787D01*
X110071248Y-57300534D01*
X110071249Y-57300536D01*
X110139477Y-57418712D01*
X110139481Y-57418717D01*
X110258349Y-57537585D01*
X110258355Y-57537590D01*
X110618584Y-57897819D01*
X110652069Y-57959142D01*
X110647085Y-58028834D01*
X110605213Y-58084767D01*
X110539749Y-58109184D01*
X110530903Y-58109500D01*
X108461744Y-58109500D01*
X108394705Y-58089815D01*
X108361425Y-58058384D01*
X108291969Y-57962784D01*
X108147217Y-57818032D01*
X108147212Y-57818028D01*
X108053051Y-57749616D01*
X108010385Y-57694286D01*
X108004406Y-57624673D01*
X108037012Y-57562878D01*
X108086933Y-57531592D01*
X108169117Y-57504359D01*
X108169124Y-57504356D01*
X108318345Y-57412315D01*
X108442315Y-57288345D01*
X108534356Y-57139124D01*
X108534358Y-57139119D01*
X108589505Y-56972697D01*
X108589506Y-56972690D01*
X108599999Y-56869986D01*
X108600000Y-56869973D01*
X108600000Y-56520000D01*
X107615686Y-56520000D01*
X107620080Y-56515606D01*
X107672741Y-56424394D01*
X107700000Y-56322661D01*
X107700000Y-56217339D01*
X107672741Y-56115606D01*
X107620080Y-56024394D01*
X107615686Y-56020000D01*
X108599999Y-56020000D01*
X108599999Y-55670028D01*
X108599998Y-55670013D01*
X108589505Y-55567302D01*
X108534358Y-55400880D01*
X108534356Y-55400875D01*
X108442315Y-55251654D01*
X108318345Y-55127684D01*
X108169124Y-55035643D01*
X108169119Y-55035641D01*
X108002697Y-54980494D01*
X108002690Y-54980493D01*
X107899986Y-54970000D01*
X107550000Y-54970000D01*
X107550000Y-55954314D01*
X107545606Y-55949920D01*
X107454394Y-55897259D01*
X107352661Y-55870000D01*
X107247339Y-55870000D01*
X107145606Y-55897259D01*
X107054394Y-55949920D01*
X107050000Y-55954314D01*
X107050000Y-54970000D01*
X106700028Y-54970000D01*
X106700012Y-54970001D01*
X106597302Y-54980494D01*
X106430880Y-55035641D01*
X106430875Y-55035643D01*
X106281654Y-55127684D01*
X106157684Y-55251654D01*
X106065643Y-55400875D01*
X106065641Y-55400880D01*
X106010494Y-55567302D01*
X106010493Y-55567309D01*
X106000000Y-55670013D01*
X106000000Y-56020000D01*
X106984314Y-56020000D01*
X106979920Y-56024394D01*
X106927259Y-56115606D01*
X106900000Y-56217339D01*
X106900000Y-56322661D01*
X106927259Y-56424394D01*
X106979920Y-56515606D01*
X106984314Y-56520000D01*
X106000001Y-56520000D01*
X106000001Y-56869986D01*
X106010494Y-56972697D01*
X106065641Y-57139119D01*
X106065643Y-57139124D01*
X106157684Y-57288345D01*
X106281654Y-57412315D01*
X106430875Y-57504356D01*
X106430882Y-57504359D01*
X106513067Y-57531592D01*
X106570512Y-57571364D01*
X106597336Y-57635880D01*
X106585021Y-57704656D01*
X106546949Y-57749616D01*
X106452787Y-57818028D01*
X106452782Y-57818032D01*
X106308028Y-57962786D01*
X106187715Y-58128386D01*
X106094781Y-58310776D01*
X106031522Y-58505465D01*
X105999500Y-58707648D01*
X72500500Y-58707648D01*
X72500500Y-54864448D01*
X86619500Y-54864448D01*
X86619500Y-55100643D01*
X86656446Y-55333914D01*
X86729433Y-55558542D01*
X86793630Y-55684534D01*
X86836657Y-55768979D01*
X86975483Y-55960056D01*
X87142490Y-56127063D01*
X87333567Y-56265889D01*
X87432991Y-56316548D01*
X87544003Y-56373112D01*
X87544005Y-56373112D01*
X87544008Y-56373114D01*
X87664412Y-56412235D01*
X87768631Y-56446099D01*
X88001903Y-56483046D01*
X88001908Y-56483046D01*
X88238097Y-56483046D01*
X88471368Y-56446099D01*
X88695992Y-56373114D01*
X88697490Y-56372351D01*
X88740376Y-56350499D01*
X88906433Y-56265889D01*
X89097510Y-56127063D01*
X89264517Y-55960056D01*
X89403343Y-55768979D01*
X89510568Y-55558538D01*
X89583553Y-55333914D01*
X89587794Y-55307135D01*
X89620500Y-55100643D01*
X89620500Y-54864448D01*
X89583553Y-54631177D01*
X89510566Y-54406549D01*
X89403342Y-54196112D01*
X89264517Y-54005036D01*
X89097510Y-53838029D01*
X88906433Y-53699203D01*
X88882913Y-53687219D01*
X88695996Y-53591979D01*
X88471368Y-53518992D01*
X88238097Y-53482046D01*
X88238092Y-53482046D01*
X88001908Y-53482046D01*
X88001903Y-53482046D01*
X87768631Y-53518992D01*
X87544003Y-53591979D01*
X87333566Y-53699203D01*
X87253759Y-53757187D01*
X87142490Y-53838029D01*
X87142488Y-53838031D01*
X87142487Y-53838031D01*
X86975485Y-54005033D01*
X86975485Y-54005034D01*
X86975483Y-54005036D01*
X86920767Y-54080346D01*
X86836657Y-54196112D01*
X86729433Y-54406549D01*
X86656446Y-54631177D01*
X86619500Y-54864448D01*
X72500500Y-54864448D01*
X72500500Y-44943945D01*
X109399500Y-44943945D01*
X109399500Y-45136054D01*
X109429553Y-45325802D01*
X109488916Y-45508506D01*
X109576135Y-45679681D01*
X109689055Y-45835102D01*
X109824898Y-45970945D01*
X109980319Y-46083865D01*
X110151491Y-46171082D01*
X110151493Y-46171083D01*
X110242845Y-46200764D01*
X110334199Y-46230447D01*
X110523945Y-46260500D01*
X110523946Y-46260500D01*
X110716054Y-46260500D01*
X110716055Y-46260500D01*
X110905801Y-46230447D01*
X111088509Y-46171082D01*
X111259681Y-46083865D01*
X111415102Y-45970945D01*
X111550945Y-45835102D01*
X111663865Y-45679681D01*
X111751082Y-45508509D01*
X111810447Y-45325801D01*
X111840500Y-45136055D01*
X111840500Y-44943945D01*
X111810447Y-44754199D01*
X111751082Y-44571491D01*
X111663865Y-44400319D01*
X111550945Y-44244898D01*
X111415102Y-44109055D01*
X111259681Y-43996135D01*
X111088506Y-43908916D01*
X110905802Y-43849553D01*
X110810928Y-43834526D01*
X110716055Y-43819500D01*
X110523945Y-43819500D01*
X110460696Y-43829517D01*
X110334197Y-43849553D01*
X110151493Y-43908916D01*
X109980318Y-43996135D01*
X109891645Y-44060560D01*
X109824898Y-44109055D01*
X109824896Y-44109057D01*
X109824895Y-44109057D01*
X109689057Y-44244895D01*
X109689057Y-44244896D01*
X109689055Y-44244898D01*
X109640560Y-44311645D01*
X109576135Y-44400318D01*
X109488916Y-44571493D01*
X109429553Y-44754197D01*
X109399500Y-44943945D01*
X72500500Y-44943945D01*
X72500500Y-41397648D01*
X146119500Y-41397648D01*
X146119500Y-41602351D01*
X146151522Y-41804534D01*
X146214781Y-41999223D01*
X146266385Y-42100500D01*
X146300882Y-42168204D01*
X146307715Y-42181613D01*
X146428028Y-42347213D01*
X146572786Y-42491971D01*
X146727749Y-42604556D01*
X146738390Y-42612287D01*
X146854607Y-42671503D01*
X146920776Y-42705218D01*
X146920778Y-42705218D01*
X146920781Y-42705220D01*
X147025137Y-42739127D01*
X147115465Y-42768477D01*
X147216557Y-42784488D01*
X147317648Y-42800500D01*
X147317649Y-42800500D01*
X147522351Y-42800500D01*
X147522352Y-42800500D01*
X147724534Y-42768477D01*
X147919219Y-42705220D01*
X148101610Y-42612287D01*
X148246005Y-42507379D01*
X148267213Y-42491971D01*
X148267215Y-42491968D01*
X148267219Y-42491966D01*
X148411966Y-42347219D01*
X148411968Y-42347215D01*
X148411971Y-42347213D01*
X148494207Y-42234023D01*
X148532287Y-42181610D01*
X148625220Y-41999219D01*
X148688477Y-41804534D01*
X148720500Y-41602352D01*
X148720500Y-41397648D01*
X156279500Y-41397648D01*
X156279500Y-41602351D01*
X156311522Y-41804534D01*
X156374781Y-41999223D01*
X156426385Y-42100500D01*
X156460882Y-42168204D01*
X156467715Y-42181613D01*
X156588028Y-42347213D01*
X156732786Y-42491971D01*
X156887749Y-42604556D01*
X156898390Y-42612287D01*
X157014607Y-42671503D01*
X157080776Y-42705218D01*
X157080778Y-42705218D01*
X157080781Y-42705220D01*
X157185137Y-42739127D01*
X157275465Y-42768477D01*
X157376557Y-42784488D01*
X157477648Y-42800500D01*
X157477649Y-42800500D01*
X157682351Y-42800500D01*
X157682352Y-42800500D01*
X157884534Y-42768477D01*
X158079219Y-42705220D01*
X158261610Y-42612287D01*
X158406005Y-42507379D01*
X158427213Y-42491971D01*
X158427215Y-42491968D01*
X158427219Y-42491966D01*
X158571966Y-42347219D01*
X158571968Y-42347215D01*
X158571971Y-42347213D01*
X158692284Y-42181614D01*
X158692285Y-42181613D01*
X158692287Y-42181610D01*
X158699117Y-42168204D01*
X158747091Y-42117409D01*
X158809602Y-42100500D01*
X159888164Y-42100500D01*
X159955203Y-42120185D01*
X159998648Y-42168204D01*
X160032185Y-42234023D01*
X160161752Y-42412358D01*
X160161756Y-42412363D01*
X160317636Y-42568243D01*
X160317641Y-42568247D01*
X160473192Y-42681260D01*
X160495978Y-42697815D01*
X160612501Y-42757187D01*
X160692393Y-42797895D01*
X160692396Y-42797896D01*
X160797221Y-42831955D01*
X160902049Y-42866015D01*
X161119778Y-42900500D01*
X161119779Y-42900500D01*
X161340221Y-42900500D01*
X161340222Y-42900500D01*
X161557951Y-42866015D01*
X161767606Y-42797895D01*
X161964022Y-42697815D01*
X162142365Y-42568242D01*
X162192924Y-42517682D01*
X162254245Y-42484198D01*
X162323936Y-42489182D01*
X162379870Y-42531053D01*
X162396786Y-42562030D01*
X162426646Y-42642087D01*
X162426649Y-42642093D01*
X162512809Y-42757187D01*
X162512812Y-42757190D01*
X162627906Y-42843350D01*
X162627913Y-42843354D01*
X162762620Y-42893596D01*
X162762627Y-42893598D01*
X162822155Y-42899999D01*
X162822172Y-42900000D01*
X163520000Y-42900000D01*
X163520000Y-41875277D01*
X163596306Y-41919333D01*
X163710756Y-41950000D01*
X163829244Y-41950000D01*
X163943694Y-41919333D01*
X164020000Y-41875277D01*
X164020000Y-42900000D01*
X164717828Y-42900000D01*
X164717844Y-42899999D01*
X164777372Y-42893598D01*
X164777379Y-42893596D01*
X164912086Y-42843354D01*
X164912093Y-42843350D01*
X165027187Y-42757190D01*
X165027190Y-42757187D01*
X165113350Y-42642093D01*
X165113354Y-42642086D01*
X165163596Y-42507379D01*
X165163598Y-42507372D01*
X165169999Y-42447844D01*
X165170000Y-42447827D01*
X165170000Y-41750000D01*
X164145278Y-41750000D01*
X164189333Y-41673694D01*
X164220000Y-41559244D01*
X164220000Y-41440756D01*
X164189333Y-41326306D01*
X164145278Y-41250000D01*
X165170000Y-41250000D01*
X165170000Y-40552172D01*
X165169999Y-40552155D01*
X165163598Y-40492627D01*
X165163596Y-40492620D01*
X165113354Y-40357913D01*
X165113350Y-40357906D01*
X165027190Y-40242812D01*
X165027187Y-40242809D01*
X164912093Y-40156649D01*
X164912086Y-40156645D01*
X164777379Y-40106403D01*
X164777372Y-40106401D01*
X164717844Y-40100000D01*
X164020000Y-40100000D01*
X164020000Y-41124722D01*
X163943694Y-41080667D01*
X163829244Y-41050000D01*
X163710756Y-41050000D01*
X163596306Y-41080667D01*
X163520000Y-41124722D01*
X163520000Y-40100000D01*
X162822155Y-40100000D01*
X162762627Y-40106401D01*
X162762620Y-40106403D01*
X162627913Y-40156645D01*
X162627906Y-40156649D01*
X162512812Y-40242809D01*
X162512809Y-40242812D01*
X162426649Y-40357906D01*
X162426643Y-40357918D01*
X162396785Y-40437969D01*
X162354914Y-40493903D01*
X162289449Y-40518319D01*
X162221176Y-40503467D01*
X162192923Y-40482316D01*
X162142363Y-40431756D01*
X162142358Y-40431752D01*
X161964025Y-40302187D01*
X161964024Y-40302186D01*
X161964022Y-40302185D01*
X161901096Y-40270122D01*
X161767606Y-40202104D01*
X161767603Y-40202103D01*
X161557952Y-40133985D01*
X161449086Y-40116742D01*
X161340222Y-40099500D01*
X161119778Y-40099500D01*
X161047201Y-40110995D01*
X160902047Y-40133985D01*
X160692396Y-40202103D01*
X160692393Y-40202104D01*
X160495974Y-40302187D01*
X160317641Y-40431752D01*
X160317636Y-40431756D01*
X160161756Y-40587636D01*
X160161752Y-40587641D01*
X160032185Y-40765976D01*
X159998648Y-40831796D01*
X159950674Y-40882591D01*
X159888164Y-40899500D01*
X158809602Y-40899500D01*
X158742563Y-40879815D01*
X158699117Y-40831795D01*
X158692284Y-40818385D01*
X158571971Y-40652786D01*
X158427213Y-40508028D01*
X158261613Y-40387715D01*
X158261612Y-40387714D01*
X158261610Y-40387713D01*
X158203111Y-40357906D01*
X158079223Y-40294781D01*
X157884534Y-40231522D01*
X157698799Y-40202105D01*
X157682352Y-40199500D01*
X157477648Y-40199500D01*
X157461201Y-40202105D01*
X157275465Y-40231522D01*
X157080776Y-40294781D01*
X156898386Y-40387715D01*
X156732786Y-40508028D01*
X156588028Y-40652786D01*
X156467715Y-40818386D01*
X156374781Y-41000776D01*
X156311522Y-41195465D01*
X156279500Y-41397648D01*
X148720500Y-41397648D01*
X148688477Y-41195465D01*
X148659127Y-41105137D01*
X148625220Y-41000781D01*
X148625218Y-41000778D01*
X148625218Y-41000776D01*
X148591503Y-40934607D01*
X148532287Y-40818390D01*
X148494208Y-40765978D01*
X148411971Y-40652786D01*
X148267213Y-40508028D01*
X148101613Y-40387715D01*
X148101612Y-40387714D01*
X148101610Y-40387713D01*
X148043111Y-40357906D01*
X147919223Y-40294781D01*
X147724534Y-40231522D01*
X147538799Y-40202105D01*
X147522352Y-40199500D01*
X147317648Y-40199500D01*
X147301201Y-40202105D01*
X147115465Y-40231522D01*
X146920776Y-40294781D01*
X146738386Y-40387715D01*
X146572786Y-40508028D01*
X146428028Y-40652786D01*
X146307715Y-40818386D01*
X146214781Y-41000776D01*
X146151522Y-41195465D01*
X146119500Y-41397648D01*
X72500500Y-41397648D01*
X72500500Y-33134681D01*
X86619500Y-33134681D01*
X86619500Y-35230416D01*
X86619501Y-35230422D01*
X86625908Y-35290029D01*
X86676202Y-35424874D01*
X86676206Y-35424881D01*
X86762452Y-35540090D01*
X86762455Y-35540093D01*
X86877664Y-35626339D01*
X86877671Y-35626343D01*
X87012517Y-35676637D01*
X87012516Y-35676637D01*
X87019444Y-35677381D01*
X87072127Y-35683046D01*
X89167872Y-35683045D01*
X89227483Y-35676637D01*
X89362331Y-35626342D01*
X89477546Y-35540092D01*
X89563796Y-35424877D01*
X89614091Y-35290029D01*
X89620500Y-35230419D01*
X89620499Y-33134674D01*
X89614091Y-33075063D01*
X89563796Y-32940215D01*
X89563795Y-32940214D01*
X89563793Y-32940210D01*
X89477547Y-32825001D01*
X89477544Y-32824998D01*
X89362335Y-32738752D01*
X89362328Y-32738748D01*
X89227482Y-32688454D01*
X89227483Y-32688454D01*
X89167883Y-32682047D01*
X89167881Y-32682046D01*
X89167873Y-32682046D01*
X89167864Y-32682046D01*
X87072129Y-32682046D01*
X87072123Y-32682047D01*
X87012516Y-32688454D01*
X86877671Y-32738748D01*
X86877664Y-32738752D01*
X86762455Y-32824998D01*
X86762452Y-32825001D01*
X86676206Y-32940210D01*
X86676202Y-32940217D01*
X86625908Y-33075063D01*
X86619501Y-33134662D01*
X86619501Y-33134669D01*
X86619500Y-33134681D01*
X72500500Y-33134681D01*
X72500500Y-29124500D01*
X72520185Y-29057461D01*
X72572989Y-29011706D01*
X72624500Y-29000500D01*
X169875500Y-29000500D01*
X169942539Y-29020185D01*
G37*
%TD.AperFunction*%
%TD*%
M02*
