%TF.GenerationSoftware,KiCad,Pcbnew,9.0.5*%
%TF.CreationDate,2025-10-19T16:10:15+05:30*%
%TF.ProjectId,KICADWORKSHOP_LED_CHASER,4b494341-4457-44f5-924b-53484f505f4c,rev?*%
%TF.SameCoordinates,Original*%
%TF.FileFunction,Legend,Top*%
%TF.FilePolarity,Positive*%
%FSLAX46Y46*%
G04 Gerber Fmt 4.6, Leading zero omitted, Abs format (unit mm)*
G04 Created by KiCad (PCBNEW 9.0.5) date 2025-10-19 16:10:15*
%MOMM*%
%LPD*%
G01*
G04 APERTURE LIST*
%ADD10C,0.200000*%
%ADD11C,0.150000*%
%ADD12C,0.120000*%
G04 APERTURE END LIST*
D10*
X117322054Y-90709656D02*
X117464911Y-90757275D01*
X117464911Y-90757275D02*
X117703006Y-90757275D01*
X117703006Y-90757275D02*
X117798244Y-90709656D01*
X117798244Y-90709656D02*
X117845863Y-90662036D01*
X117845863Y-90662036D02*
X117893482Y-90566798D01*
X117893482Y-90566798D02*
X117893482Y-90471560D01*
X117893482Y-90471560D02*
X117845863Y-90376322D01*
X117845863Y-90376322D02*
X117798244Y-90328703D01*
X117798244Y-90328703D02*
X117703006Y-90281084D01*
X117703006Y-90281084D02*
X117512530Y-90233465D01*
X117512530Y-90233465D02*
X117417292Y-90185846D01*
X117417292Y-90185846D02*
X117369673Y-90138227D01*
X117369673Y-90138227D02*
X117322054Y-90042989D01*
X117322054Y-90042989D02*
X117322054Y-89947751D01*
X117322054Y-89947751D02*
X117369673Y-89852513D01*
X117369673Y-89852513D02*
X117417292Y-89804894D01*
X117417292Y-89804894D02*
X117512530Y-89757275D01*
X117512530Y-89757275D02*
X117750625Y-89757275D01*
X117750625Y-89757275D02*
X117893482Y-89804894D01*
X118274435Y-90471560D02*
X118750625Y-90471560D01*
X118179197Y-90757275D02*
X118512530Y-89757275D01*
X118512530Y-89757275D02*
X118845863Y-90757275D01*
X119179197Y-90757275D02*
X119179197Y-89757275D01*
X120226815Y-90757275D02*
X119893482Y-90281084D01*
X119655387Y-90757275D02*
X119655387Y-89757275D01*
X119655387Y-89757275D02*
X120036339Y-89757275D01*
X120036339Y-89757275D02*
X120131577Y-89804894D01*
X120131577Y-89804894D02*
X120179196Y-89852513D01*
X120179196Y-89852513D02*
X120226815Y-89947751D01*
X120226815Y-89947751D02*
X120226815Y-90090608D01*
X120226815Y-90090608D02*
X120179196Y-90185846D01*
X120179196Y-90185846D02*
X120131577Y-90233465D01*
X120131577Y-90233465D02*
X120036339Y-90281084D01*
X120036339Y-90281084D02*
X119655387Y-90281084D01*
X120655387Y-89757275D02*
X120655387Y-90566798D01*
X120655387Y-90566798D02*
X120703006Y-90662036D01*
X120703006Y-90662036D02*
X120750625Y-90709656D01*
X120750625Y-90709656D02*
X120845863Y-90757275D01*
X120845863Y-90757275D02*
X121036339Y-90757275D01*
X121036339Y-90757275D02*
X121131577Y-90709656D01*
X121131577Y-90709656D02*
X121179196Y-90662036D01*
X121179196Y-90662036D02*
X121226815Y-90566798D01*
X121226815Y-90566798D02*
X121226815Y-89757275D01*
X121703006Y-90757275D02*
X121703006Y-89757275D01*
X121703006Y-89757275D02*
X121941101Y-89757275D01*
X121941101Y-89757275D02*
X122083958Y-89804894D01*
X122083958Y-89804894D02*
X122179196Y-89900132D01*
X122179196Y-89900132D02*
X122226815Y-89995370D01*
X122226815Y-89995370D02*
X122274434Y-90185846D01*
X122274434Y-90185846D02*
X122274434Y-90328703D01*
X122274434Y-90328703D02*
X122226815Y-90519179D01*
X122226815Y-90519179D02*
X122179196Y-90614417D01*
X122179196Y-90614417D02*
X122083958Y-90709656D01*
X122083958Y-90709656D02*
X121941101Y-90757275D01*
X121941101Y-90757275D02*
X121703006Y-90757275D01*
X123274434Y-90757275D02*
X122941101Y-90281084D01*
X122703006Y-90757275D02*
X122703006Y-89757275D01*
X122703006Y-89757275D02*
X123083958Y-89757275D01*
X123083958Y-89757275D02*
X123179196Y-89804894D01*
X123179196Y-89804894D02*
X123226815Y-89852513D01*
X123226815Y-89852513D02*
X123274434Y-89947751D01*
X123274434Y-89947751D02*
X123274434Y-90090608D01*
X123274434Y-90090608D02*
X123226815Y-90185846D01*
X123226815Y-90185846D02*
X123179196Y-90233465D01*
X123179196Y-90233465D02*
X123083958Y-90281084D01*
X123083958Y-90281084D02*
X122703006Y-90281084D01*
X123655387Y-90471560D02*
X124131577Y-90471560D01*
X123560149Y-90757275D02*
X123893482Y-89757275D01*
X123893482Y-89757275D02*
X124226815Y-90757275D01*
X117369673Y-92367219D02*
X117369673Y-91367219D01*
X117369673Y-91367219D02*
X117607768Y-91367219D01*
X117607768Y-91367219D02*
X117750625Y-91414838D01*
X117750625Y-91414838D02*
X117845863Y-91510076D01*
X117845863Y-91510076D02*
X117893482Y-91605314D01*
X117893482Y-91605314D02*
X117941101Y-91795790D01*
X117941101Y-91795790D02*
X117941101Y-91938647D01*
X117941101Y-91938647D02*
X117893482Y-92129123D01*
X117893482Y-92129123D02*
X117845863Y-92224361D01*
X117845863Y-92224361D02*
X117750625Y-92319600D01*
X117750625Y-92319600D02*
X117607768Y-92367219D01*
X117607768Y-92367219D02*
X117369673Y-92367219D01*
X118655387Y-91367219D02*
X118655387Y-92081504D01*
X118655387Y-92081504D02*
X118607768Y-92224361D01*
X118607768Y-92224361D02*
X118512530Y-92319600D01*
X118512530Y-92319600D02*
X118369673Y-92367219D01*
X118369673Y-92367219D02*
X118274435Y-92367219D01*
X119083959Y-92319600D02*
X119226816Y-92367219D01*
X119226816Y-92367219D02*
X119464911Y-92367219D01*
X119464911Y-92367219D02*
X119560149Y-92319600D01*
X119560149Y-92319600D02*
X119607768Y-92271980D01*
X119607768Y-92271980D02*
X119655387Y-92176742D01*
X119655387Y-92176742D02*
X119655387Y-92081504D01*
X119655387Y-92081504D02*
X119607768Y-91986266D01*
X119607768Y-91986266D02*
X119560149Y-91938647D01*
X119560149Y-91938647D02*
X119464911Y-91891028D01*
X119464911Y-91891028D02*
X119274435Y-91843409D01*
X119274435Y-91843409D02*
X119179197Y-91795790D01*
X119179197Y-91795790D02*
X119131578Y-91748171D01*
X119131578Y-91748171D02*
X119083959Y-91652933D01*
X119083959Y-91652933D02*
X119083959Y-91557695D01*
X119083959Y-91557695D02*
X119131578Y-91462457D01*
X119131578Y-91462457D02*
X119179197Y-91414838D01*
X119179197Y-91414838D02*
X119274435Y-91367219D01*
X119274435Y-91367219D02*
X119512530Y-91367219D01*
X119512530Y-91367219D02*
X119655387Y-91414838D01*
X120083959Y-91986266D02*
X120845864Y-91986266D01*
X121322054Y-92367219D02*
X121322054Y-91367219D01*
X121798244Y-91843409D02*
X122131577Y-91843409D01*
X122274434Y-92367219D02*
X121798244Y-92367219D01*
X121798244Y-92367219D02*
X121798244Y-91367219D01*
X121798244Y-91367219D02*
X122274434Y-91367219D01*
X122703006Y-91843409D02*
X123036339Y-91843409D01*
X123179196Y-92367219D02*
X122703006Y-92367219D01*
X122703006Y-92367219D02*
X122703006Y-91367219D01*
X122703006Y-91367219D02*
X123179196Y-91367219D01*
X123607768Y-91843409D02*
X123941101Y-91843409D01*
X124083958Y-92367219D02*
X123607768Y-92367219D01*
X123607768Y-92367219D02*
X123607768Y-91367219D01*
X123607768Y-91367219D02*
X124083958Y-91367219D01*
D11*
X130858095Y-70834819D02*
X130858095Y-71644342D01*
X130858095Y-71644342D02*
X130905714Y-71739580D01*
X130905714Y-71739580D02*
X130953333Y-71787200D01*
X130953333Y-71787200D02*
X131048571Y-71834819D01*
X131048571Y-71834819D02*
X131239047Y-71834819D01*
X131239047Y-71834819D02*
X131334285Y-71787200D01*
X131334285Y-71787200D02*
X131381904Y-71739580D01*
X131381904Y-71739580D02*
X131429523Y-71644342D01*
X131429523Y-71644342D02*
X131429523Y-70834819D01*
X131858095Y-70930057D02*
X131905714Y-70882438D01*
X131905714Y-70882438D02*
X132000952Y-70834819D01*
X132000952Y-70834819D02*
X132239047Y-70834819D01*
X132239047Y-70834819D02*
X132334285Y-70882438D01*
X132334285Y-70882438D02*
X132381904Y-70930057D01*
X132381904Y-70930057D02*
X132429523Y-71025295D01*
X132429523Y-71025295D02*
X132429523Y-71120533D01*
X132429523Y-71120533D02*
X132381904Y-71263390D01*
X132381904Y-71263390D02*
X131810476Y-71834819D01*
X131810476Y-71834819D02*
X132429523Y-71834819D01*
X110343095Y-59534819D02*
X110343095Y-60344342D01*
X110343095Y-60344342D02*
X110390714Y-60439580D01*
X110390714Y-60439580D02*
X110438333Y-60487200D01*
X110438333Y-60487200D02*
X110533571Y-60534819D01*
X110533571Y-60534819D02*
X110724047Y-60534819D01*
X110724047Y-60534819D02*
X110819285Y-60487200D01*
X110819285Y-60487200D02*
X110866904Y-60439580D01*
X110866904Y-60439580D02*
X110914523Y-60344342D01*
X110914523Y-60344342D02*
X110914523Y-59534819D01*
X111914523Y-60534819D02*
X111343095Y-60534819D01*
X111628809Y-60534819D02*
X111628809Y-59534819D01*
X111628809Y-59534819D02*
X111533571Y-59677676D01*
X111533571Y-59677676D02*
X111438333Y-59772914D01*
X111438333Y-59772914D02*
X111343095Y-59820533D01*
X110009761Y-42019819D02*
X109676428Y-41543628D01*
X109438333Y-42019819D02*
X109438333Y-41019819D01*
X109438333Y-41019819D02*
X109819285Y-41019819D01*
X109819285Y-41019819D02*
X109914523Y-41067438D01*
X109914523Y-41067438D02*
X109962142Y-41115057D01*
X109962142Y-41115057D02*
X110009761Y-41210295D01*
X110009761Y-41210295D02*
X110009761Y-41353152D01*
X110009761Y-41353152D02*
X109962142Y-41448390D01*
X109962142Y-41448390D02*
X109914523Y-41496009D01*
X109914523Y-41496009D02*
X109819285Y-41543628D01*
X109819285Y-41543628D02*
X109438333Y-41543628D01*
X110295476Y-41019819D02*
X110628809Y-42019819D01*
X110628809Y-42019819D02*
X110962142Y-41019819D01*
X111819285Y-42019819D02*
X111247857Y-42019819D01*
X111533571Y-42019819D02*
X111533571Y-41019819D01*
X111533571Y-41019819D02*
X111438333Y-41162676D01*
X111438333Y-41162676D02*
X111343095Y-41257914D01*
X111343095Y-41257914D02*
X111247857Y-41305533D01*
X151857142Y-90804819D02*
X151523809Y-90328628D01*
X151285714Y-90804819D02*
X151285714Y-89804819D01*
X151285714Y-89804819D02*
X151666666Y-89804819D01*
X151666666Y-89804819D02*
X151761904Y-89852438D01*
X151761904Y-89852438D02*
X151809523Y-89900057D01*
X151809523Y-89900057D02*
X151857142Y-89995295D01*
X151857142Y-89995295D02*
X151857142Y-90138152D01*
X151857142Y-90138152D02*
X151809523Y-90233390D01*
X151809523Y-90233390D02*
X151761904Y-90281009D01*
X151761904Y-90281009D02*
X151666666Y-90328628D01*
X151666666Y-90328628D02*
X151285714Y-90328628D01*
X152809523Y-90804819D02*
X152238095Y-90804819D01*
X152523809Y-90804819D02*
X152523809Y-89804819D01*
X152523809Y-89804819D02*
X152428571Y-89947676D01*
X152428571Y-89947676D02*
X152333333Y-90042914D01*
X152333333Y-90042914D02*
X152238095Y-90090533D01*
X153761904Y-90804819D02*
X153190476Y-90804819D01*
X153476190Y-90804819D02*
X153476190Y-89804819D01*
X153476190Y-89804819D02*
X153380952Y-89947676D01*
X153380952Y-89947676D02*
X153285714Y-90042914D01*
X153285714Y-90042914D02*
X153190476Y-90090533D01*
X151857142Y-85584819D02*
X151523809Y-85108628D01*
X151285714Y-85584819D02*
X151285714Y-84584819D01*
X151285714Y-84584819D02*
X151666666Y-84584819D01*
X151666666Y-84584819D02*
X151761904Y-84632438D01*
X151761904Y-84632438D02*
X151809523Y-84680057D01*
X151809523Y-84680057D02*
X151857142Y-84775295D01*
X151857142Y-84775295D02*
X151857142Y-84918152D01*
X151857142Y-84918152D02*
X151809523Y-85013390D01*
X151809523Y-85013390D02*
X151761904Y-85061009D01*
X151761904Y-85061009D02*
X151666666Y-85108628D01*
X151666666Y-85108628D02*
X151285714Y-85108628D01*
X152809523Y-85584819D02*
X152238095Y-85584819D01*
X152523809Y-85584819D02*
X152523809Y-84584819D01*
X152523809Y-84584819D02*
X152428571Y-84727676D01*
X152428571Y-84727676D02*
X152333333Y-84822914D01*
X152333333Y-84822914D02*
X152238095Y-84870533D01*
X153428571Y-84584819D02*
X153523809Y-84584819D01*
X153523809Y-84584819D02*
X153619047Y-84632438D01*
X153619047Y-84632438D02*
X153666666Y-84680057D01*
X153666666Y-84680057D02*
X153714285Y-84775295D01*
X153714285Y-84775295D02*
X153761904Y-84965771D01*
X153761904Y-84965771D02*
X153761904Y-85203866D01*
X153761904Y-85203866D02*
X153714285Y-85394342D01*
X153714285Y-85394342D02*
X153666666Y-85489580D01*
X153666666Y-85489580D02*
X153619047Y-85537200D01*
X153619047Y-85537200D02*
X153523809Y-85584819D01*
X153523809Y-85584819D02*
X153428571Y-85584819D01*
X153428571Y-85584819D02*
X153333333Y-85537200D01*
X153333333Y-85537200D02*
X153285714Y-85489580D01*
X153285714Y-85489580D02*
X153238095Y-85394342D01*
X153238095Y-85394342D02*
X153190476Y-85203866D01*
X153190476Y-85203866D02*
X153190476Y-84965771D01*
X153190476Y-84965771D02*
X153238095Y-84775295D01*
X153238095Y-84775295D02*
X153285714Y-84680057D01*
X153285714Y-84680057D02*
X153333333Y-84632438D01*
X153333333Y-84632438D02*
X153428571Y-84584819D01*
X152333333Y-79584819D02*
X152000000Y-79108628D01*
X151761905Y-79584819D02*
X151761905Y-78584819D01*
X151761905Y-78584819D02*
X152142857Y-78584819D01*
X152142857Y-78584819D02*
X152238095Y-78632438D01*
X152238095Y-78632438D02*
X152285714Y-78680057D01*
X152285714Y-78680057D02*
X152333333Y-78775295D01*
X152333333Y-78775295D02*
X152333333Y-78918152D01*
X152333333Y-78918152D02*
X152285714Y-79013390D01*
X152285714Y-79013390D02*
X152238095Y-79061009D01*
X152238095Y-79061009D02*
X152142857Y-79108628D01*
X152142857Y-79108628D02*
X151761905Y-79108628D01*
X152809524Y-79584819D02*
X153000000Y-79584819D01*
X153000000Y-79584819D02*
X153095238Y-79537200D01*
X153095238Y-79537200D02*
X153142857Y-79489580D01*
X153142857Y-79489580D02*
X153238095Y-79346723D01*
X153238095Y-79346723D02*
X153285714Y-79156247D01*
X153285714Y-79156247D02*
X153285714Y-78775295D01*
X153285714Y-78775295D02*
X153238095Y-78680057D01*
X153238095Y-78680057D02*
X153190476Y-78632438D01*
X153190476Y-78632438D02*
X153095238Y-78584819D01*
X153095238Y-78584819D02*
X152904762Y-78584819D01*
X152904762Y-78584819D02*
X152809524Y-78632438D01*
X152809524Y-78632438D02*
X152761905Y-78680057D01*
X152761905Y-78680057D02*
X152714286Y-78775295D01*
X152714286Y-78775295D02*
X152714286Y-79013390D01*
X152714286Y-79013390D02*
X152761905Y-79108628D01*
X152761905Y-79108628D02*
X152809524Y-79156247D01*
X152809524Y-79156247D02*
X152904762Y-79203866D01*
X152904762Y-79203866D02*
X153095238Y-79203866D01*
X153095238Y-79203866D02*
X153190476Y-79156247D01*
X153190476Y-79156247D02*
X153238095Y-79108628D01*
X153238095Y-79108628D02*
X153285714Y-79013390D01*
X152333333Y-74084819D02*
X152000000Y-73608628D01*
X151761905Y-74084819D02*
X151761905Y-73084819D01*
X151761905Y-73084819D02*
X152142857Y-73084819D01*
X152142857Y-73084819D02*
X152238095Y-73132438D01*
X152238095Y-73132438D02*
X152285714Y-73180057D01*
X152285714Y-73180057D02*
X152333333Y-73275295D01*
X152333333Y-73275295D02*
X152333333Y-73418152D01*
X152333333Y-73418152D02*
X152285714Y-73513390D01*
X152285714Y-73513390D02*
X152238095Y-73561009D01*
X152238095Y-73561009D02*
X152142857Y-73608628D01*
X152142857Y-73608628D02*
X151761905Y-73608628D01*
X152904762Y-73513390D02*
X152809524Y-73465771D01*
X152809524Y-73465771D02*
X152761905Y-73418152D01*
X152761905Y-73418152D02*
X152714286Y-73322914D01*
X152714286Y-73322914D02*
X152714286Y-73275295D01*
X152714286Y-73275295D02*
X152761905Y-73180057D01*
X152761905Y-73180057D02*
X152809524Y-73132438D01*
X152809524Y-73132438D02*
X152904762Y-73084819D01*
X152904762Y-73084819D02*
X153095238Y-73084819D01*
X153095238Y-73084819D02*
X153190476Y-73132438D01*
X153190476Y-73132438D02*
X153238095Y-73180057D01*
X153238095Y-73180057D02*
X153285714Y-73275295D01*
X153285714Y-73275295D02*
X153285714Y-73322914D01*
X153285714Y-73322914D02*
X153238095Y-73418152D01*
X153238095Y-73418152D02*
X153190476Y-73465771D01*
X153190476Y-73465771D02*
X153095238Y-73513390D01*
X153095238Y-73513390D02*
X152904762Y-73513390D01*
X152904762Y-73513390D02*
X152809524Y-73561009D01*
X152809524Y-73561009D02*
X152761905Y-73608628D01*
X152761905Y-73608628D02*
X152714286Y-73703866D01*
X152714286Y-73703866D02*
X152714286Y-73894342D01*
X152714286Y-73894342D02*
X152761905Y-73989580D01*
X152761905Y-73989580D02*
X152809524Y-74037200D01*
X152809524Y-74037200D02*
X152904762Y-74084819D01*
X152904762Y-74084819D02*
X153095238Y-74084819D01*
X153095238Y-74084819D02*
X153190476Y-74037200D01*
X153190476Y-74037200D02*
X153238095Y-73989580D01*
X153238095Y-73989580D02*
X153285714Y-73894342D01*
X153285714Y-73894342D02*
X153285714Y-73703866D01*
X153285714Y-73703866D02*
X153238095Y-73608628D01*
X153238095Y-73608628D02*
X153190476Y-73561009D01*
X153190476Y-73561009D02*
X153095238Y-73513390D01*
X152333333Y-68084819D02*
X152000000Y-67608628D01*
X151761905Y-68084819D02*
X151761905Y-67084819D01*
X151761905Y-67084819D02*
X152142857Y-67084819D01*
X152142857Y-67084819D02*
X152238095Y-67132438D01*
X152238095Y-67132438D02*
X152285714Y-67180057D01*
X152285714Y-67180057D02*
X152333333Y-67275295D01*
X152333333Y-67275295D02*
X152333333Y-67418152D01*
X152333333Y-67418152D02*
X152285714Y-67513390D01*
X152285714Y-67513390D02*
X152238095Y-67561009D01*
X152238095Y-67561009D02*
X152142857Y-67608628D01*
X152142857Y-67608628D02*
X151761905Y-67608628D01*
X152666667Y-67084819D02*
X153333333Y-67084819D01*
X153333333Y-67084819D02*
X152904762Y-68084819D01*
X152333333Y-62084819D02*
X152000000Y-61608628D01*
X151761905Y-62084819D02*
X151761905Y-61084819D01*
X151761905Y-61084819D02*
X152142857Y-61084819D01*
X152142857Y-61084819D02*
X152238095Y-61132438D01*
X152238095Y-61132438D02*
X152285714Y-61180057D01*
X152285714Y-61180057D02*
X152333333Y-61275295D01*
X152333333Y-61275295D02*
X152333333Y-61418152D01*
X152333333Y-61418152D02*
X152285714Y-61513390D01*
X152285714Y-61513390D02*
X152238095Y-61561009D01*
X152238095Y-61561009D02*
X152142857Y-61608628D01*
X152142857Y-61608628D02*
X151761905Y-61608628D01*
X153190476Y-61084819D02*
X153000000Y-61084819D01*
X153000000Y-61084819D02*
X152904762Y-61132438D01*
X152904762Y-61132438D02*
X152857143Y-61180057D01*
X152857143Y-61180057D02*
X152761905Y-61322914D01*
X152761905Y-61322914D02*
X152714286Y-61513390D01*
X152714286Y-61513390D02*
X152714286Y-61894342D01*
X152714286Y-61894342D02*
X152761905Y-61989580D01*
X152761905Y-61989580D02*
X152809524Y-62037200D01*
X152809524Y-62037200D02*
X152904762Y-62084819D01*
X152904762Y-62084819D02*
X153095238Y-62084819D01*
X153095238Y-62084819D02*
X153190476Y-62037200D01*
X153190476Y-62037200D02*
X153238095Y-61989580D01*
X153238095Y-61989580D02*
X153285714Y-61894342D01*
X153285714Y-61894342D02*
X153285714Y-61656247D01*
X153285714Y-61656247D02*
X153238095Y-61561009D01*
X153238095Y-61561009D02*
X153190476Y-61513390D01*
X153190476Y-61513390D02*
X153095238Y-61465771D01*
X153095238Y-61465771D02*
X152904762Y-61465771D01*
X152904762Y-61465771D02*
X152809524Y-61513390D01*
X152809524Y-61513390D02*
X152761905Y-61561009D01*
X152761905Y-61561009D02*
X152714286Y-61656247D01*
X152333333Y-56084819D02*
X152000000Y-55608628D01*
X151761905Y-56084819D02*
X151761905Y-55084819D01*
X151761905Y-55084819D02*
X152142857Y-55084819D01*
X152142857Y-55084819D02*
X152238095Y-55132438D01*
X152238095Y-55132438D02*
X152285714Y-55180057D01*
X152285714Y-55180057D02*
X152333333Y-55275295D01*
X152333333Y-55275295D02*
X152333333Y-55418152D01*
X152333333Y-55418152D02*
X152285714Y-55513390D01*
X152285714Y-55513390D02*
X152238095Y-55561009D01*
X152238095Y-55561009D02*
X152142857Y-55608628D01*
X152142857Y-55608628D02*
X151761905Y-55608628D01*
X153238095Y-55084819D02*
X152761905Y-55084819D01*
X152761905Y-55084819D02*
X152714286Y-55561009D01*
X152714286Y-55561009D02*
X152761905Y-55513390D01*
X152761905Y-55513390D02*
X152857143Y-55465771D01*
X152857143Y-55465771D02*
X153095238Y-55465771D01*
X153095238Y-55465771D02*
X153190476Y-55513390D01*
X153190476Y-55513390D02*
X153238095Y-55561009D01*
X153238095Y-55561009D02*
X153285714Y-55656247D01*
X153285714Y-55656247D02*
X153285714Y-55894342D01*
X153285714Y-55894342D02*
X153238095Y-55989580D01*
X153238095Y-55989580D02*
X153190476Y-56037200D01*
X153190476Y-56037200D02*
X153095238Y-56084819D01*
X153095238Y-56084819D02*
X152857143Y-56084819D01*
X152857143Y-56084819D02*
X152761905Y-56037200D01*
X152761905Y-56037200D02*
X152714286Y-55989580D01*
X152333333Y-50584819D02*
X152000000Y-50108628D01*
X151761905Y-50584819D02*
X151761905Y-49584819D01*
X151761905Y-49584819D02*
X152142857Y-49584819D01*
X152142857Y-49584819D02*
X152238095Y-49632438D01*
X152238095Y-49632438D02*
X152285714Y-49680057D01*
X152285714Y-49680057D02*
X152333333Y-49775295D01*
X152333333Y-49775295D02*
X152333333Y-49918152D01*
X152333333Y-49918152D02*
X152285714Y-50013390D01*
X152285714Y-50013390D02*
X152238095Y-50061009D01*
X152238095Y-50061009D02*
X152142857Y-50108628D01*
X152142857Y-50108628D02*
X151761905Y-50108628D01*
X153190476Y-49918152D02*
X153190476Y-50584819D01*
X152952381Y-49537200D02*
X152714286Y-50251485D01*
X152714286Y-50251485D02*
X153333333Y-50251485D01*
X152333333Y-45084819D02*
X152000000Y-44608628D01*
X151761905Y-45084819D02*
X151761905Y-44084819D01*
X151761905Y-44084819D02*
X152142857Y-44084819D01*
X152142857Y-44084819D02*
X152238095Y-44132438D01*
X152238095Y-44132438D02*
X152285714Y-44180057D01*
X152285714Y-44180057D02*
X152333333Y-44275295D01*
X152333333Y-44275295D02*
X152333333Y-44418152D01*
X152333333Y-44418152D02*
X152285714Y-44513390D01*
X152285714Y-44513390D02*
X152238095Y-44561009D01*
X152238095Y-44561009D02*
X152142857Y-44608628D01*
X152142857Y-44608628D02*
X151761905Y-44608628D01*
X152666667Y-44084819D02*
X153285714Y-44084819D01*
X153285714Y-44084819D02*
X152952381Y-44465771D01*
X152952381Y-44465771D02*
X153095238Y-44465771D01*
X153095238Y-44465771D02*
X153190476Y-44513390D01*
X153190476Y-44513390D02*
X153238095Y-44561009D01*
X153238095Y-44561009D02*
X153285714Y-44656247D01*
X153285714Y-44656247D02*
X153285714Y-44894342D01*
X153285714Y-44894342D02*
X153238095Y-44989580D01*
X153238095Y-44989580D02*
X153190476Y-45037200D01*
X153190476Y-45037200D02*
X153095238Y-45084819D01*
X153095238Y-45084819D02*
X152809524Y-45084819D01*
X152809524Y-45084819D02*
X152714286Y-45037200D01*
X152714286Y-45037200D02*
X152666667Y-44989580D01*
X152333333Y-39584819D02*
X152000000Y-39108628D01*
X151761905Y-39584819D02*
X151761905Y-38584819D01*
X151761905Y-38584819D02*
X152142857Y-38584819D01*
X152142857Y-38584819D02*
X152238095Y-38632438D01*
X152238095Y-38632438D02*
X152285714Y-38680057D01*
X152285714Y-38680057D02*
X152333333Y-38775295D01*
X152333333Y-38775295D02*
X152333333Y-38918152D01*
X152333333Y-38918152D02*
X152285714Y-39013390D01*
X152285714Y-39013390D02*
X152238095Y-39061009D01*
X152238095Y-39061009D02*
X152142857Y-39108628D01*
X152142857Y-39108628D02*
X151761905Y-39108628D01*
X152714286Y-38680057D02*
X152761905Y-38632438D01*
X152761905Y-38632438D02*
X152857143Y-38584819D01*
X152857143Y-38584819D02*
X153095238Y-38584819D01*
X153095238Y-38584819D02*
X153190476Y-38632438D01*
X153190476Y-38632438D02*
X153238095Y-38680057D01*
X153238095Y-38680057D02*
X153285714Y-38775295D01*
X153285714Y-38775295D02*
X153285714Y-38870533D01*
X153285714Y-38870533D02*
X153238095Y-39013390D01*
X153238095Y-39013390D02*
X152666667Y-39584819D01*
X152666667Y-39584819D02*
X153285714Y-39584819D01*
X111938333Y-69534819D02*
X111605000Y-69058628D01*
X111366905Y-69534819D02*
X111366905Y-68534819D01*
X111366905Y-68534819D02*
X111747857Y-68534819D01*
X111747857Y-68534819D02*
X111843095Y-68582438D01*
X111843095Y-68582438D02*
X111890714Y-68630057D01*
X111890714Y-68630057D02*
X111938333Y-68725295D01*
X111938333Y-68725295D02*
X111938333Y-68868152D01*
X111938333Y-68868152D02*
X111890714Y-68963390D01*
X111890714Y-68963390D02*
X111843095Y-69011009D01*
X111843095Y-69011009D02*
X111747857Y-69058628D01*
X111747857Y-69058628D02*
X111366905Y-69058628D01*
X112890714Y-69534819D02*
X112319286Y-69534819D01*
X112605000Y-69534819D02*
X112605000Y-68534819D01*
X112605000Y-68534819D02*
X112509762Y-68677676D01*
X112509762Y-68677676D02*
X112414524Y-68772914D01*
X112414524Y-68772914D02*
X112319286Y-68820533D01*
X164785714Y-92454819D02*
X164785714Y-91454819D01*
X164785714Y-91454819D02*
X165023809Y-91454819D01*
X165023809Y-91454819D02*
X165166666Y-91502438D01*
X165166666Y-91502438D02*
X165261904Y-91597676D01*
X165261904Y-91597676D02*
X165309523Y-91692914D01*
X165309523Y-91692914D02*
X165357142Y-91883390D01*
X165357142Y-91883390D02*
X165357142Y-92026247D01*
X165357142Y-92026247D02*
X165309523Y-92216723D01*
X165309523Y-92216723D02*
X165261904Y-92311961D01*
X165261904Y-92311961D02*
X165166666Y-92407200D01*
X165166666Y-92407200D02*
X165023809Y-92454819D01*
X165023809Y-92454819D02*
X164785714Y-92454819D01*
X166309523Y-92454819D02*
X165738095Y-92454819D01*
X166023809Y-92454819D02*
X166023809Y-91454819D01*
X166023809Y-91454819D02*
X165928571Y-91597676D01*
X165928571Y-91597676D02*
X165833333Y-91692914D01*
X165833333Y-91692914D02*
X165738095Y-91740533D01*
X166928571Y-91454819D02*
X167023809Y-91454819D01*
X167023809Y-91454819D02*
X167119047Y-91502438D01*
X167119047Y-91502438D02*
X167166666Y-91550057D01*
X167166666Y-91550057D02*
X167214285Y-91645295D01*
X167214285Y-91645295D02*
X167261904Y-91835771D01*
X167261904Y-91835771D02*
X167261904Y-92073866D01*
X167261904Y-92073866D02*
X167214285Y-92264342D01*
X167214285Y-92264342D02*
X167166666Y-92359580D01*
X167166666Y-92359580D02*
X167119047Y-92407200D01*
X167119047Y-92407200D02*
X167023809Y-92454819D01*
X167023809Y-92454819D02*
X166928571Y-92454819D01*
X166928571Y-92454819D02*
X166833333Y-92407200D01*
X166833333Y-92407200D02*
X166785714Y-92359580D01*
X166785714Y-92359580D02*
X166738095Y-92264342D01*
X166738095Y-92264342D02*
X166690476Y-92073866D01*
X166690476Y-92073866D02*
X166690476Y-91835771D01*
X166690476Y-91835771D02*
X166738095Y-91645295D01*
X166738095Y-91645295D02*
X166785714Y-91550057D01*
X166785714Y-91550057D02*
X166833333Y-91502438D01*
X166833333Y-91502438D02*
X166928571Y-91454819D01*
X165261905Y-89454819D02*
X165261905Y-88454819D01*
X165261905Y-88454819D02*
X165500000Y-88454819D01*
X165500000Y-88454819D02*
X165642857Y-88502438D01*
X165642857Y-88502438D02*
X165738095Y-88597676D01*
X165738095Y-88597676D02*
X165785714Y-88692914D01*
X165785714Y-88692914D02*
X165833333Y-88883390D01*
X165833333Y-88883390D02*
X165833333Y-89026247D01*
X165833333Y-89026247D02*
X165785714Y-89216723D01*
X165785714Y-89216723D02*
X165738095Y-89311961D01*
X165738095Y-89311961D02*
X165642857Y-89407200D01*
X165642857Y-89407200D02*
X165500000Y-89454819D01*
X165500000Y-89454819D02*
X165261905Y-89454819D01*
X166309524Y-89454819D02*
X166500000Y-89454819D01*
X166500000Y-89454819D02*
X166595238Y-89407200D01*
X166595238Y-89407200D02*
X166642857Y-89359580D01*
X166642857Y-89359580D02*
X166738095Y-89216723D01*
X166738095Y-89216723D02*
X166785714Y-89026247D01*
X166785714Y-89026247D02*
X166785714Y-88645295D01*
X166785714Y-88645295D02*
X166738095Y-88550057D01*
X166738095Y-88550057D02*
X166690476Y-88502438D01*
X166690476Y-88502438D02*
X166595238Y-88454819D01*
X166595238Y-88454819D02*
X166404762Y-88454819D01*
X166404762Y-88454819D02*
X166309524Y-88502438D01*
X166309524Y-88502438D02*
X166261905Y-88550057D01*
X166261905Y-88550057D02*
X166214286Y-88645295D01*
X166214286Y-88645295D02*
X166214286Y-88883390D01*
X166214286Y-88883390D02*
X166261905Y-88978628D01*
X166261905Y-88978628D02*
X166309524Y-89026247D01*
X166309524Y-89026247D02*
X166404762Y-89073866D01*
X166404762Y-89073866D02*
X166595238Y-89073866D01*
X166595238Y-89073866D02*
X166690476Y-89026247D01*
X166690476Y-89026247D02*
X166738095Y-88978628D01*
X166738095Y-88978628D02*
X166785714Y-88883390D01*
X165261905Y-83454819D02*
X165261905Y-82454819D01*
X165261905Y-82454819D02*
X165500000Y-82454819D01*
X165500000Y-82454819D02*
X165642857Y-82502438D01*
X165642857Y-82502438D02*
X165738095Y-82597676D01*
X165738095Y-82597676D02*
X165785714Y-82692914D01*
X165785714Y-82692914D02*
X165833333Y-82883390D01*
X165833333Y-82883390D02*
X165833333Y-83026247D01*
X165833333Y-83026247D02*
X165785714Y-83216723D01*
X165785714Y-83216723D02*
X165738095Y-83311961D01*
X165738095Y-83311961D02*
X165642857Y-83407200D01*
X165642857Y-83407200D02*
X165500000Y-83454819D01*
X165500000Y-83454819D02*
X165261905Y-83454819D01*
X166404762Y-82883390D02*
X166309524Y-82835771D01*
X166309524Y-82835771D02*
X166261905Y-82788152D01*
X166261905Y-82788152D02*
X166214286Y-82692914D01*
X166214286Y-82692914D02*
X166214286Y-82645295D01*
X166214286Y-82645295D02*
X166261905Y-82550057D01*
X166261905Y-82550057D02*
X166309524Y-82502438D01*
X166309524Y-82502438D02*
X166404762Y-82454819D01*
X166404762Y-82454819D02*
X166595238Y-82454819D01*
X166595238Y-82454819D02*
X166690476Y-82502438D01*
X166690476Y-82502438D02*
X166738095Y-82550057D01*
X166738095Y-82550057D02*
X166785714Y-82645295D01*
X166785714Y-82645295D02*
X166785714Y-82692914D01*
X166785714Y-82692914D02*
X166738095Y-82788152D01*
X166738095Y-82788152D02*
X166690476Y-82835771D01*
X166690476Y-82835771D02*
X166595238Y-82883390D01*
X166595238Y-82883390D02*
X166404762Y-82883390D01*
X166404762Y-82883390D02*
X166309524Y-82931009D01*
X166309524Y-82931009D02*
X166261905Y-82978628D01*
X166261905Y-82978628D02*
X166214286Y-83073866D01*
X166214286Y-83073866D02*
X166214286Y-83264342D01*
X166214286Y-83264342D02*
X166261905Y-83359580D01*
X166261905Y-83359580D02*
X166309524Y-83407200D01*
X166309524Y-83407200D02*
X166404762Y-83454819D01*
X166404762Y-83454819D02*
X166595238Y-83454819D01*
X166595238Y-83454819D02*
X166690476Y-83407200D01*
X166690476Y-83407200D02*
X166738095Y-83359580D01*
X166738095Y-83359580D02*
X166785714Y-83264342D01*
X166785714Y-83264342D02*
X166785714Y-83073866D01*
X166785714Y-83073866D02*
X166738095Y-82978628D01*
X166738095Y-82978628D02*
X166690476Y-82931009D01*
X166690476Y-82931009D02*
X166595238Y-82883390D01*
X165261905Y-77954819D02*
X165261905Y-76954819D01*
X165261905Y-76954819D02*
X165500000Y-76954819D01*
X165500000Y-76954819D02*
X165642857Y-77002438D01*
X165642857Y-77002438D02*
X165738095Y-77097676D01*
X165738095Y-77097676D02*
X165785714Y-77192914D01*
X165785714Y-77192914D02*
X165833333Y-77383390D01*
X165833333Y-77383390D02*
X165833333Y-77526247D01*
X165833333Y-77526247D02*
X165785714Y-77716723D01*
X165785714Y-77716723D02*
X165738095Y-77811961D01*
X165738095Y-77811961D02*
X165642857Y-77907200D01*
X165642857Y-77907200D02*
X165500000Y-77954819D01*
X165500000Y-77954819D02*
X165261905Y-77954819D01*
X166166667Y-76954819D02*
X166833333Y-76954819D01*
X166833333Y-76954819D02*
X166404762Y-77954819D01*
X165261905Y-71954819D02*
X165261905Y-70954819D01*
X165261905Y-70954819D02*
X165500000Y-70954819D01*
X165500000Y-70954819D02*
X165642857Y-71002438D01*
X165642857Y-71002438D02*
X165738095Y-71097676D01*
X165738095Y-71097676D02*
X165785714Y-71192914D01*
X165785714Y-71192914D02*
X165833333Y-71383390D01*
X165833333Y-71383390D02*
X165833333Y-71526247D01*
X165833333Y-71526247D02*
X165785714Y-71716723D01*
X165785714Y-71716723D02*
X165738095Y-71811961D01*
X165738095Y-71811961D02*
X165642857Y-71907200D01*
X165642857Y-71907200D02*
X165500000Y-71954819D01*
X165500000Y-71954819D02*
X165261905Y-71954819D01*
X166690476Y-70954819D02*
X166500000Y-70954819D01*
X166500000Y-70954819D02*
X166404762Y-71002438D01*
X166404762Y-71002438D02*
X166357143Y-71050057D01*
X166357143Y-71050057D02*
X166261905Y-71192914D01*
X166261905Y-71192914D02*
X166214286Y-71383390D01*
X166214286Y-71383390D02*
X166214286Y-71764342D01*
X166214286Y-71764342D02*
X166261905Y-71859580D01*
X166261905Y-71859580D02*
X166309524Y-71907200D01*
X166309524Y-71907200D02*
X166404762Y-71954819D01*
X166404762Y-71954819D02*
X166595238Y-71954819D01*
X166595238Y-71954819D02*
X166690476Y-71907200D01*
X166690476Y-71907200D02*
X166738095Y-71859580D01*
X166738095Y-71859580D02*
X166785714Y-71764342D01*
X166785714Y-71764342D02*
X166785714Y-71526247D01*
X166785714Y-71526247D02*
X166738095Y-71431009D01*
X166738095Y-71431009D02*
X166690476Y-71383390D01*
X166690476Y-71383390D02*
X166595238Y-71335771D01*
X166595238Y-71335771D02*
X166404762Y-71335771D01*
X166404762Y-71335771D02*
X166309524Y-71383390D01*
X166309524Y-71383390D02*
X166261905Y-71431009D01*
X166261905Y-71431009D02*
X166214286Y-71526247D01*
X165761905Y-65954819D02*
X165761905Y-64954819D01*
X165761905Y-64954819D02*
X166000000Y-64954819D01*
X166000000Y-64954819D02*
X166142857Y-65002438D01*
X166142857Y-65002438D02*
X166238095Y-65097676D01*
X166238095Y-65097676D02*
X166285714Y-65192914D01*
X166285714Y-65192914D02*
X166333333Y-65383390D01*
X166333333Y-65383390D02*
X166333333Y-65526247D01*
X166333333Y-65526247D02*
X166285714Y-65716723D01*
X166285714Y-65716723D02*
X166238095Y-65811961D01*
X166238095Y-65811961D02*
X166142857Y-65907200D01*
X166142857Y-65907200D02*
X166000000Y-65954819D01*
X166000000Y-65954819D02*
X165761905Y-65954819D01*
X167238095Y-64954819D02*
X166761905Y-64954819D01*
X166761905Y-64954819D02*
X166714286Y-65431009D01*
X166714286Y-65431009D02*
X166761905Y-65383390D01*
X166761905Y-65383390D02*
X166857143Y-65335771D01*
X166857143Y-65335771D02*
X167095238Y-65335771D01*
X167095238Y-65335771D02*
X167190476Y-65383390D01*
X167190476Y-65383390D02*
X167238095Y-65431009D01*
X167238095Y-65431009D02*
X167285714Y-65526247D01*
X167285714Y-65526247D02*
X167285714Y-65764342D01*
X167285714Y-65764342D02*
X167238095Y-65859580D01*
X167238095Y-65859580D02*
X167190476Y-65907200D01*
X167190476Y-65907200D02*
X167095238Y-65954819D01*
X167095238Y-65954819D02*
X166857143Y-65954819D01*
X166857143Y-65954819D02*
X166761905Y-65907200D01*
X166761905Y-65907200D02*
X166714286Y-65859580D01*
X165761905Y-59954819D02*
X165761905Y-58954819D01*
X165761905Y-58954819D02*
X166000000Y-58954819D01*
X166000000Y-58954819D02*
X166142857Y-59002438D01*
X166142857Y-59002438D02*
X166238095Y-59097676D01*
X166238095Y-59097676D02*
X166285714Y-59192914D01*
X166285714Y-59192914D02*
X166333333Y-59383390D01*
X166333333Y-59383390D02*
X166333333Y-59526247D01*
X166333333Y-59526247D02*
X166285714Y-59716723D01*
X166285714Y-59716723D02*
X166238095Y-59811961D01*
X166238095Y-59811961D02*
X166142857Y-59907200D01*
X166142857Y-59907200D02*
X166000000Y-59954819D01*
X166000000Y-59954819D02*
X165761905Y-59954819D01*
X167190476Y-59288152D02*
X167190476Y-59954819D01*
X166952381Y-58907200D02*
X166714286Y-59621485D01*
X166714286Y-59621485D02*
X167333333Y-59621485D01*
X165761905Y-54454819D02*
X165761905Y-53454819D01*
X165761905Y-53454819D02*
X166000000Y-53454819D01*
X166000000Y-53454819D02*
X166142857Y-53502438D01*
X166142857Y-53502438D02*
X166238095Y-53597676D01*
X166238095Y-53597676D02*
X166285714Y-53692914D01*
X166285714Y-53692914D02*
X166333333Y-53883390D01*
X166333333Y-53883390D02*
X166333333Y-54026247D01*
X166333333Y-54026247D02*
X166285714Y-54216723D01*
X166285714Y-54216723D02*
X166238095Y-54311961D01*
X166238095Y-54311961D02*
X166142857Y-54407200D01*
X166142857Y-54407200D02*
X166000000Y-54454819D01*
X166000000Y-54454819D02*
X165761905Y-54454819D01*
X166666667Y-53454819D02*
X167285714Y-53454819D01*
X167285714Y-53454819D02*
X166952381Y-53835771D01*
X166952381Y-53835771D02*
X167095238Y-53835771D01*
X167095238Y-53835771D02*
X167190476Y-53883390D01*
X167190476Y-53883390D02*
X167238095Y-53931009D01*
X167238095Y-53931009D02*
X167285714Y-54026247D01*
X167285714Y-54026247D02*
X167285714Y-54264342D01*
X167285714Y-54264342D02*
X167238095Y-54359580D01*
X167238095Y-54359580D02*
X167190476Y-54407200D01*
X167190476Y-54407200D02*
X167095238Y-54454819D01*
X167095238Y-54454819D02*
X166809524Y-54454819D01*
X166809524Y-54454819D02*
X166714286Y-54407200D01*
X166714286Y-54407200D02*
X166666667Y-54359580D01*
X165491905Y-48954819D02*
X165491905Y-47954819D01*
X165491905Y-47954819D02*
X165730000Y-47954819D01*
X165730000Y-47954819D02*
X165872857Y-48002438D01*
X165872857Y-48002438D02*
X165968095Y-48097676D01*
X165968095Y-48097676D02*
X166015714Y-48192914D01*
X166015714Y-48192914D02*
X166063333Y-48383390D01*
X166063333Y-48383390D02*
X166063333Y-48526247D01*
X166063333Y-48526247D02*
X166015714Y-48716723D01*
X166015714Y-48716723D02*
X165968095Y-48811961D01*
X165968095Y-48811961D02*
X165872857Y-48907200D01*
X165872857Y-48907200D02*
X165730000Y-48954819D01*
X165730000Y-48954819D02*
X165491905Y-48954819D01*
X166444286Y-48050057D02*
X166491905Y-48002438D01*
X166491905Y-48002438D02*
X166587143Y-47954819D01*
X166587143Y-47954819D02*
X166825238Y-47954819D01*
X166825238Y-47954819D02*
X166920476Y-48002438D01*
X166920476Y-48002438D02*
X166968095Y-48050057D01*
X166968095Y-48050057D02*
X167015714Y-48145295D01*
X167015714Y-48145295D02*
X167015714Y-48240533D01*
X167015714Y-48240533D02*
X166968095Y-48383390D01*
X166968095Y-48383390D02*
X166396667Y-48954819D01*
X166396667Y-48954819D02*
X167015714Y-48954819D01*
X165491905Y-43694819D02*
X165491905Y-42694819D01*
X165491905Y-42694819D02*
X165730000Y-42694819D01*
X165730000Y-42694819D02*
X165872857Y-42742438D01*
X165872857Y-42742438D02*
X165968095Y-42837676D01*
X165968095Y-42837676D02*
X166015714Y-42932914D01*
X166015714Y-42932914D02*
X166063333Y-43123390D01*
X166063333Y-43123390D02*
X166063333Y-43266247D01*
X166063333Y-43266247D02*
X166015714Y-43456723D01*
X166015714Y-43456723D02*
X165968095Y-43551961D01*
X165968095Y-43551961D02*
X165872857Y-43647200D01*
X165872857Y-43647200D02*
X165730000Y-43694819D01*
X165730000Y-43694819D02*
X165491905Y-43694819D01*
X167015714Y-43694819D02*
X166444286Y-43694819D01*
X166730000Y-43694819D02*
X166730000Y-42694819D01*
X166730000Y-42694819D02*
X166634762Y-42837676D01*
X166634762Y-42837676D02*
X166539524Y-42932914D01*
X166539524Y-42932914D02*
X166444286Y-42980533D01*
X119438333Y-55189580D02*
X119390714Y-55237200D01*
X119390714Y-55237200D02*
X119247857Y-55284819D01*
X119247857Y-55284819D02*
X119152619Y-55284819D01*
X119152619Y-55284819D02*
X119009762Y-55237200D01*
X119009762Y-55237200D02*
X118914524Y-55141961D01*
X118914524Y-55141961D02*
X118866905Y-55046723D01*
X118866905Y-55046723D02*
X118819286Y-54856247D01*
X118819286Y-54856247D02*
X118819286Y-54713390D01*
X118819286Y-54713390D02*
X118866905Y-54522914D01*
X118866905Y-54522914D02*
X118914524Y-54427676D01*
X118914524Y-54427676D02*
X119009762Y-54332438D01*
X119009762Y-54332438D02*
X119152619Y-54284819D01*
X119152619Y-54284819D02*
X119247857Y-54284819D01*
X119247857Y-54284819D02*
X119390714Y-54332438D01*
X119390714Y-54332438D02*
X119438333Y-54380057D01*
X120390714Y-55284819D02*
X119819286Y-55284819D01*
X120105000Y-55284819D02*
X120105000Y-54284819D01*
X120105000Y-54284819D02*
X120009762Y-54427676D01*
X120009762Y-54427676D02*
X119914524Y-54522914D01*
X119914524Y-54522914D02*
X119819286Y-54570533D01*
X92388990Y-62396831D02*
X92341371Y-62539688D01*
X92341371Y-62539688D02*
X92293752Y-62587307D01*
X92293752Y-62587307D02*
X92198514Y-62634926D01*
X92198514Y-62634926D02*
X92055657Y-62634926D01*
X92055657Y-62634926D02*
X91960419Y-62587307D01*
X91960419Y-62587307D02*
X91912800Y-62539688D01*
X91912800Y-62539688D02*
X91865180Y-62444450D01*
X91865180Y-62444450D02*
X91865180Y-62063498D01*
X91865180Y-62063498D02*
X92865180Y-62063498D01*
X92865180Y-62063498D02*
X92865180Y-62396831D01*
X92865180Y-62396831D02*
X92817561Y-62492069D01*
X92817561Y-62492069D02*
X92769942Y-62539688D01*
X92769942Y-62539688D02*
X92674704Y-62587307D01*
X92674704Y-62587307D02*
X92579466Y-62587307D01*
X92579466Y-62587307D02*
X92484228Y-62539688D01*
X92484228Y-62539688D02*
X92436609Y-62492069D01*
X92436609Y-62492069D02*
X92388990Y-62396831D01*
X92388990Y-62396831D02*
X92388990Y-62063498D01*
X92865180Y-62920641D02*
X92865180Y-63492069D01*
X91865180Y-63206355D02*
X92865180Y-63206355D01*
X92769942Y-63777784D02*
X92817561Y-63825403D01*
X92817561Y-63825403D02*
X92865180Y-63920641D01*
X92865180Y-63920641D02*
X92865180Y-64158736D01*
X92865180Y-64158736D02*
X92817561Y-64253974D01*
X92817561Y-64253974D02*
X92769942Y-64301593D01*
X92769942Y-64301593D02*
X92674704Y-64349212D01*
X92674704Y-64349212D02*
X92579466Y-64349212D01*
X92579466Y-64349212D02*
X92436609Y-64301593D01*
X92436609Y-64301593D02*
X91865180Y-63730165D01*
X91865180Y-63730165D02*
X91865180Y-64349212D01*
X92388990Y-31896831D02*
X92341371Y-32039688D01*
X92341371Y-32039688D02*
X92293752Y-32087307D01*
X92293752Y-32087307D02*
X92198514Y-32134926D01*
X92198514Y-32134926D02*
X92055657Y-32134926D01*
X92055657Y-32134926D02*
X91960419Y-32087307D01*
X91960419Y-32087307D02*
X91912800Y-32039688D01*
X91912800Y-32039688D02*
X91865180Y-31944450D01*
X91865180Y-31944450D02*
X91865180Y-31563498D01*
X91865180Y-31563498D02*
X92865180Y-31563498D01*
X92865180Y-31563498D02*
X92865180Y-31896831D01*
X92865180Y-31896831D02*
X92817561Y-31992069D01*
X92817561Y-31992069D02*
X92769942Y-32039688D01*
X92769942Y-32039688D02*
X92674704Y-32087307D01*
X92674704Y-32087307D02*
X92579466Y-32087307D01*
X92579466Y-32087307D02*
X92484228Y-32039688D01*
X92484228Y-32039688D02*
X92436609Y-31992069D01*
X92436609Y-31992069D02*
X92388990Y-31896831D01*
X92388990Y-31896831D02*
X92388990Y-31563498D01*
X92865180Y-32420641D02*
X92865180Y-32992069D01*
X91865180Y-32706355D02*
X92865180Y-32706355D01*
X91865180Y-33849212D02*
X91865180Y-33277784D01*
X91865180Y-33563498D02*
X92865180Y-33563498D01*
X92865180Y-33563498D02*
X92722323Y-33468260D01*
X92722323Y-33468260D02*
X92627085Y-33373022D01*
X92627085Y-33373022D02*
X92579466Y-33277784D01*
D12*
%TO.C,U2*%
X133960000Y-69410000D02*
X133960000Y-48970000D01*
X133960000Y-48970000D02*
X128660000Y-48970000D01*
X132310000Y-69410000D02*
X133960000Y-69410000D01*
X128660000Y-69410000D02*
X130310000Y-69410000D01*
X128660000Y-48970000D02*
X128660000Y-69410000D01*
X130310000Y-69410000D02*
G75*
G02*
X132310000Y-69410000I1000000J0D01*
G01*
%TO.C,U1*%
X108460000Y-54940000D02*
X108460000Y-65220000D01*
X108460000Y-65220000D02*
X113760000Y-65220000D01*
X110110000Y-54940000D02*
X108460000Y-54940000D01*
X113760000Y-54940000D02*
X112110000Y-54940000D01*
X113760000Y-65220000D02*
X113760000Y-54940000D01*
X112110000Y-54940000D02*
G75*
G02*
X110110000Y-54940000I-1000000J0D01*
G01*
%TO.C,RV1*%
X105730000Y-42705000D02*
X115480000Y-42705000D01*
X105730000Y-52455000D02*
X105730000Y-42705000D01*
X115480000Y-42705000D02*
X115480000Y-52455000D01*
X115480000Y-52455000D02*
X105730000Y-52455000D01*
%TO.C,R11*%
X152272936Y-91265000D02*
X152727064Y-91265000D01*
X152272936Y-92735000D02*
X152727064Y-92735000D01*
%TO.C,R10*%
X148460000Y-87500000D02*
X149230000Y-87500000D01*
X156540000Y-87500000D02*
X155770000Y-87500000D01*
X149230000Y-86130000D02*
X155770000Y-86130000D01*
X155770000Y-88870000D01*
X149230000Y-88870000D01*
X149230000Y-86130000D01*
%TO.C,R9*%
X148460000Y-81500000D02*
X149230000Y-81500000D01*
X156540000Y-81500000D02*
X155770000Y-81500000D01*
X149230000Y-80130000D02*
X155770000Y-80130000D01*
X155770000Y-82870000D01*
X149230000Y-82870000D01*
X149230000Y-80130000D01*
%TO.C,R8*%
X148460000Y-76000000D02*
X149230000Y-76000000D01*
X156540000Y-76000000D02*
X155770000Y-76000000D01*
X149230000Y-74630000D02*
X155770000Y-74630000D01*
X155770000Y-77370000D01*
X149230000Y-77370000D01*
X149230000Y-74630000D01*
%TO.C,R7*%
X148460000Y-70000000D02*
X149230000Y-70000000D01*
X156540000Y-70000000D02*
X155770000Y-70000000D01*
X149230000Y-68630000D02*
X155770000Y-68630000D01*
X155770000Y-71370000D01*
X149230000Y-71370000D01*
X149230000Y-68630000D01*
%TO.C,R6*%
X148460000Y-64000000D02*
X149230000Y-64000000D01*
X156540000Y-64000000D02*
X155770000Y-64000000D01*
X149230000Y-62630000D02*
X155770000Y-62630000D01*
X155770000Y-65370000D01*
X149230000Y-65370000D01*
X149230000Y-62630000D01*
%TO.C,R5*%
X148460000Y-58000000D02*
X149230000Y-58000000D01*
X156540000Y-58000000D02*
X155770000Y-58000000D01*
X149230000Y-56630000D02*
X155770000Y-56630000D01*
X155770000Y-59370000D01*
X149230000Y-59370000D01*
X149230000Y-56630000D01*
%TO.C,R4*%
X148460000Y-52500000D02*
X149230000Y-52500000D01*
X156540000Y-52500000D02*
X155770000Y-52500000D01*
X149230000Y-51130000D02*
X155770000Y-51130000D01*
X155770000Y-53870000D01*
X149230000Y-53870000D01*
X149230000Y-51130000D01*
%TO.C,R3*%
X148460000Y-47000000D02*
X149230000Y-47000000D01*
X156540000Y-47000000D02*
X155770000Y-47000000D01*
X149230000Y-45630000D02*
X155770000Y-45630000D01*
X155770000Y-48370000D01*
X149230000Y-48370000D01*
X149230000Y-45630000D01*
%TO.C,R2*%
X148460000Y-41500000D02*
X149230000Y-41500000D01*
X156540000Y-41500000D02*
X155770000Y-41500000D01*
X149230000Y-40130000D02*
X155770000Y-40130000D01*
X155770000Y-42870000D01*
X149230000Y-42870000D01*
X149230000Y-40130000D01*
%TO.C,R1*%
X108065000Y-69080000D02*
X108835000Y-69080000D01*
X116145000Y-69080000D02*
X115375000Y-69080000D01*
X108835000Y-67710000D02*
X115375000Y-67710000D01*
X115375000Y-70450000D01*
X108835000Y-70450000D01*
X108835000Y-67710000D01*
%TO.C,D10*%
X164360000Y-92960000D02*
X164360000Y-91040000D01*
X164360000Y-91040000D02*
X161500000Y-91040000D01*
X161500000Y-92960000D02*
X164360000Y-92960000D01*
%TO.C,D9*%
X164060000Y-88736000D02*
X164060000Y-88580000D01*
X164060000Y-86420000D02*
X164060000Y-86264000D01*
X164060000Y-88735516D02*
G75*
G02*
X160828563Y-88580000I-1560000J1235516D01*
G01*
X163540961Y-88580000D02*
G75*
G02*
X161459039Y-88580000I-1040961J1080000D01*
G01*
X161459039Y-86420000D02*
G75*
G02*
X163540961Y-86420000I1040961J-1080000D01*
G01*
X160828563Y-86420000D02*
G75*
G02*
X164060000Y-86264484I1671437J-1080000D01*
G01*
%TO.C,D8*%
X164060000Y-82736000D02*
X164060000Y-82580000D01*
X164060000Y-80420000D02*
X164060000Y-80264000D01*
X164060000Y-82735516D02*
G75*
G02*
X160828563Y-82580000I-1560000J1235516D01*
G01*
X163540961Y-82580000D02*
G75*
G02*
X161459039Y-82580000I-1040961J1080000D01*
G01*
X161459039Y-80420000D02*
G75*
G02*
X163540961Y-80420000I1040961J-1080000D01*
G01*
X160828563Y-80420000D02*
G75*
G02*
X164060000Y-80264484I1671437J-1080000D01*
G01*
%TO.C,D7*%
X164060000Y-77236000D02*
X164060000Y-77080000D01*
X164060000Y-74920000D02*
X164060000Y-74764000D01*
X164060000Y-77235516D02*
G75*
G02*
X160828563Y-77080000I-1560000J1235516D01*
G01*
X163540961Y-77080000D02*
G75*
G02*
X161459039Y-77080000I-1040961J1080000D01*
G01*
X161459039Y-74920000D02*
G75*
G02*
X163540961Y-74920000I1040961J-1080000D01*
G01*
X160828563Y-74920000D02*
G75*
G02*
X164060000Y-74764484I1671437J-1080000D01*
G01*
%TO.C,D6*%
X164060000Y-71236000D02*
X164060000Y-71080000D01*
X164060000Y-68920000D02*
X164060000Y-68764000D01*
X164060000Y-71235516D02*
G75*
G02*
X160828563Y-71080000I-1560000J1235516D01*
G01*
X163540961Y-71080000D02*
G75*
G02*
X161459039Y-71080000I-1040961J1080000D01*
G01*
X161459039Y-68920000D02*
G75*
G02*
X163540961Y-68920000I1040961J-1080000D01*
G01*
X160828563Y-68920000D02*
G75*
G02*
X164060000Y-68764484I1671437J-1080000D01*
G01*
%TO.C,D5*%
X164060000Y-65236000D02*
X164060000Y-65080000D01*
X164060000Y-62920000D02*
X164060000Y-62764000D01*
X164060000Y-65235516D02*
G75*
G02*
X160828563Y-65080000I-1560000J1235516D01*
G01*
X163540961Y-65080000D02*
G75*
G02*
X161459039Y-65080000I-1040961J1080000D01*
G01*
X161459039Y-62920000D02*
G75*
G02*
X163540961Y-62920000I1040961J-1080000D01*
G01*
X160828563Y-62920000D02*
G75*
G02*
X164060000Y-62764484I1671437J-1080000D01*
G01*
%TO.C,D4*%
X164060000Y-59236000D02*
X164060000Y-59080000D01*
X164060000Y-56920000D02*
X164060000Y-56764000D01*
X164060000Y-59235516D02*
G75*
G02*
X160828563Y-59080000I-1560000J1235516D01*
G01*
X163540961Y-59080000D02*
G75*
G02*
X161459039Y-59080000I-1040961J1080000D01*
G01*
X161459039Y-56920000D02*
G75*
G02*
X163540961Y-56920000I1040961J-1080000D01*
G01*
X160828563Y-56920000D02*
G75*
G02*
X164060000Y-56764484I1671437J-1080000D01*
G01*
%TO.C,D3*%
X164060000Y-53736000D02*
X164060000Y-53580000D01*
X164060000Y-51420000D02*
X164060000Y-51264000D01*
X164060000Y-53735516D02*
G75*
G02*
X160828563Y-53580000I-1560000J1235516D01*
G01*
X163540961Y-53580000D02*
G75*
G02*
X161459039Y-53580000I-1040961J1080000D01*
G01*
X161459039Y-51420000D02*
G75*
G02*
X163540961Y-51420000I1040961J-1080000D01*
G01*
X160828563Y-51420000D02*
G75*
G02*
X164060000Y-51264484I1671437J-1080000D01*
G01*
%TO.C,D2*%
X164060000Y-48236000D02*
X164060000Y-48080000D01*
X164060000Y-45920000D02*
X164060000Y-45764000D01*
X164060000Y-48235516D02*
G75*
G02*
X160828563Y-48080000I-1560000J1235516D01*
G01*
X163540961Y-48080000D02*
G75*
G02*
X161459039Y-48080000I-1040961J1080000D01*
G01*
X161459039Y-45920000D02*
G75*
G02*
X163540961Y-45920000I1040961J-1080000D01*
G01*
X160828563Y-45920000D02*
G75*
G02*
X164060000Y-45764484I1671437J-1080000D01*
G01*
%TO.C,D1*%
X164060000Y-42736000D02*
X164060000Y-42580000D01*
X164060000Y-40420000D02*
X164060000Y-40264000D01*
X164060000Y-42735516D02*
G75*
G02*
X160828563Y-42580000I-1560000J1235516D01*
G01*
X163540961Y-42580000D02*
G75*
G02*
X161459039Y-42580000I-1040961J1080000D01*
G01*
X161459039Y-40420000D02*
G75*
G02*
X163540961Y-40420000I1040961J-1080000D01*
G01*
X160828563Y-40420000D02*
G75*
G02*
X164060000Y-40264484I1671437J-1080000D01*
G01*
%TO.C,C1*%
X117335199Y-56885000D02*
X117735199Y-56885000D01*
X117535199Y-56685000D02*
X117535199Y-57085000D01*
X119605000Y-56000000D02*
X119605000Y-60160000D01*
X119645000Y-56000000D02*
X119645000Y-60160000D01*
X119685000Y-56002000D02*
X119685000Y-60158000D01*
X119725000Y-56003000D02*
X119725000Y-60157000D01*
X119765000Y-56006000D02*
X119765000Y-60154000D01*
X119805000Y-56009000D02*
X119805000Y-57240000D01*
X119805000Y-58920000D02*
X119805000Y-60151000D01*
X119845000Y-56014000D02*
X119845000Y-57240000D01*
X119845000Y-58920000D02*
X119845000Y-60146000D01*
X119885000Y-56019000D02*
X119885000Y-57240000D01*
X119885000Y-58920000D02*
X119885000Y-60141000D01*
X119925000Y-56024000D02*
X119925000Y-57240000D01*
X119925000Y-58920000D02*
X119925000Y-60136000D01*
X119965000Y-56031000D02*
X119965000Y-57240000D01*
X119965000Y-58920000D02*
X119965000Y-60129000D01*
X120005000Y-56038000D02*
X120005000Y-57240000D01*
X120005000Y-58920000D02*
X120005000Y-60122000D01*
X120045000Y-56046000D02*
X120045000Y-57240000D01*
X120045000Y-58920000D02*
X120045000Y-60114000D01*
X120085000Y-56055000D02*
X120085000Y-57240000D01*
X120085000Y-58920000D02*
X120085000Y-60105000D01*
X120125000Y-56065000D02*
X120125000Y-57240000D01*
X120125000Y-58920000D02*
X120125000Y-60095000D01*
X120165000Y-56075000D02*
X120165000Y-57240000D01*
X120165000Y-58920000D02*
X120165000Y-60085000D01*
X120205000Y-56087000D02*
X120205000Y-57240000D01*
X120205000Y-58920000D02*
X120205000Y-60073000D01*
X120245000Y-56099000D02*
X120245000Y-57240000D01*
X120245000Y-58920000D02*
X120245000Y-60061000D01*
X120285000Y-56112000D02*
X120285000Y-57240000D01*
X120285000Y-58920000D02*
X120285000Y-60048000D01*
X120325000Y-56126000D02*
X120325000Y-57240000D01*
X120325000Y-58920000D02*
X120325000Y-60034000D01*
X120365000Y-56141000D02*
X120365000Y-57240000D01*
X120365000Y-58920000D02*
X120365000Y-60019000D01*
X120405000Y-56157000D02*
X120405000Y-57240000D01*
X120405000Y-58920000D02*
X120405000Y-60003000D01*
X120445000Y-56174000D02*
X120445000Y-57240000D01*
X120445000Y-58920000D02*
X120445000Y-59986000D01*
X120485000Y-56191000D02*
X120485000Y-57240000D01*
X120485000Y-58920000D02*
X120485000Y-59969000D01*
X120525000Y-56210000D02*
X120525000Y-57240000D01*
X120525000Y-58920000D02*
X120525000Y-59950000D01*
X120565000Y-56230000D02*
X120565000Y-57240000D01*
X120565000Y-58920000D02*
X120565000Y-59930000D01*
X120605000Y-56251000D02*
X120605000Y-57240000D01*
X120605000Y-58920000D02*
X120605000Y-59909000D01*
X120645000Y-56273000D02*
X120645000Y-57240000D01*
X120645000Y-58920000D02*
X120645000Y-59887000D01*
X120685000Y-56296000D02*
X120685000Y-57240000D01*
X120685000Y-58920000D02*
X120685000Y-59864000D01*
X120725000Y-56320000D02*
X120725000Y-57240000D01*
X120725000Y-58920000D02*
X120725000Y-59840000D01*
X120765000Y-56346000D02*
X120765000Y-57240000D01*
X120765000Y-58920000D02*
X120765000Y-59814000D01*
X120805000Y-56372000D02*
X120805000Y-57240000D01*
X120805000Y-58920000D02*
X120805000Y-59788000D01*
X120845000Y-56400000D02*
X120845000Y-57240000D01*
X120845000Y-58920000D02*
X120845000Y-59760000D01*
X120885000Y-56430000D02*
X120885000Y-57240000D01*
X120885000Y-58920000D02*
X120885000Y-59730000D01*
X120925000Y-56461000D02*
X120925000Y-57240000D01*
X120925000Y-58920000D02*
X120925000Y-59699000D01*
X120965000Y-56494000D02*
X120965000Y-57240000D01*
X120965000Y-58920000D02*
X120965000Y-59666000D01*
X121005000Y-56528000D02*
X121005000Y-57240000D01*
X121005000Y-58920000D02*
X121005000Y-59632000D01*
X121045000Y-56564000D02*
X121045000Y-57240000D01*
X121045000Y-58920000D02*
X121045000Y-59596000D01*
X121085000Y-56602000D02*
X121085000Y-57240000D01*
X121085000Y-58920000D02*
X121085000Y-59558000D01*
X121125000Y-56642000D02*
X121125000Y-57240000D01*
X121125000Y-58920000D02*
X121125000Y-59518000D01*
X121165000Y-56684000D02*
X121165000Y-57240000D01*
X121165000Y-58920000D02*
X121165000Y-59476000D01*
X121205000Y-56729000D02*
X121205000Y-57240000D01*
X121205000Y-58920000D02*
X121205000Y-59431000D01*
X121245000Y-56777000D02*
X121245000Y-57240000D01*
X121245000Y-58920000D02*
X121245000Y-59383000D01*
X121285000Y-56827000D02*
X121285000Y-57240000D01*
X121285000Y-58920000D02*
X121285000Y-59333000D01*
X121325000Y-56881000D02*
X121325000Y-57240000D01*
X121325000Y-58920000D02*
X121325000Y-59279000D01*
X121365000Y-56938000D02*
X121365000Y-57240000D01*
X121365000Y-58920000D02*
X121365000Y-59222000D01*
X121405000Y-57000000D02*
X121405000Y-57240000D01*
X121405000Y-58920000D02*
X121405000Y-59160000D01*
X121445000Y-57067000D02*
X121445000Y-59093000D01*
X121485000Y-57140000D02*
X121485000Y-59020000D01*
X121525000Y-57221000D02*
X121525000Y-58939000D01*
X121565000Y-57312000D02*
X121565000Y-58848000D01*
X121605000Y-57417000D02*
X121605000Y-58743000D01*
X121645000Y-57543000D02*
X121645000Y-58617000D01*
X121685000Y-57710000D02*
X121685000Y-58450000D01*
X121725000Y-58080000D02*
G75*
G02*
X117485000Y-58080000I-2120000J0D01*
G01*
X117485000Y-58080000D02*
G75*
G02*
X121725000Y-58080000I2120000J0D01*
G01*
%TO.C,BT2*%
X88120000Y-66082546D02*
X88120000Y-67082546D01*
X88620000Y-66582546D02*
X87620000Y-66582546D01*
X91220000Y-65582547D02*
G75*
G02*
X85020000Y-65582547I-3100000J-11499999D01*
G01*
%TO.C,BT1*%
X88120000Y-35582546D02*
X88120000Y-36582546D01*
X88620000Y-36082546D02*
X87620000Y-36082546D01*
X91220000Y-35082547D02*
G75*
G02*
X85020000Y-35082547I-3100000J-11499999D01*
G01*
%TD*%
M02*
