%TF.GenerationSoftware,KiCad,Pcbnew,9.0.5*%
%TF.CreationDate,2025-10-19T16:10:15+05:30*%
%TF.ProjectId,KICADWORKSHOP_LED_CHASER,4b494341-4457-44f5-924b-53484f505f4c,rev?*%
%TF.SameCoordinates,Original*%
%TF.FileFunction,Soldermask,Top*%
%TF.FilePolarity,Negative*%
%FSLAX46Y46*%
G04 Gerber Fmt 4.6, Leading zero omitted, Abs format (unit mm)*
G04 Created by KiCad (PCBNEW 9.0.5) date 2025-10-19 16:10:15*
%MOMM*%
%LPD*%
G01*
G04 APERTURE LIST*
G04 Aperture macros list*
%AMRoundRect*
0 Rectangle with rounded corners*
0 $1 Rounding radius*
0 $2 $3 $4 $5 $6 $7 $8 $9 X,Y pos of 4 corners*
0 Add a 4 corners polygon primitive as box body*
4,1,4,$2,$3,$4,$5,$6,$7,$8,$9,$2,$3,0*
0 Add four circle primitives for the rounded corners*
1,1,$1+$1,$2,$3*
1,1,$1+$1,$4,$5*
1,1,$1+$1,$6,$7*
1,1,$1+$1,$8,$9*
0 Add four rect primitives between the rounded corners*
20,1,$1+$1,$2,$3,$4,$5,0*
20,1,$1+$1,$4,$5,$6,$7,0*
20,1,$1+$1,$6,$7,$8,$9,0*
20,1,$1+$1,$8,$9,$2,$3,0*%
G04 Aperture macros list end*
%ADD10RoundRect,0.250000X0.550000X0.550000X-0.550000X0.550000X-0.550000X-0.550000X0.550000X-0.550000X0*%
%ADD11C,1.600000*%
%ADD12RoundRect,0.250000X-0.550000X-0.550000X0.550000X-0.550000X0.550000X0.550000X-0.550000X0.550000X0*%
%ADD13C,1.440000*%
%ADD14RoundRect,0.250000X-0.262500X-0.450000X0.262500X-0.450000X0.262500X0.450000X-0.262500X0.450000X0*%
%ADD15RoundRect,0.250000X0.325000X0.450000X-0.325000X0.450000X-0.325000X-0.450000X0.325000X-0.450000X0*%
%ADD16R,1.800000X1.800000*%
%ADD17C,1.800000*%
%ADD18RoundRect,0.250000X-0.350000X-0.350000X0.350000X-0.350000X0.350000X0.350000X-0.350000X0.350000X0*%
%ADD19C,1.200000*%
%ADD20R,2.000000X2.000000*%
%ADD21C,2.000000*%
G04 APERTURE END LIST*
D10*
%TO.C,U2*%
X135120000Y-68080000D03*
D11*
X135120000Y-65540000D03*
X135120000Y-63000000D03*
X135120000Y-60460000D03*
X135120000Y-57920000D03*
X135120000Y-55380000D03*
X135120000Y-52840000D03*
X135120000Y-50300000D03*
X127500000Y-50300000D03*
X127500000Y-52840000D03*
X127500000Y-55380000D03*
X127500000Y-57920000D03*
X127500000Y-60460000D03*
X127500000Y-63000000D03*
X127500000Y-65540000D03*
X127500000Y-68080000D03*
%TD*%
D12*
%TO.C,U1*%
X107300000Y-56270000D03*
D11*
X107300000Y-58810000D03*
X107300000Y-61350000D03*
X107300000Y-63890000D03*
X114920000Y-63890000D03*
X114920000Y-61350000D03*
X114920000Y-58810000D03*
X114920000Y-56270000D03*
%TD*%
D13*
%TO.C,RV1*%
X110620000Y-50120000D03*
X113160000Y-47580000D03*
X110620000Y-45040000D03*
%TD*%
D14*
%TO.C,R11*%
X151587500Y-92000000D03*
X153412500Y-92000000D03*
%TD*%
D11*
%TO.C,R10*%
X147420000Y-87500000D03*
X157580000Y-87500000D03*
%TD*%
%TO.C,R9*%
X147420000Y-81500000D03*
X157580000Y-81500000D03*
%TD*%
%TO.C,R8*%
X147420000Y-76000000D03*
X157580000Y-76000000D03*
%TD*%
%TO.C,R7*%
X147420000Y-70000000D03*
X157580000Y-70000000D03*
%TD*%
%TO.C,R6*%
X147420000Y-64000000D03*
X157580000Y-64000000D03*
%TD*%
%TO.C,R5*%
X147420000Y-58000000D03*
X157580000Y-58000000D03*
%TD*%
%TO.C,R4*%
X147420000Y-52500000D03*
X157580000Y-52500000D03*
%TD*%
%TO.C,R3*%
X147420000Y-47000000D03*
X157580000Y-47000000D03*
%TD*%
%TO.C,R2*%
X147420000Y-41500000D03*
X157580000Y-41500000D03*
%TD*%
%TO.C,R1*%
X107025000Y-69080000D03*
X117185000Y-69080000D03*
%TD*%
D15*
%TO.C,D10*%
X163525000Y-92000000D03*
X161475000Y-92000000D03*
%TD*%
D16*
%TO.C,D9*%
X163770000Y-87500000D03*
D17*
X161230000Y-87500000D03*
%TD*%
D16*
%TO.C,D8*%
X163770000Y-81500000D03*
D17*
X161230000Y-81500000D03*
%TD*%
D16*
%TO.C,D7*%
X163770000Y-76000000D03*
D17*
X161230000Y-76000000D03*
%TD*%
D16*
%TO.C,D6*%
X163770000Y-70000000D03*
D17*
X161230000Y-70000000D03*
%TD*%
D16*
%TO.C,D5*%
X163770000Y-64000000D03*
D17*
X161230000Y-64000000D03*
%TD*%
D16*
%TO.C,D4*%
X163770000Y-58000000D03*
D17*
X161230000Y-58000000D03*
%TD*%
D16*
%TO.C,D3*%
X163770000Y-52500000D03*
D17*
X161230000Y-52500000D03*
%TD*%
D16*
%TO.C,D2*%
X163770000Y-47000000D03*
D17*
X161230000Y-47000000D03*
%TD*%
D16*
%TO.C,D1*%
X163770000Y-41500000D03*
D17*
X161230000Y-41500000D03*
%TD*%
D18*
%TO.C,C1*%
X118605000Y-58080000D03*
D19*
X120605000Y-58080000D03*
%TD*%
D20*
%TO.C,BT2*%
X88120000Y-64682546D03*
D21*
X88120000Y-85482546D03*
%TD*%
D20*
%TO.C,BT1*%
X88120000Y-34182546D03*
D21*
X88120000Y-54982546D03*
%TD*%
M02*
